<?xml version="1.0" encoding="utf-8" standalone="no"?>
<!DOCTYPE svg PUBLIC "-//W3C//DTD SVG 1.1//EN"
  "http://www.w3.org/Graphics/SVG/1.1/DTD/svg11.dtd">
<!-- Created with matplotlib (https://matplotlib.org/) -->
<svg height="1080pt" version="1.1" viewBox="0 0 1080 1080" width="1080pt" xmlns="http://www.w3.org/2000/svg" xmlns:xlink="http://www.w3.org/1999/xlink">
 <defs>
  <style type="text/css">
*{stroke-linecap:butt;stroke-linejoin:round;}
  </style>
 </defs>
 <g id="figure_1">
  <g id="patch_1">
   <path d="M 0 1080 
L 1080 1080 
L 1080 0 
L 0 0 
z
" style="fill:#ffffff;"/>
  </g>
  <g id="axes_1">
   <g id="patch_2">
    <path d="M 50.87 498.98 
L 515.271178 498.98 
L 515.271178 26.88 
L 50.87 26.88 
z
" style="fill:#ffffff;"/>
   </g>
   <g id="matplotlib.axis_1">
    <g id="xtick_1">
     <g id="line2d_1">
      <defs>
       <path d="M 0 0 
L 0 3.5 
" id="mafb8cb4594" style="stroke:#000000;stroke-width:0.8;"/>
      </defs>
      <g>
       <use style="stroke:#000000;stroke-width:0.8;" x="513.658673" xlink:href="#mafb8cb4594" y="498.98"/>
      </g>
     </g>
     <g id="text_1">
      <!-- Day 02 -->
      <defs>
       <path d="M 19.671875 64.796875 
L 19.671875 8.109375 
L 31.59375 8.109375 
Q 46.6875 8.109375 53.6875 14.9375 
Q 60.6875 21.78125 60.6875 36.53125 
Q 60.6875 51.171875 53.6875 57.984375 
Q 46.6875 64.796875 31.59375 64.796875 
z
M 9.8125 72.90625 
L 30.078125 72.90625 
Q 51.265625 72.90625 61.171875 64.09375 
Q 71.09375 55.28125 71.09375 36.53125 
Q 71.09375 17.671875 61.125 8.828125 
Q 51.171875 0 30.078125 0 
L 9.8125 0 
z
" id="DejaVuSans-68"/>
       <path d="M 34.28125 27.484375 
Q 23.390625 27.484375 19.1875 25 
Q 14.984375 22.515625 14.984375 16.5 
Q 14.984375 11.71875 18.140625 8.90625 
Q 21.296875 6.109375 26.703125 6.109375 
Q 34.1875 6.109375 38.703125 11.40625 
Q 43.21875 16.703125 43.21875 25.484375 
L 43.21875 27.484375 
z
M 52.203125 31.203125 
L 52.203125 0 
L 43.21875 0 
L 43.21875 8.296875 
Q 40.140625 3.328125 35.546875 0.953125 
Q 30.953125 -1.421875 24.3125 -1.421875 
Q 15.921875 -1.421875 10.953125 3.296875 
Q 6 8.015625 6 15.921875 
Q 6 25.140625 12.171875 29.828125 
Q 18.359375 34.515625 30.609375 34.515625 
L 43.21875 34.515625 
L 43.21875 35.40625 
Q 43.21875 41.609375 39.140625 45 
Q 35.0625 48.390625 27.6875 48.390625 
Q 23 48.390625 18.546875 47.265625 
Q 14.109375 46.140625 10.015625 43.890625 
L 10.015625 52.203125 
Q 14.9375 54.109375 19.578125 55.046875 
Q 24.21875 56 28.609375 56 
Q 40.484375 56 46.34375 49.84375 
Q 52.203125 43.703125 52.203125 31.203125 
z
" id="DejaVuSans-97"/>
       <path d="M 32.171875 -5.078125 
Q 28.375 -14.84375 24.75 -17.8125 
Q 21.140625 -20.796875 15.09375 -20.796875 
L 7.90625 -20.796875 
L 7.90625 -13.28125 
L 13.1875 -13.28125 
Q 16.890625 -13.28125 18.9375 -11.515625 
Q 21 -9.765625 23.484375 -3.21875 
L 25.09375 0.875 
L 2.984375 54.6875 
L 12.5 54.6875 
L 29.59375 11.921875 
L 46.6875 54.6875 
L 56.203125 54.6875 
z
" id="DejaVuSans-121"/>
       <path id="DejaVuSans-32"/>
       <path d="M 31.78125 66.40625 
Q 24.171875 66.40625 20.328125 58.90625 
Q 16.5 51.421875 16.5 36.375 
Q 16.5 21.390625 20.328125 13.890625 
Q 24.171875 6.390625 31.78125 6.390625 
Q 39.453125 6.390625 43.28125 13.890625 
Q 47.125 21.390625 47.125 36.375 
Q 47.125 51.421875 43.28125 58.90625 
Q 39.453125 66.40625 31.78125 66.40625 
z
M 31.78125 74.21875 
Q 44.046875 74.21875 50.515625 64.515625 
Q 56.984375 54.828125 56.984375 36.375 
Q 56.984375 17.96875 50.515625 8.265625 
Q 44.046875 -1.421875 31.78125 -1.421875 
Q 19.53125 -1.421875 13.0625 8.265625 
Q 6.59375 17.96875 6.59375 36.375 
Q 6.59375 54.828125 13.0625 64.515625 
Q 19.53125 74.21875 31.78125 74.21875 
z
" id="DejaVuSans-48"/>
       <path d="M 19.1875 8.296875 
L 53.609375 8.296875 
L 53.609375 0 
L 7.328125 0 
L 7.328125 8.296875 
Q 12.9375 14.109375 22.625 23.890625 
Q 32.328125 33.6875 34.8125 36.53125 
Q 39.546875 41.84375 41.421875 45.53125 
Q 43.3125 49.21875 43.3125 52.78125 
Q 43.3125 58.59375 39.234375 62.25 
Q 35.15625 65.921875 28.609375 65.921875 
Q 23.96875 65.921875 18.8125 64.3125 
Q 13.671875 62.703125 7.8125 59.421875 
L 7.8125 69.390625 
Q 13.765625 71.78125 18.9375 73 
Q 24.125 74.21875 28.421875 74.21875 
Q 39.75 74.21875 46.484375 68.546875 
Q 53.21875 62.890625 53.21875 53.421875 
Q 53.21875 48.921875 51.53125 44.890625 
Q 49.859375 40.875 45.40625 35.40625 
Q 44.1875 33.984375 37.640625 27.21875 
Q 31.109375 20.453125 19.1875 8.296875 
z
" id="DejaVuSans-50"/>
      </defs>
      <g transform="translate(495.833673 525.078438)scale(0.1 -0.1)">
       <use xlink:href="#DejaVuSans-68"/>
       <use x="77.001953" xlink:href="#DejaVuSans-97"/>
       <use x="138.28125" xlink:href="#DejaVuSans-121"/>
       <use x="197.460938" xlink:href="#DejaVuSans-32"/>
       <use x="229.248047" xlink:href="#DejaVuSans-48"/>
       <use x="292.871094" xlink:href="#DejaVuSans-50"/>
      </g>
     </g>
    </g>
    <g id="xtick_2">
     <g id="line2d_2">
      <defs>
       <path d="M 0 0 
L 0 2 
" id="maa0dc42f4f" style="stroke:#000000;stroke-width:0.6;"/>
      </defs>
      <g>
       <use style="stroke:#000000;stroke-width:0.6;" x="126.657691" xlink:href="#maa0dc42f4f" y="498.98"/>
      </g>
     </g>
     <g id="text_2">
      <!-- 04 -->
      <defs>
       <path d="M 37.796875 64.3125 
L 12.890625 25.390625 
L 37.796875 25.390625 
z
M 35.203125 72.90625 
L 47.609375 72.90625 
L 47.609375 25.390625 
L 58.015625 25.390625 
L 58.015625 17.1875 
L 47.609375 17.1875 
L 47.609375 0 
L 37.796875 0 
L 37.796875 17.1875 
L 4.890625 17.1875 
L 4.890625 26.703125 
z
" id="DejaVuSans-52"/>
      </defs>
      <g transform="translate(120.295191 511.978438)scale(0.1 -0.1)">
       <use xlink:href="#DejaVuSans-48"/>
       <use x="63.623047" xlink:href="#DejaVuSans-52"/>
      </g>
     </g>
    </g>
    <g id="xtick_3">
     <g id="line2d_3">
      <g>
       <use style="stroke:#000000;stroke-width:0.6;" x="204.057887" xlink:href="#maa0dc42f4f" y="498.98"/>
      </g>
     </g>
     <g id="text_3">
      <!-- 08 -->
      <defs>
       <path d="M 31.78125 34.625 
Q 24.75 34.625 20.71875 30.859375 
Q 16.703125 27.09375 16.703125 20.515625 
Q 16.703125 13.921875 20.71875 10.15625 
Q 24.75 6.390625 31.78125 6.390625 
Q 38.8125 6.390625 42.859375 10.171875 
Q 46.921875 13.96875 46.921875 20.515625 
Q 46.921875 27.09375 42.890625 30.859375 
Q 38.875 34.625 31.78125 34.625 
z
M 21.921875 38.8125 
Q 15.578125 40.375 12.03125 44.71875 
Q 8.5 49.078125 8.5 55.328125 
Q 8.5 64.0625 14.71875 69.140625 
Q 20.953125 74.21875 31.78125 74.21875 
Q 42.671875 74.21875 48.875 69.140625 
Q 55.078125 64.0625 55.078125 55.328125 
Q 55.078125 49.078125 51.53125 44.71875 
Q 48 40.375 41.703125 38.8125 
Q 48.828125 37.15625 52.796875 32.3125 
Q 56.78125 27.484375 56.78125 20.515625 
Q 56.78125 9.90625 50.3125 4.234375 
Q 43.84375 -1.421875 31.78125 -1.421875 
Q 19.734375 -1.421875 13.25 4.234375 
Q 6.78125 9.90625 6.78125 20.515625 
Q 6.78125 27.484375 10.78125 32.3125 
Q 14.796875 37.15625 21.921875 38.8125 
z
M 18.3125 54.390625 
Q 18.3125 48.734375 21.84375 45.5625 
Q 25.390625 42.390625 31.78125 42.390625 
Q 38.140625 42.390625 41.71875 45.5625 
Q 45.3125 48.734375 45.3125 54.390625 
Q 45.3125 60.0625 41.71875 63.234375 
Q 38.140625 66.40625 31.78125 66.40625 
Q 25.390625 66.40625 21.84375 63.234375 
Q 18.3125 60.0625 18.3125 54.390625 
z
" id="DejaVuSans-56"/>
      </defs>
      <g transform="translate(197.695387 511.978438)scale(0.1 -0.1)">
       <use xlink:href="#DejaVuSans-48"/>
       <use x="63.623047" xlink:href="#DejaVuSans-56"/>
      </g>
     </g>
    </g>
    <g id="xtick_4">
     <g id="line2d_4">
      <g>
       <use style="stroke:#000000;stroke-width:0.6;" x="281.458083" xlink:href="#maa0dc42f4f" y="498.98"/>
      </g>
     </g>
     <g id="text_4">
      <!-- 12 -->
      <defs>
       <path d="M 12.40625 8.296875 
L 28.515625 8.296875 
L 28.515625 63.921875 
L 10.984375 60.40625 
L 10.984375 69.390625 
L 28.421875 72.90625 
L 38.28125 72.90625 
L 38.28125 8.296875 
L 54.390625 8.296875 
L 54.390625 0 
L 12.40625 0 
z
" id="DejaVuSans-49"/>
      </defs>
      <g transform="translate(275.095583 511.978438)scale(0.1 -0.1)">
       <use xlink:href="#DejaVuSans-49"/>
       <use x="63.623047" xlink:href="#DejaVuSans-50"/>
      </g>
     </g>
    </g>
    <g id="xtick_5">
     <g id="line2d_5">
      <g>
       <use style="stroke:#000000;stroke-width:0.6;" x="358.85828" xlink:href="#maa0dc42f4f" y="498.98"/>
      </g>
     </g>
     <g id="text_5">
      <!-- 16 -->
      <defs>
       <path d="M 33.015625 40.375 
Q 26.375 40.375 22.484375 35.828125 
Q 18.609375 31.296875 18.609375 23.390625 
Q 18.609375 15.53125 22.484375 10.953125 
Q 26.375 6.390625 33.015625 6.390625 
Q 39.65625 6.390625 43.53125 10.953125 
Q 47.40625 15.53125 47.40625 23.390625 
Q 47.40625 31.296875 43.53125 35.828125 
Q 39.65625 40.375 33.015625 40.375 
z
M 52.59375 71.296875 
L 52.59375 62.3125 
Q 48.875 64.0625 45.09375 64.984375 
Q 41.3125 65.921875 37.59375 65.921875 
Q 27.828125 65.921875 22.671875 59.328125 
Q 17.53125 52.734375 16.796875 39.40625 
Q 19.671875 43.65625 24.015625 45.921875 
Q 28.375 48.1875 33.59375 48.1875 
Q 44.578125 48.1875 50.953125 41.515625 
Q 57.328125 34.859375 57.328125 23.390625 
Q 57.328125 12.15625 50.6875 5.359375 
Q 44.046875 -1.421875 33.015625 -1.421875 
Q 20.359375 -1.421875 13.671875 8.265625 
Q 6.984375 17.96875 6.984375 36.375 
Q 6.984375 53.65625 15.1875 63.9375 
Q 23.390625 74.21875 37.203125 74.21875 
Q 40.921875 74.21875 44.703125 73.484375 
Q 48.484375 72.75 52.59375 71.296875 
z
" id="DejaVuSans-54"/>
      </defs>
      <g transform="translate(352.49578 511.978438)scale(0.1 -0.1)">
       <use xlink:href="#DejaVuSans-49"/>
       <use x="63.623047" xlink:href="#DejaVuSans-54"/>
      </g>
     </g>
    </g>
    <g id="xtick_6">
     <g id="line2d_6">
      <g>
       <use style="stroke:#000000;stroke-width:0.6;" x="436.258476" xlink:href="#maa0dc42f4f" y="498.98"/>
      </g>
     </g>
     <g id="text_6">
      <!-- 20 -->
      <g transform="translate(429.895976 511.978438)scale(0.1 -0.1)">
       <use xlink:href="#DejaVuSans-50"/>
       <use x="63.623047" xlink:href="#DejaVuSans-48"/>
      </g>
     </g>
    </g>
    <g id="text_7">
     <!-- time -->
     <defs>
      <path d="M 18.3125 70.21875 
L 18.3125 54.6875 
L 36.8125 54.6875 
L 36.8125 47.703125 
L 18.3125 47.703125 
L 18.3125 18.015625 
Q 18.3125 11.328125 20.140625 9.421875 
Q 21.96875 7.515625 27.59375 7.515625 
L 36.8125 7.515625 
L 36.8125 0 
L 27.59375 0 
Q 17.1875 0 13.234375 3.875 
Q 9.28125 7.765625 9.28125 18.015625 
L 9.28125 47.703125 
L 2.6875 47.703125 
L 2.6875 54.6875 
L 9.28125 54.6875 
L 9.28125 70.21875 
z
" id="DejaVuSans-116"/>
      <path d="M 9.421875 54.6875 
L 18.40625 54.6875 
L 18.40625 0 
L 9.421875 0 
z
M 9.421875 75.984375 
L 18.40625 75.984375 
L 18.40625 64.59375 
L 9.421875 64.59375 
z
" id="DejaVuSans-105"/>
      <path d="M 52 44.1875 
Q 55.375 50.25 60.0625 53.125 
Q 64.75 56 71.09375 56 
Q 79.640625 56 84.28125 50.015625 
Q 88.921875 44.046875 88.921875 33.015625 
L 88.921875 0 
L 79.890625 0 
L 79.890625 32.71875 
Q 79.890625 40.578125 77.09375 44.375 
Q 74.3125 48.1875 68.609375 48.1875 
Q 61.625 48.1875 57.5625 43.546875 
Q 53.515625 38.921875 53.515625 30.90625 
L 53.515625 0 
L 44.484375 0 
L 44.484375 32.71875 
Q 44.484375 40.625 41.703125 44.40625 
Q 38.921875 48.1875 33.109375 48.1875 
Q 26.21875 48.1875 22.15625 43.53125 
Q 18.109375 38.875 18.109375 30.90625 
L 18.109375 0 
L 9.078125 0 
L 9.078125 54.6875 
L 18.109375 54.6875 
L 18.109375 46.1875 
Q 21.1875 51.21875 25.484375 53.609375 
Q 29.78125 56 35.6875 56 
Q 41.65625 56 45.828125 52.96875 
Q 50 49.953125 52 44.1875 
z
" id="DejaVuSans-109"/>
      <path d="M 56.203125 29.59375 
L 56.203125 25.203125 
L 14.890625 25.203125 
Q 15.484375 15.921875 20.484375 11.0625 
Q 25.484375 6.203125 34.421875 6.203125 
Q 39.59375 6.203125 44.453125 7.46875 
Q 49.3125 8.734375 54.109375 11.28125 
L 54.109375 2.78125 
Q 49.265625 0.734375 44.1875 -0.34375 
Q 39.109375 -1.421875 33.890625 -1.421875 
Q 20.796875 -1.421875 13.15625 6.1875 
Q 5.515625 13.8125 5.515625 26.8125 
Q 5.515625 40.234375 12.765625 48.109375 
Q 20.015625 56 32.328125 56 
Q 43.359375 56 49.78125 48.890625 
Q 56.203125 41.796875 56.203125 29.59375 
z
M 47.21875 32.234375 
Q 47.125 39.59375 43.09375 43.984375 
Q 39.0625 48.390625 32.421875 48.390625 
Q 24.90625 48.390625 20.390625 44.140625 
Q 15.875 39.890625 15.1875 32.171875 
z
" id="DejaVuSans-101"/>
     </defs>
     <g transform="translate(271.774495 538.756563)scale(0.1 -0.1)">
      <use xlink:href="#DejaVuSans-116"/>
      <use x="39.208984" xlink:href="#DejaVuSans-105"/>
      <use x="66.992188" xlink:href="#DejaVuSans-109"/>
      <use x="164.404297" xlink:href="#DejaVuSans-101"/>
     </g>
    </g>
   </g>
   <g id="matplotlib.axis_2">
    <g id="ytick_1">
     <g id="line2d_7">
      <defs>
       <path d="M 0 0 
L -3.5 0 
" id="ma601fbc301" style="stroke:#000000;stroke-width:0.8;"/>
      </defs>
      <g>
       <use style="stroke:#000000;stroke-width:0.8;" x="50.87" xlink:href="#ma601fbc301" y="498.98"/>
      </g>
     </g>
     <g id="text_8">
      <!-- 0 -->
      <g transform="translate(37.5075 502.779219)scale(0.1 -0.1)">
       <use xlink:href="#DejaVuSans-48"/>
      </g>
     </g>
    </g>
    <g id="ytick_2">
     <g id="line2d_8">
      <g>
       <use style="stroke:#000000;stroke-width:0.8;" x="50.87" xlink:href="#ma601fbc301" y="420.296667"/>
      </g>
     </g>
     <g id="text_9">
      <!-- 100 -->
      <g transform="translate(24.7825 424.095885)scale(0.1 -0.1)">
       <use xlink:href="#DejaVuSans-49"/>
       <use x="63.623047" xlink:href="#DejaVuSans-48"/>
       <use x="127.246094" xlink:href="#DejaVuSans-48"/>
      </g>
     </g>
    </g>
    <g id="ytick_3">
     <g id="line2d_9">
      <g>
       <use style="stroke:#000000;stroke-width:0.8;" x="50.87" xlink:href="#ma601fbc301" y="341.613333"/>
      </g>
     </g>
     <g id="text_10">
      <!-- 200 -->
      <g transform="translate(24.7825 345.412552)scale(0.1 -0.1)">
       <use xlink:href="#DejaVuSans-50"/>
       <use x="63.623047" xlink:href="#DejaVuSans-48"/>
       <use x="127.246094" xlink:href="#DejaVuSans-48"/>
      </g>
     </g>
    </g>
    <g id="ytick_4">
     <g id="line2d_10">
      <g>
       <use style="stroke:#000000;stroke-width:0.8;" x="50.87" xlink:href="#ma601fbc301" y="262.93"/>
      </g>
     </g>
     <g id="text_11">
      <!-- 300 -->
      <defs>
       <path d="M 40.578125 39.3125 
Q 47.65625 37.796875 51.625 33 
Q 55.609375 28.21875 55.609375 21.1875 
Q 55.609375 10.40625 48.1875 4.484375 
Q 40.765625 -1.421875 27.09375 -1.421875 
Q 22.515625 -1.421875 17.65625 -0.515625 
Q 12.796875 0.390625 7.625 2.203125 
L 7.625 11.71875 
Q 11.71875 9.328125 16.59375 8.109375 
Q 21.484375 6.890625 26.8125 6.890625 
Q 36.078125 6.890625 40.9375 10.546875 
Q 45.796875 14.203125 45.796875 21.1875 
Q 45.796875 27.640625 41.28125 31.265625 
Q 36.765625 34.90625 28.71875 34.90625 
L 20.21875 34.90625 
L 20.21875 43.015625 
L 29.109375 43.015625 
Q 36.375 43.015625 40.234375 45.921875 
Q 44.09375 48.828125 44.09375 54.296875 
Q 44.09375 59.90625 40.109375 62.90625 
Q 36.140625 65.921875 28.71875 65.921875 
Q 24.65625 65.921875 20.015625 65.03125 
Q 15.375 64.15625 9.8125 62.3125 
L 9.8125 71.09375 
Q 15.4375 72.65625 20.34375 73.4375 
Q 25.25 74.21875 29.59375 74.21875 
Q 40.828125 74.21875 47.359375 69.109375 
Q 53.90625 64.015625 53.90625 55.328125 
Q 53.90625 49.265625 50.4375 45.09375 
Q 46.96875 40.921875 40.578125 39.3125 
z
" id="DejaVuSans-51"/>
      </defs>
      <g transform="translate(24.7825 266.729219)scale(0.1 -0.1)">
       <use xlink:href="#DejaVuSans-51"/>
       <use x="63.623047" xlink:href="#DejaVuSans-48"/>
       <use x="127.246094" xlink:href="#DejaVuSans-48"/>
      </g>
     </g>
    </g>
    <g id="ytick_5">
     <g id="line2d_11">
      <g>
       <use style="stroke:#000000;stroke-width:0.8;" x="50.87" xlink:href="#ma601fbc301" y="184.246667"/>
      </g>
     </g>
     <g id="text_12">
      <!-- 400 -->
      <g transform="translate(24.7825 188.045885)scale(0.1 -0.1)">
       <use xlink:href="#DejaVuSans-52"/>
       <use x="63.623047" xlink:href="#DejaVuSans-48"/>
       <use x="127.246094" xlink:href="#DejaVuSans-48"/>
      </g>
     </g>
    </g>
    <g id="ytick_6">
     <g id="line2d_12">
      <g>
       <use style="stroke:#000000;stroke-width:0.8;" x="50.87" xlink:href="#ma601fbc301" y="105.563333"/>
      </g>
     </g>
     <g id="text_13">
      <!-- 500 -->
      <defs>
       <path d="M 10.796875 72.90625 
L 49.515625 72.90625 
L 49.515625 64.59375 
L 19.828125 64.59375 
L 19.828125 46.734375 
Q 21.96875 47.46875 24.109375 47.828125 
Q 26.265625 48.1875 28.421875 48.1875 
Q 40.625 48.1875 47.75 41.5 
Q 54.890625 34.8125 54.890625 23.390625 
Q 54.890625 11.625 47.5625 5.09375 
Q 40.234375 -1.421875 26.90625 -1.421875 
Q 22.3125 -1.421875 17.546875 -0.640625 
Q 12.796875 0.140625 7.71875 1.703125 
L 7.71875 11.625 
Q 12.109375 9.234375 16.796875 8.0625 
Q 21.484375 6.890625 26.703125 6.890625 
Q 35.15625 6.890625 40.078125 11.328125 
Q 45.015625 15.765625 45.015625 23.390625 
Q 45.015625 31 40.078125 35.4375 
Q 35.15625 39.890625 26.703125 39.890625 
Q 22.75 39.890625 18.8125 39.015625 
Q 14.890625 38.140625 10.796875 36.28125 
z
" id="DejaVuSans-53"/>
      </defs>
      <g transform="translate(24.7825 109.362552)scale(0.1 -0.1)">
       <use xlink:href="#DejaVuSans-53"/>
       <use x="63.623047" xlink:href="#DejaVuSans-48"/>
       <use x="127.246094" xlink:href="#DejaVuSans-48"/>
      </g>
     </g>
    </g>
    <g id="ytick_7">
     <g id="line2d_13">
      <g>
       <use style="stroke:#000000;stroke-width:0.8;" x="50.87" xlink:href="#ma601fbc301" y="26.88"/>
      </g>
     </g>
     <g id="text_14">
      <!-- 600 -->
      <g transform="translate(24.7825 30.679219)scale(0.1 -0.1)">
       <use xlink:href="#DejaVuSans-54"/>
       <use x="63.623047" xlink:href="#DejaVuSans-48"/>
       <use x="127.246094" xlink:href="#DejaVuSans-48"/>
      </g>
     </g>
    </g>
    <g id="text_15">
     <!-- average latency -->
     <defs>
      <path d="M 2.984375 54.6875 
L 12.5 54.6875 
L 29.59375 8.796875 
L 46.6875 54.6875 
L 56.203125 54.6875 
L 35.6875 0 
L 23.484375 0 
z
" id="DejaVuSans-118"/>
      <path d="M 41.109375 46.296875 
Q 39.59375 47.171875 37.8125 47.578125 
Q 36.03125 48 33.890625 48 
Q 26.265625 48 22.1875 43.046875 
Q 18.109375 38.09375 18.109375 28.8125 
L 18.109375 0 
L 9.078125 0 
L 9.078125 54.6875 
L 18.109375 54.6875 
L 18.109375 46.1875 
Q 20.953125 51.171875 25.484375 53.578125 
Q 30.03125 56 36.53125 56 
Q 37.453125 56 38.578125 55.875 
Q 39.703125 55.765625 41.0625 55.515625 
z
" id="DejaVuSans-114"/>
      <path d="M 45.40625 27.984375 
Q 45.40625 37.75 41.375 43.109375 
Q 37.359375 48.484375 30.078125 48.484375 
Q 22.859375 48.484375 18.828125 43.109375 
Q 14.796875 37.75 14.796875 27.984375 
Q 14.796875 18.265625 18.828125 12.890625 
Q 22.859375 7.515625 30.078125 7.515625 
Q 37.359375 7.515625 41.375 12.890625 
Q 45.40625 18.265625 45.40625 27.984375 
z
M 54.390625 6.78125 
Q 54.390625 -7.171875 48.1875 -13.984375 
Q 42 -20.796875 29.203125 -20.796875 
Q 24.46875 -20.796875 20.265625 -20.09375 
Q 16.0625 -19.390625 12.109375 -17.921875 
L 12.109375 -9.1875 
Q 16.0625 -11.328125 19.921875 -12.34375 
Q 23.78125 -13.375 27.78125 -13.375 
Q 36.625 -13.375 41.015625 -8.765625 
Q 45.40625 -4.15625 45.40625 5.171875 
L 45.40625 9.625 
Q 42.625 4.78125 38.28125 2.390625 
Q 33.9375 0 27.875 0 
Q 17.828125 0 11.671875 7.65625 
Q 5.515625 15.328125 5.515625 27.984375 
Q 5.515625 40.671875 11.671875 48.328125 
Q 17.828125 56 27.875 56 
Q 33.9375 56 38.28125 53.609375 
Q 42.625 51.21875 45.40625 46.390625 
L 45.40625 54.6875 
L 54.390625 54.6875 
z
" id="DejaVuSans-103"/>
      <path d="M 9.421875 75.984375 
L 18.40625 75.984375 
L 18.40625 0 
L 9.421875 0 
z
" id="DejaVuSans-108"/>
      <path d="M 54.890625 33.015625 
L 54.890625 0 
L 45.90625 0 
L 45.90625 32.71875 
Q 45.90625 40.484375 42.875 44.328125 
Q 39.84375 48.1875 33.796875 48.1875 
Q 26.515625 48.1875 22.3125 43.546875 
Q 18.109375 38.921875 18.109375 30.90625 
L 18.109375 0 
L 9.078125 0 
L 9.078125 54.6875 
L 18.109375 54.6875 
L 18.109375 46.1875 
Q 21.34375 51.125 25.703125 53.5625 
Q 30.078125 56 35.796875 56 
Q 45.21875 56 50.046875 50.171875 
Q 54.890625 44.34375 54.890625 33.015625 
z
" id="DejaVuSans-110"/>
      <path d="M 48.78125 52.59375 
L 48.78125 44.1875 
Q 44.96875 46.296875 41.140625 47.34375 
Q 37.3125 48.390625 33.40625 48.390625 
Q 24.65625 48.390625 19.8125 42.84375 
Q 14.984375 37.3125 14.984375 27.296875 
Q 14.984375 17.28125 19.8125 11.734375 
Q 24.65625 6.203125 33.40625 6.203125 
Q 37.3125 6.203125 41.140625 7.25 
Q 44.96875 8.296875 48.78125 10.40625 
L 48.78125 2.09375 
Q 45.015625 0.34375 40.984375 -0.53125 
Q 36.96875 -1.421875 32.421875 -1.421875 
Q 20.0625 -1.421875 12.78125 6.34375 
Q 5.515625 14.109375 5.515625 27.296875 
Q 5.515625 40.671875 12.859375 48.328125 
Q 20.21875 56 33.015625 56 
Q 37.15625 56 41.109375 55.140625 
Q 45.0625 54.296875 48.78125 52.59375 
z
" id="DejaVuSans-99"/>
     </defs>
     <g transform="translate(18.702812 303.356563)rotate(-90)scale(0.1 -0.1)">
      <use xlink:href="#DejaVuSans-97"/>
      <use x="61.279297" xlink:href="#DejaVuSans-118"/>
      <use x="120.458984" xlink:href="#DejaVuSans-101"/>
      <use x="181.982422" xlink:href="#DejaVuSans-114"/>
      <use x="223.095703" xlink:href="#DejaVuSans-97"/>
      <use x="284.375" xlink:href="#DejaVuSans-103"/>
      <use x="347.851562" xlink:href="#DejaVuSans-101"/>
      <use x="409.375" xlink:href="#DejaVuSans-32"/>
      <use x="441.162109" xlink:href="#DejaVuSans-108"/>
      <use x="468.945312" xlink:href="#DejaVuSans-97"/>
      <use x="530.224609" xlink:href="#DejaVuSans-116"/>
      <use x="569.433594" xlink:href="#DejaVuSans-101"/>
      <use x="630.957031" xlink:href="#DejaVuSans-110"/>
      <use x="694.335938" xlink:href="#DejaVuSans-99"/>
      <use x="749.316406" xlink:href="#DejaVuSans-121"/>
     </g>
    </g>
   </g>
   <g id="line2d_14">
    <path clip-path="url(#pacc0925b39)" d="M 50.87 312.365453 
L 52.482514 291.078274 
L 54.095029 323.75774 
L 57.320068 233.018042 
L 58.932584 238.877367 
L 60.545102 313.423951 
L 62.157618 297.183898 
L 63.770135 278.17703 
L 65.382652 255.474145 
L 66.995168 304.860692 
L 68.607682 252.416489 
L 70.220203 313.548129 
L 71.832718 295.46489 
L 73.445236 263.134764 
L 75.057752 302.956738 
L 76.670277 272.221643 
L 78.282794 302.860065 
L 79.895311 283.356777 
L 81.507829 305.679606 
L 83.120346 330.914229 
L 84.732877 261.067869 
L 86.345396 272.890293 
L 87.957911 305.547371 
L 89.57043 304.476762 
L 91.182955 293.237399 
L 92.795471 225.791643 
L 94.40799 309.699611 
L 96.020505 274.61816 
L 97.633025 286.369296 
L 99.245541 297.06309 
L 100.858058 275.944628 
L 102.470577 312.342534 
L 104.083097 332.922717 
L 105.695619 230.63936 
L 107.308133 320.915848 
L 108.920651 325.381052 
L 110.533166 275.89194 
L 112.145685 248.198674 
L 113.758199 269.30998 
L 115.370715 230.071888 
L 116.983233 276.770969 
L 118.595751 308.707503 
L 120.20827 311.720918 
L 121.820787 253.207718 
L 125.04582 320.543537 
L 126.658335 310.420555 
L 128.270854 308.403188 
L 129.88337 255.271497 
L 131.495885 296.69185 
L 133.108401 276.668514 
L 134.720918 306.605722 
L 136.333436 323.224574 
L 137.945955 301.589327 
L 139.558473 264.191616 
L 141.170994 298.617666 
L 142.783512 250.754968 
L 144.39603 322.563444 
L 147.621062 291.726771 
L 149.233578 312.225211 
L 150.846093 322.848102 
L 152.458652 298.687609 
L 154.071174 252.002895 
L 155.683698 309.831114 
L 157.296221 318.742847 
L 158.908736 316.426508 
L 160.521255 311.757285 
L 162.133775 290.981239 
L 163.746293 292.15369 
L 165.358809 329.291572 
L 166.971326 305.39941 
L 168.583843 311.475329 
L 170.196362 322.969989 
L 171.808882 319.570035 
L 173.421403 270.053728 
L 175.033922 321.803286 
L 176.646441 262.976 
L 178.258958 302.43405 
L 179.871478 271.151287 
L 181.483995 301.442181 
L 183.096514 300.338119 
L 184.709035 300.493535 
L 186.321555 256.470684 
L 187.934074 267.957891 
L 189.546597 308.883183 
L 191.159118 313.058747 
L 192.771639 306.000936 
L 194.384157 306.188146 
L 195.996676 287.868521 
L 197.609198 271.966373 
L 199.221713 284.985623 
L 200.834228 279.36574 
L 202.446749 291.394639 
L 204.059267 277.203297 
L 205.671785 312.306832 
L 207.284304 304.540888 
L 208.896824 296.05368 
L 210.509345 311.889084 
L 212.121862 299.505898 
L 213.734382 293.932321 
L 215.346898 252.000702 
L 216.959417 302.254207 
L 218.571932 212.414935 
L 220.184445 302.74065 
L 221.796964 265.570316 
L 223.409484 279.992019 
L 225.022002 304.425459 
L 226.634524 303.083694 
L 228.247051 260.700437 
L 229.85957 311.452001 
L 231.472089 232.442316 
L 233.084608 289.377817 
L 234.697124 289.339188 
L 236.309638 279.926099 
L 237.922159 253.97881 
L 239.534676 278.855632 
L 242.759711 245.786607 
L 244.372233 269.49404 
L 245.984755 231.305418 
L 247.597273 264.195872 
L 249.209816 277.245064 
L 250.822731 293.077732 
L 252.435252 237.840854 
L 255.660337 295.258382 
L 257.27286 289.331364 
L 258.885386 297.793189 
L 260.497911 285.092193 
L 262.110438 265.344271 
L 263.722958 299.316496 
L 265.335478 231.138214 
L 266.948003 299.523245 
L 268.560533 241.456417 
L 270.173056 266.96803 
L 271.785574 308.810334 
L 273.398095 292.481685 
L 275.010614 299.898997 
L 276.623173 274.712796 
L 278.235689 313.832905 
L 279.848208 277.594266 
L 281.460726 312.239285 
L 283.073245 268.020468 
L 284.685763 266.424682 
L 286.298282 289.579417 
L 287.9108 283.823177 
L 289.523319 257.265049 
L 291.135839 258.880004 
L 292.748357 295.90369 
L 294.360876 327.558739 
L 295.973395 274.237927 
L 297.585912 334.390872 
L 299.19843 216.436112 
L 300.810945 268.564089 
L 302.423461 299.693956 
L 304.03598 307.950519 
L 305.648499 284.612876 
L 307.261018 314.226114 
L 308.873535 267.4791 
L 310.486053 300.408903 
L 312.098575 293.242247 
L 313.711091 324.414438 
L 315.323607 290.620011 
L 316.936122 306.260582 
L 318.548641 287.41111 
L 320.16116 273.728332 
L 321.773675 226.312689 
L 323.386191 287.528588 
L 324.998707 235.850531 
L 326.611223 290.024718 
L 328.223743 292.070535 
L 329.836261 319.853909 
L 331.448777 282.453639 
L 333.061318 298.742643 
L 334.673848 298.891385 
L 336.286369 263.277876 
L 337.898907 290.749351 
L 339.511429 294.967875 
L 341.123947 322.345758 
L 342.736464 293.72752 
L 344.348981 318.373768 
L 345.96151 277.581494 
L 347.574035 301.339457 
L 349.186553 317.770087 
L 350.799072 312.006242 
L 352.411591 56.244294 
L 354.024111 268.440137 
L 355.636632 251.967343 
L 357.24916 264.526559 
L 358.861817 269.293754 
L 360.474472 271.373599 
L 362.086995 251.387603 
L 363.699511 257.084632 
L 365.312031 259.490585 
L 366.924548 262.215589 
L 368.537069 294.7539 
L 370.149617 283.41698 
L 371.762188 266.844569 
L 373.374706 263.838264 
L 374.987227 267.340081 
L 376.59975 277.199425 
L 378.212272 267.621573 
L 379.824792 270.864284 
L 381.437327 279.11123 
L 383.050135 278.219338 
L 384.662656 271.679035 
L 386.275185 263.083264 
L 387.887709 266.313273 
L 389.500231 275.102943 
L 391.112754 343.886677 
L 392.72527 293.025658 
L 395.950304 326.58569 
L 397.562825 332.162724 
L 399.175344 300.983326 
L 400.787882 287.252765 
L 402.40041 302.363793 
L 404.012928 296.09254 
L 405.625446 295.861801 
L 407.237967 285.785411 
L 408.85051 276.646682 
L 410.463028 314.75909 
L 412.075546 296.925947 
L 413.68806 298.526888 
L 415.300579 308.077497 
L 416.913098 281.965449 
L 418.525612 303.204056 
L 420.138131 286.012432 
L 421.750647 215.654832 
L 423.363164 246.523836 
L 424.975679 302.993616 
L 426.588194 295.608963 
L 428.20071 271.400902 
L 429.813274 305.927149 
L 431.425847 314.690069 
L 433.038364 277.961765 
L 434.650881 317.38374 
L 436.2634 300.281835 
L 437.875918 259.376581 
L 439.488433 295.278912 
L 441.10095 279.846775 
L 442.713475 320.578541 
L 444.325993 304.861818 
L 445.938511 311.992874 
L 447.551027 312.537685 
L 449.163675 229.841385 
L 450.776193 290.40998 
L 452.388711 272.764081 
L 454.001232 318.277518 
L 455.613753 317.951196 
L 457.226272 246.205526 
L 458.83879 285.771723 
L 460.451308 314.280588 
L 462.063826 252.938299 
L 463.676343 321.66473 
L 465.288858 243.411244 
L 466.901375 293.515028 
L 468.513893 301.853231 
L 470.12641 322.024674 
L 471.738924 284.491262 
L 473.35144 271.373585 
L 474.96396 296.817581 
L 476.576482 293.275424 
L 478.189003 296.67197 
L 479.801525 207.20489 
L 481.414044 255.286182 
L 483.026565 318.306692 
L 484.639081 281.385222 
L 486.251597 277.490402 
L 487.864121 316.82669 
L 489.476641 310.865558 
L 491.089159 290.908272 
L 492.701677 309.857459 
L 494.314196 292.489841 
L 495.926713 273.51431 
L 497.53923 308.571735 
L 499.151748 272.219189 
L 500.764268 278.16243 
L 502.376786 193.397445 
L 503.989325 300.027731 
L 505.601839 288.505059 
L 507.214355 272.617406 
L 508.826875 324.759594 
L 510.43939 273.308322 
L 512.051912 291.836454 
L 513.664428 284.667954 
L 515.276942 259.493489 
L 516.889461 240.592774 
L 518.501977 316.448066 
L 520.114496 277.250956 
L 521.727012 244.041071 
L 523.339529 267.939357 
L 524.952047 288.062538 
L 526.564564 275.86365 
L 528.177079 311.269568 
L 529.789597 314.918228 
L 531.402116 319.503806 
L 533.014634 311.456928 
L 534.62715 321.646251 
L 536.239671 321.008668 
L 537.852194 325.896111 
L 539.464711 304.203296 
L 541.077231 312.539653 
L 542.689751 277.519565 
L 544.302266 294.975155 
L 545.914781 295.325623 
L 547.527297 238.994149 
L 549.139815 321.597428 
L 550.752333 311.025692 
L 552.364849 299.224932 
L 553.977365 290.401894 
L 555.589885 315.534712 
L 557.202406 289.357818 
L 558.814968 284.969096 
L 560.427487 330.249603 
L 562.040007 302.998269 
L 563.652525 271.502892 
L 565.265044 292.439714 
L 566.877559 292.724558 
L 568.490081 275.366488 
L 570.102599 309.088873 
L 571.715114 322.44348 
L 573.327631 292.247755 
L 574.940149 298.165603 
L 576.552666 275.720852 
L 578.165184 298.567404 
L 579.777699 256.010051 
L 581.390216 276.724266 
L 583.002735 293.72418 
L 584.615251 272.094589 
L 586.227764 320.585751 
L 587.840286 311.985487 
L 589.452803 268.45664 
L 591.06532 311.841092 
L 592.677836 310.901703 
L 594.290353 297.147038 
L 595.902868 286.720887 
L 597.515385 320.08512 
L 599.127907 304.773497 
L 600.740424 291.73954 
L 602.352943 304.89184 
L 603.965464 271.77137 
L 605.577981 317.392526 
L 607.190497 284.473106 
L 608.803016 256.025385 
L 610.415533 234.631768 
L 612.02805 316.991783 
L 613.64057 272.05154 
L 615.253092 290.155216 
L 616.865608 324.335084 
L 618.478132 323.21299 
L 620.090655 259.767776 
L 621.703172 300.487895 
L 623.315689 296.130478 
L 624.92821 303.902621 
L 626.540725 276.901825 
L 628.153249 318.388361 
L 629.765793 263.365433 
L 631.378318 298.666339 
L 632.990839 321.854531 
L 634.603356 307.499613 
L 636.215876 249.757028 
L 637.828395 228.263995 
L 639.440917 310.014265 
L 641.053435 309.719066 
L 642.665951 302.300094 
L 644.278466 179.777972 
L 645.890983 316.651582 
L 647.503502 218.706873 
L 649.116017 295.240356 
L 650.728534 299.375652 
L 652.341052 314.220257 
L 653.953566 309.884599 
L 655.566086 253.592189 
L 657.17861 307.653434 
L 658.79113 310.509184 
L 660.40365 314.871669 
L 662.016169 268.988028 
L 663.628693 290.077304 
L 665.241213 280.34154 
L 666.853731 306.318044 
L 668.466249 256.89109 
L 670.078765 270.289895 
L 671.691285 309.684379 
L 673.303804 299.658359 
L 674.916318 231.204463 
L 678.141531 283.317845 
L 679.75405 296.873744 
L 681.366568 274.870653 
L 682.979087 327.259451 
L 684.591605 320.876789 
L 686.204123 273.643624 
L 687.816637 261.507438 
L 689.429155 290.723991 
L 691.041672 334.013922 
L 692.65419 285.768821 
L 694.266707 292.415493 
L 695.879229 331.966563 
L 697.491748 258.333842 
L 699.104265 259.625832 
L 700.716782 182.169491 
L 702.329302 306.909605 
L 703.94182 280.135794 
L 705.554371 261.655079 
L 707.167009 230.66589 
L 708.780116 282.872175 
L 710.392639 243.234078 
L 712.005161 242.958254 
L 713.617681 196.25594 
L 715.230197 274.631185 
L 716.842719 246.680934 
L 718.45524 300.979115 
L 720.067759 292.443937 
L 721.68043 282.972896 
L 723.292958 278.326762 
L 724.905479 215.477921 
L 726.517997 289.712342 
L 728.130518 297.956019 
L 729.743035 272.842353 
L 731.355553 276.158547 
L 732.968074 273.517162 
L 734.58059 263.045953 
L 736.193115 303.339815 
L 737.805634 278.805928 
L 739.41815 278.489083 
L 741.030684 287.260985 
L 742.643209 294.739922 
L 744.255766 294.160756 
L 745.868287 296.943842 
L 747.480805 254.967834 
L 749.093329 290.140495 
L 750.70585 298.11683 
L 752.318371 131.150182 
L 753.930888 300.49581 
L 755.543469 274.905772 
L 757.156004 300.610275 
L 758.768522 305.06555 
L 760.381041 334.397245 
L 761.993561 269.606598 
L 763.606077 322.424858 
L 765.218595 275.173322 
L 766.831249 233.457893 
L 768.443779 320.396793 
L 770.056296 320.240161 
L 771.668814 272.483006 
L 773.281334 308.554488 
L 774.894031 319.361357 
L 776.506556 291.650855 
L 778.119076 308.600489 
L 779.7316 274.878868 
L 781.344121 250.852692 
L 782.956642 326.569541 
L 784.569162 308.509545 
L 786.181681 308.483158 
L 787.794201 298.253901 
L 789.406732 296.493243 
L 791.019265 280.891588 
L 792.631801 271.269868 
L 794.244318 319.692102 
L 795.856836 292.796443 
L 797.469354 308.502448 
L 799.081871 287.729421 
L 800.694391 274.111817 
L 802.306913 279.997451 
L 803.919434 309.830312 
L 805.531955 303.10442 
L 807.144473 308.517911 
L 808.756997 260.689046 
L 810.369526 297.594341 
L 811.982068 292.422682 
L 813.59459 322.04754 
L 815.207134 306.83947 
L 816.819661 79.399584 
L 818.432184 270.960994 
L 820.044703 266.501238 
L 821.657225 261.602058 
L 823.269835 257.148798 
L 824.882357 271.638432 
L 826.494882 275.971821 
L 828.107413 247.732479 
L 829.719945 255.190399 
L 831.333186 280.481006 
L 832.945708 255.444512 
L 834.558228 257.173171 
L 836.170751 253.540035 
L 837.783272 206.338963 
L 839.395909 230.479951 
L 841.008434 260.138359 
L 842.620956 284.02302 
L 844.233487 271.804317 
L 845.846289 263.71056 
L 847.458814 272.892317 
L 849.071336 289.677242 
L 850.683861 280.396218 
L 852.296382 269.286949 
L 853.908912 271.380738 
L 855.521438 312.913553 
L 857.133962 308.508726 
L 858.746482 299.921121 
L 860.359014 303.904088 
L 861.971539 303.711331 
L 863.584063 322.080082 
L 865.196588 305.620123 
L 866.809106 213.711769 
L 868.421622 314.672983 
L 870.034155 273.651047 
L 871.646675 261.808401 
L 873.259191 298.409881 
L 874.871711 243.880541 
L 876.484227 297.147225 
L 878.096745 312.458075 
L 879.709259 295.936496 
L 881.321781 281.756344 
L 882.934301 285.778165 
L 884.546863 257.603236 
L 886.159382 291.640336 
L 887.771898 300.890797 
L 889.384415 308.579251 
L 890.996931 320.946792 
L 892.609448 255.481218 
L 894.222039 312.497222 
L 895.834569 281.467408 
L 897.447087 306.8294 
L 899.059607 224.02636 
L 900.672126 335.976294 
L 902.284644 312.347139 
L 903.897162 331.257788 
L 905.509685 302.471688 
L 907.122225 230.982064 
L 908.734743 316.837686 
L 910.34726 250.553318 
L 911.959776 297.615148 
L 913.572295 281.376725 
L 915.184814 269.391412 
L 916.79733 310.134681 
L 918.409846 317.681955 
L 920.022371 323.505885 
L 921.634891 300.931941 
L 923.247414 257.966857 
L 924.85993 317.288571 
L 926.472451 319.480628 
L 928.084969 208.240386 
L 929.697483 313.311132 
L 931.31018 305.34064 
L 932.922749 322.040807 
L 934.53527 302.797578 
L 936.147791 287.307371 
L 937.760309 286.852975 
L 939.372826 283.129079 
L 940.985347 301.201303 
L 942.597867 314.784437 
L 944.210406 307.634542 
L 945.822926 317.037486 
L 947.435444 317.140925 
L 949.047964 293.484692 
L 950.660481 190.27391 
L 952.273009 311.284626 
L 953.885528 320.241152 
L 955.498044 311.56251 
L 957.110563 270.035979 
L 960.335603 328.745743 
L 961.94812 265.21482 
L 963.560636 293.923552 
L 965.173153 291.067752 
L 966.785671 300.120045 
L 968.398192 305.217324 
L 970.010707 324.453988 
L 971.623222 313.026509 
L 973.23574 304.897459 
L 974.848256 299.290274 
L 976.460772 297.443197 
L 978.073289 287.83883 
L 979.685809 217.444815 
L 981.298324 315.920634 
L 982.910844 320.101806 
L 984.523363 307.820837 
L 986.135879 273.456057 
L 987.748399 309.049708 
L 989.360919 292.285704 
L 990.973434 331.217145 
L 992.585951 332.216876 
L 994.198472 303.626436 
L 995.810997 292.36148 
L 997.423514 321.375966 
L 999.036036 296.578758 
L 1000.648556 294.278931 
L 1002.261071 283.100334 
L 1003.873585 325.527395 
L 1005.486101 292.155187 
L 1007.098616 285.184564 
L 1008.711136 303.34819 
L 1010.323655 287.775155 
L 1011.936175 279.223424 
L 1013.548786 232.774078 
L 1015.161318 263.975201 
L 1016.773835 326.188283 
L 1018.386354 300.173939 
L 1019.998875 280.748158 
L 1021.611393 285.421265 
L 1024.83643 328.44715 
L 1026.448945 281.400786 
L 1028.061462 274.940863 
L 1029.67398 235.918207 
L 1031.286496 316.935589 
L 1032.899015 261.336814 
L 1036.12405 310.656003 
L 1037.736569 271.857816 
L 1039.349091 299.527694 
L 1040.961608 300.616548 
L 1042.574126 317.458165 
L 1044.186648 320.175991 
L 1045.799169 244.004716 
L 1047.411688 297.21316 
L 1049.02421 266.723354 
L 1050.636729 307.132118 
L 1052.249258 323.628739 
L 1053.861811 306.765497 
L 1055.47433 313.114403 
L 1057.086847 309.57568 
L 1058.69939 291.748959 
L 1060.311925 261.855549 
L 1061.924439 251.760232 
L 1063.536966 298.70422 
L 1065.149485 331.352071 
L 1066.762 295.132043 
L 1068.374521 291.693867 
L 1069.98704 303.984497 
L 1071.599561 301.798336 
L 1073.212081 308.362517 
L 1074.824599 320.215555 
L 1076.437122 296.64787 
L 1078.049644 301.174862 
L 1079.662164 304.517872 
L 1081 248.919542 
L 1081 248.919542 
" style="fill:none;stroke:#008000;stroke-linecap:square;stroke-width:1.5;"/>
   </g>
   <g id="patch_3">
    <path d="M 50.87 498.98 
L 50.87 26.88 
" style="fill:none;stroke:#000000;stroke-linecap:square;stroke-linejoin:miter;stroke-width:0.8;"/>
   </g>
   <g id="patch_4">
    <path d="M 515.271178 498.98 
L 515.271178 26.88 
" style="fill:none;stroke:#000000;stroke-linecap:square;stroke-linejoin:miter;stroke-width:0.8;"/>
   </g>
   <g id="patch_5">
    <path d="M 50.87 498.98 
L 515.271178 498.98 
" style="fill:none;stroke:#000000;stroke-linecap:square;stroke-linejoin:miter;stroke-width:0.8;"/>
   </g>
   <g id="patch_6">
    <path d="M 50.87 26.88 
L 515.271178 26.88 
" style="fill:none;stroke:#000000;stroke-linecap:square;stroke-linejoin:miter;stroke-width:0.8;"/>
   </g>
   <g id="text_16">
    <!-- average latency for hpa over time -->
    <defs>
     <path d="M 37.109375 75.984375 
L 37.109375 68.5 
L 28.515625 68.5 
Q 23.6875 68.5 21.796875 66.546875 
Q 19.921875 64.59375 19.921875 59.515625 
L 19.921875 54.6875 
L 34.71875 54.6875 
L 34.71875 47.703125 
L 19.921875 47.703125 
L 19.921875 0 
L 10.890625 0 
L 10.890625 47.703125 
L 2.296875 47.703125 
L 2.296875 54.6875 
L 10.890625 54.6875 
L 10.890625 58.5 
Q 10.890625 67.625 15.140625 71.796875 
Q 19.390625 75.984375 28.609375 75.984375 
z
" id="DejaVuSans-102"/>
     <path d="M 30.609375 48.390625 
Q 23.390625 48.390625 19.1875 42.75 
Q 14.984375 37.109375 14.984375 27.296875 
Q 14.984375 17.484375 19.15625 11.84375 
Q 23.34375 6.203125 30.609375 6.203125 
Q 37.796875 6.203125 41.984375 11.859375 
Q 46.1875 17.53125 46.1875 27.296875 
Q 46.1875 37.015625 41.984375 42.703125 
Q 37.796875 48.390625 30.609375 48.390625 
z
M 30.609375 56 
Q 42.328125 56 49.015625 48.375 
Q 55.71875 40.765625 55.71875 27.296875 
Q 55.71875 13.875 49.015625 6.21875 
Q 42.328125 -1.421875 30.609375 -1.421875 
Q 18.84375 -1.421875 12.171875 6.21875 
Q 5.515625 13.875 5.515625 27.296875 
Q 5.515625 40.765625 12.171875 48.375 
Q 18.84375 56 30.609375 56 
z
" id="DejaVuSans-111"/>
     <path d="M 54.890625 33.015625 
L 54.890625 0 
L 45.90625 0 
L 45.90625 32.71875 
Q 45.90625 40.484375 42.875 44.328125 
Q 39.84375 48.1875 33.796875 48.1875 
Q 26.515625 48.1875 22.3125 43.546875 
Q 18.109375 38.921875 18.109375 30.90625 
L 18.109375 0 
L 9.078125 0 
L 9.078125 75.984375 
L 18.109375 75.984375 
L 18.109375 46.1875 
Q 21.34375 51.125 25.703125 53.5625 
Q 30.078125 56 35.796875 56 
Q 45.21875 56 50.046875 50.171875 
Q 54.890625 44.34375 54.890625 33.015625 
z
" id="DejaVuSans-104"/>
     <path d="M 18.109375 8.203125 
L 18.109375 -20.796875 
L 9.078125 -20.796875 
L 9.078125 54.6875 
L 18.109375 54.6875 
L 18.109375 46.390625 
Q 20.953125 51.265625 25.265625 53.625 
Q 29.59375 56 35.59375 56 
Q 45.5625 56 51.78125 48.09375 
Q 58.015625 40.1875 58.015625 27.296875 
Q 58.015625 14.40625 51.78125 6.484375 
Q 45.5625 -1.421875 35.59375 -1.421875 
Q 29.59375 -1.421875 25.265625 0.953125 
Q 20.953125 3.328125 18.109375 8.203125 
z
M 48.6875 27.296875 
Q 48.6875 37.203125 44.609375 42.84375 
Q 40.53125 48.484375 33.40625 48.484375 
Q 26.265625 48.484375 22.1875 42.84375 
Q 18.109375 37.203125 18.109375 27.296875 
Q 18.109375 17.390625 22.1875 11.75 
Q 26.265625 6.109375 33.40625 6.109375 
Q 40.53125 6.109375 44.609375 11.75 
Q 48.6875 17.390625 48.6875 27.296875 
z
" id="DejaVuSans-112"/>
    </defs>
    <g transform="translate(180.456527 20.88)scale(0.12 -0.12)">
     <use xlink:href="#DejaVuSans-97"/>
     <use x="61.279297" xlink:href="#DejaVuSans-118"/>
     <use x="120.458984" xlink:href="#DejaVuSans-101"/>
     <use x="181.982422" xlink:href="#DejaVuSans-114"/>
     <use x="223.095703" xlink:href="#DejaVuSans-97"/>
     <use x="284.375" xlink:href="#DejaVuSans-103"/>
     <use x="347.851562" xlink:href="#DejaVuSans-101"/>
     <use x="409.375" xlink:href="#DejaVuSans-32"/>
     <use x="441.162109" xlink:href="#DejaVuSans-108"/>
     <use x="468.945312" xlink:href="#DejaVuSans-97"/>
     <use x="530.224609" xlink:href="#DejaVuSans-116"/>
     <use x="569.433594" xlink:href="#DejaVuSans-101"/>
     <use x="630.957031" xlink:href="#DejaVuSans-110"/>
     <use x="694.335938" xlink:href="#DejaVuSans-99"/>
     <use x="749.316406" xlink:href="#DejaVuSans-121"/>
     <use x="808.496094" xlink:href="#DejaVuSans-32"/>
     <use x="840.283203" xlink:href="#DejaVuSans-102"/>
     <use x="875.488281" xlink:href="#DejaVuSans-111"/>
     <use x="936.669922" xlink:href="#DejaVuSans-114"/>
     <use x="977.783203" xlink:href="#DejaVuSans-32"/>
     <use x="1009.570312" xlink:href="#DejaVuSans-104"/>
     <use x="1072.949219" xlink:href="#DejaVuSans-112"/>
     <use x="1136.425781" xlink:href="#DejaVuSans-97"/>
     <use x="1197.705078" xlink:href="#DejaVuSans-32"/>
     <use x="1229.492188" xlink:href="#DejaVuSans-111"/>
     <use x="1290.673828" xlink:href="#DejaVuSans-118"/>
     <use x="1349.853516" xlink:href="#DejaVuSans-101"/>
     <use x="1411.376953" xlink:href="#DejaVuSans-114"/>
     <use x="1452.490234" xlink:href="#DejaVuSans-32"/>
     <use x="1484.277344" xlink:href="#DejaVuSans-116"/>
     <use x="1523.486328" xlink:href="#DejaVuSans-105"/>
     <use x="1551.269531" xlink:href="#DejaVuSans-109"/>
     <use x="1648.681641" xlink:href="#DejaVuSans-101"/>
    </g>
   </g>
   <g id="legend_1">
    <g id="patch_7">
     <path d="M 57.87 49.558125 
L 192.715312 49.558125 
Q 194.715312 49.558125 194.715312 47.558125 
L 194.715312 33.88 
Q 194.715312 31.88 192.715312 31.88 
L 57.87 31.88 
Q 55.87 31.88 55.87 33.88 
L 55.87 47.558125 
Q 55.87 49.558125 57.87 49.558125 
z
" style="fill:#ffffff;opacity:0.8;stroke:#cccccc;stroke-linejoin:miter;"/>
    </g>
    <g id="line2d_15">
     <path d="M 59.87 39.978437 
L 79.87 39.978437 
" style="fill:none;stroke:#008000;stroke-linecap:square;stroke-width:1.5;"/>
    </g>
    <g id="line2d_16"/>
    <g id="text_17">
     <!-- hpa average latency -->
     <g transform="translate(87.87 43.478437)scale(0.1 -0.1)">
      <use xlink:href="#DejaVuSans-104"/>
      <use x="63.378906" xlink:href="#DejaVuSans-112"/>
      <use x="126.855469" xlink:href="#DejaVuSans-97"/>
      <use x="188.134766" xlink:href="#DejaVuSans-32"/>
      <use x="219.921875" xlink:href="#DejaVuSans-97"/>
      <use x="281.201172" xlink:href="#DejaVuSans-118"/>
      <use x="340.380859" xlink:href="#DejaVuSans-101"/>
      <use x="401.904297" xlink:href="#DejaVuSans-114"/>
      <use x="443.017578" xlink:href="#DejaVuSans-97"/>
      <use x="504.296875" xlink:href="#DejaVuSans-103"/>
      <use x="567.773438" xlink:href="#DejaVuSans-101"/>
      <use x="629.296875" xlink:href="#DejaVuSans-32"/>
      <use x="661.083984" xlink:href="#DejaVuSans-108"/>
      <use x="688.867188" xlink:href="#DejaVuSans-97"/>
      <use x="750.146484" xlink:href="#DejaVuSans-116"/>
      <use x="789.355469" xlink:href="#DejaVuSans-101"/>
      <use x="850.878906" xlink:href="#DejaVuSans-110"/>
      <use x="914.257812" xlink:href="#DejaVuSans-99"/>
      <use x="969.238281" xlink:href="#DejaVuSans-121"/>
     </g>
    </g>
   </g>
  </g>
  <g id="axes_2">
   <g id="patch_8">
    <path d="M 587.045 498.98 
L 1051.446178 498.98 
L 1051.446178 26.88 
L 587.045 26.88 
z
" style="fill:#ffffff;"/>
   </g>
   <g id="matplotlib.axis_3">
    <g id="xtick_7">
     <g id="line2d_17">
      <g>
       <use style="stroke:#000000;stroke-width:0.8;" x="1049.833669" xlink:href="#mafb8cb4594" y="498.98"/>
      </g>
     </g>
     <g id="text_18">
      <!-- Day 02 -->
      <g transform="translate(1032.008669 525.078438)scale(0.1 -0.1)">
       <use xlink:href="#DejaVuSans-68"/>
       <use x="77.001953" xlink:href="#DejaVuSans-97"/>
       <use x="138.28125" xlink:href="#DejaVuSans-121"/>
       <use x="197.460938" xlink:href="#DejaVuSans-32"/>
       <use x="229.248047" xlink:href="#DejaVuSans-48"/>
       <use x="292.871094" xlink:href="#DejaVuSans-50"/>
      </g>
     </g>
    </g>
    <g id="xtick_8">
     <g id="line2d_18">
      <g>
       <use style="stroke:#000000;stroke-width:0.6;" x="662.832687" xlink:href="#maa0dc42f4f" y="498.98"/>
      </g>
     </g>
     <g id="text_19">
      <!-- 04 -->
      <g transform="translate(656.470187 511.978438)scale(0.1 -0.1)">
       <use xlink:href="#DejaVuSans-48"/>
       <use x="63.623047" xlink:href="#DejaVuSans-52"/>
      </g>
     </g>
    </g>
    <g id="xtick_9">
     <g id="line2d_19">
      <g>
       <use style="stroke:#000000;stroke-width:0.6;" x="740.232884" xlink:href="#maa0dc42f4f" y="498.98"/>
      </g>
     </g>
     <g id="text_20">
      <!-- 08 -->
      <g transform="translate(733.870384 511.978438)scale(0.1 -0.1)">
       <use xlink:href="#DejaVuSans-48"/>
       <use x="63.623047" xlink:href="#DejaVuSans-56"/>
      </g>
     </g>
    </g>
    <g id="xtick_10">
     <g id="line2d_20">
      <g>
       <use style="stroke:#000000;stroke-width:0.6;" x="817.63308" xlink:href="#maa0dc42f4f" y="498.98"/>
      </g>
     </g>
     <g id="text_21">
      <!-- 12 -->
      <g transform="translate(811.27058 511.978438)scale(0.1 -0.1)">
       <use xlink:href="#DejaVuSans-49"/>
       <use x="63.623047" xlink:href="#DejaVuSans-50"/>
      </g>
     </g>
    </g>
    <g id="xtick_11">
     <g id="line2d_21">
      <g>
       <use style="stroke:#000000;stroke-width:0.6;" x="895.033276" xlink:href="#maa0dc42f4f" y="498.98"/>
      </g>
     </g>
     <g id="text_22">
      <!-- 16 -->
      <g transform="translate(888.670776 511.978438)scale(0.1 -0.1)">
       <use xlink:href="#DejaVuSans-49"/>
       <use x="63.623047" xlink:href="#DejaVuSans-54"/>
      </g>
     </g>
    </g>
    <g id="xtick_12">
     <g id="line2d_22">
      <g>
       <use style="stroke:#000000;stroke-width:0.6;" x="972.433473" xlink:href="#maa0dc42f4f" y="498.98"/>
      </g>
     </g>
     <g id="text_23">
      <!-- 20 -->
      <g transform="translate(966.070973 511.978438)scale(0.1 -0.1)">
       <use xlink:href="#DejaVuSans-50"/>
       <use x="63.623047" xlink:href="#DejaVuSans-48"/>
      </g>
     </g>
    </g>
    <g id="text_24">
     <!-- time -->
     <g transform="translate(807.949495 538.756563)scale(0.1 -0.1)">
      <use xlink:href="#DejaVuSans-116"/>
      <use x="39.208984" xlink:href="#DejaVuSans-105"/>
      <use x="66.992188" xlink:href="#DejaVuSans-109"/>
      <use x="164.404297" xlink:href="#DejaVuSans-101"/>
     </g>
    </g>
   </g>
   <g id="matplotlib.axis_4">
    <g id="ytick_8">
     <g id="line2d_23">
      <g>
       <use style="stroke:#000000;stroke-width:0.8;" x="587.045" xlink:href="#ma601fbc301" y="498.98"/>
      </g>
     </g>
     <g id="text_25">
      <!-- 0 -->
      <g transform="translate(573.6825 502.779219)scale(0.1 -0.1)">
       <use xlink:href="#DejaVuSans-48"/>
      </g>
     </g>
    </g>
    <g id="ytick_9">
     <g id="line2d_24">
      <g>
       <use style="stroke:#000000;stroke-width:0.8;" x="587.045" xlink:href="#ma601fbc301" y="420.296667"/>
      </g>
     </g>
     <g id="text_26">
      <!-- 100 -->
      <g transform="translate(560.9575 424.095885)scale(0.1 -0.1)">
       <use xlink:href="#DejaVuSans-49"/>
       <use x="63.623047" xlink:href="#DejaVuSans-48"/>
       <use x="127.246094" xlink:href="#DejaVuSans-48"/>
      </g>
     </g>
    </g>
    <g id="ytick_10">
     <g id="line2d_25">
      <g>
       <use style="stroke:#000000;stroke-width:0.8;" x="587.045" xlink:href="#ma601fbc301" y="341.613333"/>
      </g>
     </g>
     <g id="text_27">
      <!-- 200 -->
      <g transform="translate(560.9575 345.412552)scale(0.1 -0.1)">
       <use xlink:href="#DejaVuSans-50"/>
       <use x="63.623047" xlink:href="#DejaVuSans-48"/>
       <use x="127.246094" xlink:href="#DejaVuSans-48"/>
      </g>
     </g>
    </g>
    <g id="ytick_11">
     <g id="line2d_26">
      <g>
       <use style="stroke:#000000;stroke-width:0.8;" x="587.045" xlink:href="#ma601fbc301" y="262.93"/>
      </g>
     </g>
     <g id="text_28">
      <!-- 300 -->
      <g transform="translate(560.9575 266.729219)scale(0.1 -0.1)">
       <use xlink:href="#DejaVuSans-51"/>
       <use x="63.623047" xlink:href="#DejaVuSans-48"/>
       <use x="127.246094" xlink:href="#DejaVuSans-48"/>
      </g>
     </g>
    </g>
    <g id="ytick_12">
     <g id="line2d_27">
      <g>
       <use style="stroke:#000000;stroke-width:0.8;" x="587.045" xlink:href="#ma601fbc301" y="184.246667"/>
      </g>
     </g>
     <g id="text_29">
      <!-- 400 -->
      <g transform="translate(560.9575 188.045885)scale(0.1 -0.1)">
       <use xlink:href="#DejaVuSans-52"/>
       <use x="63.623047" xlink:href="#DejaVuSans-48"/>
       <use x="127.246094" xlink:href="#DejaVuSans-48"/>
      </g>
     </g>
    </g>
    <g id="ytick_13">
     <g id="line2d_28">
      <g>
       <use style="stroke:#000000;stroke-width:0.8;" x="587.045" xlink:href="#ma601fbc301" y="105.563333"/>
      </g>
     </g>
     <g id="text_30">
      <!-- 500 -->
      <g transform="translate(560.9575 109.362552)scale(0.1 -0.1)">
       <use xlink:href="#DejaVuSans-53"/>
       <use x="63.623047" xlink:href="#DejaVuSans-48"/>
       <use x="127.246094" xlink:href="#DejaVuSans-48"/>
      </g>
     </g>
    </g>
    <g id="ytick_14">
     <g id="line2d_29">
      <g>
       <use style="stroke:#000000;stroke-width:0.8;" x="587.045" xlink:href="#ma601fbc301" y="26.88"/>
      </g>
     </g>
     <g id="text_31">
      <!-- 600 -->
      <g transform="translate(560.9575 30.679219)scale(0.1 -0.1)">
       <use xlink:href="#DejaVuSans-54"/>
       <use x="63.623047" xlink:href="#DejaVuSans-48"/>
       <use x="127.246094" xlink:href="#DejaVuSans-48"/>
      </g>
     </g>
    </g>
    <g id="text_32">
     <!-- average latency -->
     <g transform="translate(554.877813 303.356563)rotate(-90)scale(0.1 -0.1)">
      <use xlink:href="#DejaVuSans-97"/>
      <use x="61.279297" xlink:href="#DejaVuSans-118"/>
      <use x="120.458984" xlink:href="#DejaVuSans-101"/>
      <use x="181.982422" xlink:href="#DejaVuSans-114"/>
      <use x="223.095703" xlink:href="#DejaVuSans-97"/>
      <use x="284.375" xlink:href="#DejaVuSans-103"/>
      <use x="347.851562" xlink:href="#DejaVuSans-101"/>
      <use x="409.375" xlink:href="#DejaVuSans-32"/>
      <use x="441.162109" xlink:href="#DejaVuSans-108"/>
      <use x="468.945312" xlink:href="#DejaVuSans-97"/>
      <use x="530.224609" xlink:href="#DejaVuSans-116"/>
      <use x="569.433594" xlink:href="#DejaVuSans-101"/>
      <use x="630.957031" xlink:href="#DejaVuSans-110"/>
      <use x="694.335938" xlink:href="#DejaVuSans-99"/>
      <use x="749.316406" xlink:href="#DejaVuSans-121"/>
     </g>
    </g>
   </g>
   <g id="line2d_30">
    <path clip-path="url(#p57f6814e9f)" d="M 587.045 321.857215 
L 588.657521 333.810005 
L 590.270042 273.389626 
L 591.88256 287.967242 
L 593.495083 321.407676 
L 595.107607 262.320546 
L 596.720143 317.027801 
L 598.332664 225.359922 
L 599.945179 327.615287 
L 601.557697 295.925874 
L 603.170216 290.554247 
L 604.782734 300.9408 
L 606.395252 230.396555 
L 608.007765 295.395271 
L 609.620279 286.406064 
L 611.232814 281.25534 
L 612.845332 270.329155 
L 614.457848 274.585578 
L 616.070368 308.121142 
L 617.682885 301.722348 
L 619.295401 310.916642 
L 620.907917 299.862608 
L 622.520432 317.09461 
L 624.132949 219.557924 
L 625.745465 323.090672 
L 627.357984 278.362544 
L 628.970504 310.133601 
L 630.58302 295.884572 
L 632.195536 241.818891 
L 633.808052 337.269629 
L 635.420569 316.159783 
L 637.033084 313.293953 
L 640.25812 269.302617 
L 641.870637 313.763539 
L 643.483156 300.933423 
L 645.095679 296.024341 
L 646.70821 253.954867 
L 648.320757 280.017553 
L 649.933498 274.114073 
L 651.546023 304.030088 
L 653.158543 285.32452 
L 654.771066 326.196604 
L 656.383582 258.159467 
L 657.996101 304.808456 
L 659.608619 313.639037 
L 661.22114 319.702989 
L 662.833664 277.278416 
L 664.44618 251.542687 
L 666.058695 287.954945 
L 667.671214 271.977039 
L 669.283733 331.210567 
L 670.89625 206.164508 
L 672.508767 285.323912 
L 674.121281 301.445717 
L 675.733798 204.468453 
L 677.346312 301.140048 
L 678.958828 333.240214 
L 680.571346 318.451312 
L 682.183862 230.981921 
L 683.796384 278.303003 
L 685.408909 304.512301 
L 687.021648 283.21621 
L 688.634164 334.280561 
L 690.246684 322.142515 
L 693.471727 271.913992 
L 695.084244 323.679986 
L 696.69676 268.794082 
L 699.921797 330.509167 
L 701.534317 309.81149 
L 703.146834 300.152905 
L 704.759353 330.135414 
L 706.371873 324.252574 
L 707.984392 276.787495 
L 709.596917 308.56518 
L 711.209434 303.868871 
L 712.821954 277.796861 
L 714.434472 318.725274 
L 716.046991 324.342069 
L 717.65951 285.629172 
L 720.884545 316.579605 
L 722.497062 297.322636 
L 724.109584 291.898266 
L 725.722104 257.075367 
L 727.334737 301.220784 
L 728.947256 334.154846 
L 730.559776 295.931544 
L 732.172295 308.571259 
L 733.784814 312.156013 
L 735.39735 319.693426 
L 737.009871 319.56804 
L 738.62239 297.633041 
L 740.234908 301.669349 
L 741.847425 326.807544 
L 743.459945 316.883699 
L 745.072465 317.75703 
L 746.684987 270.304687 
L 748.297507 280.83248 
L 749.910027 313.097201 
L 751.522543 291.299157 
L 753.135063 298.098067 
L 754.747618 336.630914 
L 756.360136 298.608897 
L 757.972655 298.740627 
L 759.585171 318.785255 
L 761.197687 283.510022 
L 762.810206 313.424066 
L 764.422869 281.857214 
L 766.035389 275.595384 
L 767.647906 301.206702 
L 769.260421 257.208141 
L 770.872941 309.474659 
L 772.485461 268.348483 
L 774.097985 281.232837 
L 775.710512 297.61925 
L 777.323032 276.276523 
L 778.93555 282.957584 
L 780.548069 282.663168 
L 782.160585 220.286862 
L 783.773105 249.590538 
L 785.385626 320.757341 
L 786.998146 302.888084 
L 788.610665 309.922953 
L 790.223187 291.958967 
L 791.835706 301.013403 
L 793.448227 250.618485 
L 795.060746 272.917865 
L 796.673269 284.489928 
L 798.285799 280.851574 
L 799.898328 293.670101 
L 801.51085 297.748142 
L 803.123371 270.394807 
L 804.735898 284.373691 
L 806.348418 282.117299 
L 807.960939 281.012115 
L 809.573456 288.642269 
L 811.186066 302.154837 
L 814.411109 315.728213 
L 816.023631 291.739635 
L 819.24867 268.679893 
L 820.861188 319.608362 
L 822.473709 275.547084 
L 824.086233 281.59094 
L 825.698763 282.378008 
L 827.311286 287.147479 
L 828.923804 320.308768 
L 830.536321 293.464586 
L 832.148841 319.89335 
L 833.76136 263.78893 
L 835.373974 277.223453 
L 836.986491 261.574637 
L 838.599007 330.744873 
L 840.211527 243.43119 
L 841.824041 284.316541 
L 843.436556 283.690208 
L 845.049073 284.54951 
L 846.661592 282.872484 
L 848.274112 304.769074 
L 849.886632 305.816944 
L 851.499154 258.665024 
L 853.111672 293.046246 
L 854.724186 319.905423 
L 856.336703 321.241692 
L 857.949221 291.943657 
L 859.561738 271.41347 
L 861.174256 295.646558 
L 862.786774 289.663737 
L 864.399293 271.770199 
L 866.011808 307.715696 
L 867.624327 277.153412 
L 869.236849 230.060137 
L 870.849371 237.484849 
L 872.461888 259.872588 
L 874.074407 264.655163 
L 875.686925 298.212726 
L 877.299447 232.706924 
L 878.91196 299.876037 
L 880.524477 285.917285 
L 882.136993 306.32475 
L 883.749512 277.304528 
L 885.362039 138.941853 
L 886.974559 292.536572 
L 888.587085 270.554457 
L 890.199606 284.236136 
L 891.812125 264.111137 
L 893.424677 271.84743 
L 895.037196 296.292143 
L 896.649817 266.826596 
L 898.262341 263.313413 
L 899.87486 260.856105 
L 901.48738 230.112728 
L 903.099897 280.029185 
L 904.712417 268.408566 
L 906.324942 269.205794 
L 907.937463 262.845204 
L 909.549985 236.002683 
L 911.162508 264.230495 
L 912.775028 262.649151 
L 914.387554 255.111429 
L 916.000076 276.960185 
L 917.6126 256.868006 
L 919.22512 283.7153 
L 920.837642 270.223518 
L 922.450167 262.85948 
L 924.062709 340.469119 
L 925.675228 324.592443 
L 927.287745 272.906298 
L 928.900267 201.499269 
L 930.512784 285.097884 
L 932.125302 294.798753 
L 933.737824 259.262479 
L 935.350344 298.838196 
L 936.962868 325.130215 
L 938.575386 307.250253 
L 940.187905 297.763349 
L 941.800425 295.403609 
L 943.412943 322.956648 
L 945.025461 300.053081 
L 946.637975 210.995762 
L 948.250492 281.372004 
L 949.863012 267.375825 
L 951.475527 311.166336 
L 953.088045 286.35121 
L 954.70056 250.273371 
L 956.313078 262.474438 
L 957.925592 316.354615 
L 959.538112 223.452116 
L 961.150629 320.944634 
L 962.763147 286.371056 
L 964.375667 300.326873 
L 965.988184 298.739034 
L 967.600708 305.427444 
L 969.213226 308.375982 
L 970.825745 266.913123 
L 972.438262 301.504574 
L 974.050782 284.844087 
L 975.663299 321.207874 
L 977.275818 273.168032 
L 978.888337 300.475273 
L 980.500858 316.235381 
L 982.113378 314.048116 
L 983.725899 322.718506 
L 985.338418 221.231616 
L 986.950936 292.002417 
L 988.563453 226.03893 
L 990.175968 284.413849 
L 991.788489 309.774014 
L 993.401112 322.510646 
L 995.013649 268.418726 
L 998.238688 318.536481 
L 999.851207 300.635124 
L 1001.463724 287.970493 
L 1003.076264 298.165051 
L 1004.68879 288.664627 
L 1006.30131 309.885811 
L 1007.913839 308.286085 
L 1011.138877 270.200787 
L 1012.751396 306.935605 
L 1014.363915 310.150926 
L 1015.976435 319.763593 
L 1017.588956 281.76553 
L 1019.201473 290.987832 
L 1020.813991 263.061916 
L 1022.426508 278.225082 
L 1024.039026 318.831436 
L 1025.651544 244.433587 
L 1027.264065 279.242798 
L 1028.876586 308.711445 
L 1030.489139 294.27554 
L 1032.10166 321.271241 
L 1033.714178 290.748306 
L 1035.326696 307.29716 
L 1036.939252 280.467748 
L 1038.551775 239.754451 
L 1040.164296 286.78776 
L 1041.776813 304.730403 
L 1043.389328 288.638853 
L 1045.001846 299.376115 
L 1046.614363 281.395898 
L 1048.22688 257.079715 
L 1049.8394 294.603655 
L 1051.451921 282.807072 
L 1053.064444 287.19614 
L 1054.676975 329.272476 
L 1056.289495 279.063348 
L 1057.902015 318.055588 
L 1059.514532 300.189126 
L 1061.127052 334.863287 
L 1062.73957 188.932505 
L 1064.352089 336.859797 
L 1065.964609 300.816385 
L 1067.577128 340.443489 
L 1069.189649 291.650745 
L 1070.802166 329.303892 
L 1072.414683 326.119745 
L 1074.027205 306.472792 
L 1075.639724 318.142463 
L 1077.252243 278.571037 
L 1078.864761 278.094319 
L 1080.477279 323.025633 
L 1081 299.27218 
L 1081 299.27218 
" style="fill:none;stroke:#800080;stroke-linecap:square;stroke-width:1.5;"/>
   </g>
   <g id="patch_9">
    <path d="M 587.045 498.98 
L 587.045 26.88 
" style="fill:none;stroke:#000000;stroke-linecap:square;stroke-linejoin:miter;stroke-width:0.8;"/>
   </g>
   <g id="patch_10">
    <path d="M 1051.446178 498.98 
L 1051.446178 26.88 
" style="fill:none;stroke:#000000;stroke-linecap:square;stroke-linejoin:miter;stroke-width:0.8;"/>
   </g>
   <g id="patch_11">
    <path d="M 587.045 498.98 
L 1051.446178 498.98 
" style="fill:none;stroke:#000000;stroke-linecap:square;stroke-linejoin:miter;stroke-width:0.8;"/>
   </g>
   <g id="patch_12">
    <path d="M 587.045 26.88 
L 1051.446178 26.88 
" style="fill:none;stroke:#000000;stroke-linecap:square;stroke-linejoin:miter;stroke-width:0.8;"/>
   </g>
   <g id="text_33">
    <!-- average latency for phpa over time -->
    <g transform="translate(712.822464 20.88)scale(0.12 -0.12)">
     <use xlink:href="#DejaVuSans-97"/>
     <use x="61.279297" xlink:href="#DejaVuSans-118"/>
     <use x="120.458984" xlink:href="#DejaVuSans-101"/>
     <use x="181.982422" xlink:href="#DejaVuSans-114"/>
     <use x="223.095703" xlink:href="#DejaVuSans-97"/>
     <use x="284.375" xlink:href="#DejaVuSans-103"/>
     <use x="347.851562" xlink:href="#DejaVuSans-101"/>
     <use x="409.375" xlink:href="#DejaVuSans-32"/>
     <use x="441.162109" xlink:href="#DejaVuSans-108"/>
     <use x="468.945312" xlink:href="#DejaVuSans-97"/>
     <use x="530.224609" xlink:href="#DejaVuSans-116"/>
     <use x="569.433594" xlink:href="#DejaVuSans-101"/>
     <use x="630.957031" xlink:href="#DejaVuSans-110"/>
     <use x="694.335938" xlink:href="#DejaVuSans-99"/>
     <use x="749.316406" xlink:href="#DejaVuSans-121"/>
     <use x="808.496094" xlink:href="#DejaVuSans-32"/>
     <use x="840.283203" xlink:href="#DejaVuSans-102"/>
     <use x="875.488281" xlink:href="#DejaVuSans-111"/>
     <use x="936.669922" xlink:href="#DejaVuSans-114"/>
     <use x="977.783203" xlink:href="#DejaVuSans-32"/>
     <use x="1009.570312" xlink:href="#DejaVuSans-112"/>
     <use x="1073.046875" xlink:href="#DejaVuSans-104"/>
     <use x="1136.425781" xlink:href="#DejaVuSans-112"/>
     <use x="1199.902344" xlink:href="#DejaVuSans-97"/>
     <use x="1261.181641" xlink:href="#DejaVuSans-32"/>
     <use x="1292.96875" xlink:href="#DejaVuSans-111"/>
     <use x="1354.150391" xlink:href="#DejaVuSans-118"/>
     <use x="1413.330078" xlink:href="#DejaVuSans-101"/>
     <use x="1474.853516" xlink:href="#DejaVuSans-114"/>
     <use x="1515.966797" xlink:href="#DejaVuSans-32"/>
     <use x="1547.753906" xlink:href="#DejaVuSans-116"/>
     <use x="1586.962891" xlink:href="#DejaVuSans-105"/>
     <use x="1614.746094" xlink:href="#DejaVuSans-109"/>
     <use x="1712.158203" xlink:href="#DejaVuSans-101"/>
    </g>
   </g>
   <g id="legend_2">
    <g id="patch_13">
     <path d="M 594.045 49.558125 
L 735.23875 49.558125 
Q 737.23875 49.558125 737.23875 47.558125 
L 737.23875 33.88 
Q 737.23875 31.88 735.23875 31.88 
L 594.045 31.88 
Q 592.045 31.88 592.045 33.88 
L 592.045 47.558125 
Q 592.045 49.558125 594.045 49.558125 
z
" style="fill:#ffffff;opacity:0.8;stroke:#cccccc;stroke-linejoin:miter;"/>
    </g>
    <g id="line2d_31">
     <path d="M 596.045 39.978437 
L 616.045 39.978437 
" style="fill:none;stroke:#800080;stroke-linecap:square;stroke-width:1.5;"/>
    </g>
    <g id="line2d_32"/>
    <g id="text_34">
     <!-- phpa average latency -->
     <g transform="translate(624.045 43.478437)scale(0.1 -0.1)">
      <use xlink:href="#DejaVuSans-112"/>
      <use x="63.476562" xlink:href="#DejaVuSans-104"/>
      <use x="126.855469" xlink:href="#DejaVuSans-112"/>
      <use x="190.332031" xlink:href="#DejaVuSans-97"/>
      <use x="251.611328" xlink:href="#DejaVuSans-32"/>
      <use x="283.398438" xlink:href="#DejaVuSans-97"/>
      <use x="344.677734" xlink:href="#DejaVuSans-118"/>
      <use x="403.857422" xlink:href="#DejaVuSans-101"/>
      <use x="465.380859" xlink:href="#DejaVuSans-114"/>
      <use x="506.494141" xlink:href="#DejaVuSans-97"/>
      <use x="567.773438" xlink:href="#DejaVuSans-103"/>
      <use x="631.25" xlink:href="#DejaVuSans-101"/>
      <use x="692.773438" xlink:href="#DejaVuSans-32"/>
      <use x="724.560547" xlink:href="#DejaVuSans-108"/>
      <use x="752.34375" xlink:href="#DejaVuSans-97"/>
      <use x="813.623047" xlink:href="#DejaVuSans-116"/>
      <use x="852.832031" xlink:href="#DejaVuSans-101"/>
      <use x="914.355469" xlink:href="#DejaVuSans-110"/>
      <use x="977.734375" xlink:href="#DejaVuSans-99"/>
      <use x="1032.714844" xlink:href="#DejaVuSans-121"/>
     </g>
    </g>
   </g>
  </g>
  <g id="axes_3">
   <g id="patch_14">
    <path d="M 50.87 1040.62 
L 515.271178 1040.62 
L 515.271178 568.52 
L 50.87 568.52 
z
" style="fill:#ffffff;"/>
   </g>
   <g id="matplotlib.axis_5">
    <g id="xtick_13">
     <g id="line2d_33">
      <g>
       <use style="stroke:#000000;stroke-width:0.8;" x="515.190398" xlink:href="#mafb8cb4594" y="1040.62"/>
      </g>
     </g>
     <g id="text_35">
      <!-- Day 02 -->
      <g transform="translate(497.365398 1066.718437)scale(0.1 -0.1)">
       <use xlink:href="#DejaVuSans-68"/>
       <use x="77.001953" xlink:href="#DejaVuSans-97"/>
       <use x="138.28125" xlink:href="#DejaVuSans-121"/>
       <use x="197.460938" xlink:href="#DejaVuSans-32"/>
       <use x="229.248047" xlink:href="#DejaVuSans-48"/>
       <use x="292.871094" xlink:href="#DejaVuSans-50"/>
      </g>
     </g>
    </g>
    <g id="xtick_14">
     <g id="line2d_34">
      <g>
       <use style="stroke:#000000;stroke-width:0.6;" x="128.189416" xlink:href="#maa0dc42f4f" y="1040.62"/>
      </g>
     </g>
     <g id="text_36">
      <!-- 04 -->
      <g transform="translate(121.826916 1053.618438)scale(0.1 -0.1)">
       <use xlink:href="#DejaVuSans-48"/>
       <use x="63.623047" xlink:href="#DejaVuSans-52"/>
      </g>
     </g>
    </g>
    <g id="xtick_15">
     <g id="line2d_35">
      <g>
       <use style="stroke:#000000;stroke-width:0.6;" x="205.589612" xlink:href="#maa0dc42f4f" y="1040.62"/>
      </g>
     </g>
     <g id="text_37">
      <!-- 08 -->
      <g transform="translate(199.227112 1053.618438)scale(0.1 -0.1)">
       <use xlink:href="#DejaVuSans-48"/>
       <use x="63.623047" xlink:href="#DejaVuSans-56"/>
      </g>
     </g>
    </g>
    <g id="xtick_16">
     <g id="line2d_36">
      <g>
       <use style="stroke:#000000;stroke-width:0.6;" x="282.989809" xlink:href="#maa0dc42f4f" y="1040.62"/>
      </g>
     </g>
     <g id="text_38">
      <!-- 12 -->
      <g transform="translate(276.627309 1053.618438)scale(0.1 -0.1)">
       <use xlink:href="#DejaVuSans-49"/>
       <use x="63.623047" xlink:href="#DejaVuSans-50"/>
      </g>
     </g>
    </g>
    <g id="xtick_17">
     <g id="line2d_37">
      <g>
       <use style="stroke:#000000;stroke-width:0.6;" x="360.390005" xlink:href="#maa0dc42f4f" y="1040.62"/>
      </g>
     </g>
     <g id="text_39">
      <!-- 16 -->
      <g transform="translate(354.027505 1053.618438)scale(0.1 -0.1)">
       <use xlink:href="#DejaVuSans-49"/>
       <use x="63.623047" xlink:href="#DejaVuSans-54"/>
      </g>
     </g>
    </g>
    <g id="xtick_18">
     <g id="line2d_38">
      <g>
       <use style="stroke:#000000;stroke-width:0.6;" x="437.790201" xlink:href="#maa0dc42f4f" y="1040.62"/>
      </g>
     </g>
     <g id="text_40">
      <!-- 20 -->
      <g transform="translate(431.427701 1053.618438)scale(0.1 -0.1)">
       <use xlink:href="#DejaVuSans-50"/>
       <use x="63.623047" xlink:href="#DejaVuSans-48"/>
      </g>
     </g>
    </g>
   </g>
   <g id="matplotlib.axis_6">
    <g id="ytick_15">
     <g id="line2d_39">
      <g>
       <use style="stroke:#000000;stroke-width:0.8;" x="50.87" xlink:href="#ma601fbc301" y="992.337045"/>
      </g>
     </g>
     <g id="text_41">
      <!-- 2 -->
      <g transform="translate(37.5075 996.136264)scale(0.1 -0.1)">
       <use xlink:href="#DejaVuSans-50"/>
      </g>
     </g>
    </g>
    <g id="ytick_16">
     <g id="line2d_40">
      <g>
       <use style="stroke:#000000;stroke-width:0.8;" x="50.87" xlink:href="#ma601fbc301" y="938.689318"/>
      </g>
     </g>
     <g id="text_42">
      <!-- 4 -->
      <g transform="translate(37.5075 942.488537)scale(0.1 -0.1)">
       <use xlink:href="#DejaVuSans-52"/>
      </g>
     </g>
    </g>
    <g id="ytick_17">
     <g id="line2d_41">
      <g>
       <use style="stroke:#000000;stroke-width:0.8;" x="50.87" xlink:href="#ma601fbc301" y="885.041591"/>
      </g>
     </g>
     <g id="text_43">
      <!-- 6 -->
      <g transform="translate(37.5075 888.84081)scale(0.1 -0.1)">
       <use xlink:href="#DejaVuSans-54"/>
      </g>
     </g>
    </g>
    <g id="ytick_18">
     <g id="line2d_42">
      <g>
       <use style="stroke:#000000;stroke-width:0.8;" x="50.87" xlink:href="#ma601fbc301" y="831.393864"/>
      </g>
     </g>
     <g id="text_44">
      <!-- 8 -->
      <g transform="translate(37.5075 835.193082)scale(0.1 -0.1)">
       <use xlink:href="#DejaVuSans-56"/>
      </g>
     </g>
    </g>
    <g id="ytick_19">
     <g id="line2d_43">
      <g>
       <use style="stroke:#000000;stroke-width:0.8;" x="50.87" xlink:href="#ma601fbc301" y="777.746136"/>
      </g>
     </g>
     <g id="text_45">
      <!-- 10 -->
      <g transform="translate(31.145 781.545355)scale(0.1 -0.1)">
       <use xlink:href="#DejaVuSans-49"/>
       <use x="63.623047" xlink:href="#DejaVuSans-48"/>
      </g>
     </g>
    </g>
    <g id="ytick_20">
     <g id="line2d_44">
      <g>
       <use style="stroke:#000000;stroke-width:0.8;" x="50.87" xlink:href="#ma601fbc301" y="724.098409"/>
      </g>
     </g>
     <g id="text_46">
      <!-- 12 -->
      <g transform="translate(31.145 727.897628)scale(0.1 -0.1)">
       <use xlink:href="#DejaVuSans-49"/>
       <use x="63.623047" xlink:href="#DejaVuSans-50"/>
      </g>
     </g>
    </g>
    <g id="ytick_21">
     <g id="line2d_45">
      <g>
       <use style="stroke:#000000;stroke-width:0.8;" x="50.87" xlink:href="#ma601fbc301" y="670.450682"/>
      </g>
     </g>
     <g id="text_47">
      <!-- 14 -->
      <g transform="translate(31.145 674.249901)scale(0.1 -0.1)">
       <use xlink:href="#DejaVuSans-49"/>
       <use x="63.623047" xlink:href="#DejaVuSans-52"/>
      </g>
     </g>
    </g>
    <g id="ytick_22">
     <g id="line2d_46">
      <g>
       <use style="stroke:#000000;stroke-width:0.8;" x="50.87" xlink:href="#ma601fbc301" y="616.802955"/>
      </g>
     </g>
     <g id="text_48">
      <!-- 16 -->
      <g transform="translate(31.145 620.602173)scale(0.1 -0.1)">
       <use xlink:href="#DejaVuSans-49"/>
       <use x="63.623047" xlink:href="#DejaVuSans-54"/>
      </g>
     </g>
    </g>
    <g id="text_49">
     <!-- number of replicas -->
     <defs>
      <path d="M 8.5 21.578125 
L 8.5 54.6875 
L 17.484375 54.6875 
L 17.484375 21.921875 
Q 17.484375 14.15625 20.5 10.265625 
Q 23.53125 6.390625 29.59375 6.390625 
Q 36.859375 6.390625 41.078125 11.03125 
Q 45.3125 15.671875 45.3125 23.6875 
L 45.3125 54.6875 
L 54.296875 54.6875 
L 54.296875 0 
L 45.3125 0 
L 45.3125 8.40625 
Q 42.046875 3.421875 37.71875 1 
Q 33.40625 -1.421875 27.6875 -1.421875 
Q 18.265625 -1.421875 13.375 4.4375 
Q 8.5 10.296875 8.5 21.578125 
z
M 31.109375 56 
z
" id="DejaVuSans-117"/>
      <path d="M 48.6875 27.296875 
Q 48.6875 37.203125 44.609375 42.84375 
Q 40.53125 48.484375 33.40625 48.484375 
Q 26.265625 48.484375 22.1875 42.84375 
Q 18.109375 37.203125 18.109375 27.296875 
Q 18.109375 17.390625 22.1875 11.75 
Q 26.265625 6.109375 33.40625 6.109375 
Q 40.53125 6.109375 44.609375 11.75 
Q 48.6875 17.390625 48.6875 27.296875 
z
M 18.109375 46.390625 
Q 20.953125 51.265625 25.265625 53.625 
Q 29.59375 56 35.59375 56 
Q 45.5625 56 51.78125 48.09375 
Q 58.015625 40.1875 58.015625 27.296875 
Q 58.015625 14.40625 51.78125 6.484375 
Q 45.5625 -1.421875 35.59375 -1.421875 
Q 29.59375 -1.421875 25.265625 0.953125 
Q 20.953125 3.328125 18.109375 8.203125 
L 18.109375 0 
L 9.078125 0 
L 9.078125 75.984375 
L 18.109375 75.984375 
z
" id="DejaVuSans-98"/>
      <path d="M 44.28125 53.078125 
L 44.28125 44.578125 
Q 40.484375 46.53125 36.375 47.5 
Q 32.28125 48.484375 27.875 48.484375 
Q 21.1875 48.484375 17.84375 46.4375 
Q 14.5 44.390625 14.5 40.28125 
Q 14.5 37.15625 16.890625 35.375 
Q 19.28125 33.59375 26.515625 31.984375 
L 29.59375 31.296875 
Q 39.15625 29.25 43.1875 25.515625 
Q 47.21875 21.78125 47.21875 15.09375 
Q 47.21875 7.46875 41.1875 3.015625 
Q 35.15625 -1.421875 24.609375 -1.421875 
Q 20.21875 -1.421875 15.453125 -0.5625 
Q 10.6875 0.296875 5.421875 2 
L 5.421875 11.28125 
Q 10.40625 8.6875 15.234375 7.390625 
Q 20.0625 6.109375 24.8125 6.109375 
Q 31.15625 6.109375 34.5625 8.28125 
Q 37.984375 10.453125 37.984375 14.40625 
Q 37.984375 18.0625 35.515625 20.015625 
Q 33.0625 21.96875 24.703125 23.78125 
L 21.578125 24.515625 
Q 13.234375 26.265625 9.515625 29.90625 
Q 5.8125 33.546875 5.8125 39.890625 
Q 5.8125 47.609375 11.28125 51.796875 
Q 16.75 56 26.8125 56 
Q 31.78125 56 36.171875 55.265625 
Q 40.578125 54.546875 44.28125 53.078125 
z
" id="DejaVuSans-115"/>
     </defs>
     <g transform="translate(25.065312 851.5825)rotate(-90)scale(0.1 -0.1)">
      <use xlink:href="#DejaVuSans-110"/>
      <use x="63.378906" xlink:href="#DejaVuSans-117"/>
      <use x="126.757812" xlink:href="#DejaVuSans-109"/>
      <use x="224.169922" xlink:href="#DejaVuSans-98"/>
      <use x="287.646484" xlink:href="#DejaVuSans-101"/>
      <use x="349.169922" xlink:href="#DejaVuSans-114"/>
      <use x="390.283203" xlink:href="#DejaVuSans-32"/>
      <use x="422.070312" xlink:href="#DejaVuSans-111"/>
      <use x="483.251953" xlink:href="#DejaVuSans-102"/>
      <use x="518.457031" xlink:href="#DejaVuSans-32"/>
      <use x="550.244141" xlink:href="#DejaVuSans-114"/>
      <use x="591.326172" xlink:href="#DejaVuSans-101"/>
      <use x="652.849609" xlink:href="#DejaVuSans-112"/>
      <use x="716.326172" xlink:href="#DejaVuSans-108"/>
      <use x="744.109375" xlink:href="#DejaVuSans-105"/>
      <use x="771.892578" xlink:href="#DejaVuSans-99"/>
      <use x="826.873047" xlink:href="#DejaVuSans-97"/>
      <use x="888.152344" xlink:href="#DejaVuSans-115"/>
     </g>
    </g>
   </g>
   <g id="line2d_47">
    <path clip-path="url(#p6dd3bd31b1)" d="M 50.87 1019.160909 
L 51.192915 1019.160909 
L 51.354289 938.689318 
L 51.596463 938.689318 
L 51.757844 911.865455 
L 62.167617 911.865455 
L 62.328973 885.041591 
L 65.637647 885.041591 
L 65.799034 911.865455 
L 104.128707 911.865455 
L 104.290089 885.041591 
L 105.984575 885.041591 
L 106.145967 911.865455 
L 107.275692 911.865455 
L 107.437056 938.689318 
L 107.598433 938.689318 
L 107.759814 885.041591 
L 110.503214 885.041591 
L 110.664611 911.865455 
L 139.471217 911.865455 
L 139.632579 938.689318 
L 139.874691 938.689318 
L 140.036054 911.865455 
L 146.007292 911.865455 
L 146.168664 885.041591 
L 147.863098 885.041591 
L 148.024467 911.865455 
L 210.159478 911.865455 
L 210.320875 938.689318 
L 211.773267 938.689318 
L 211.934868 911.865455 
L 234.690504 911.865455 
L 234.851884 885.041591 
L 236.54637 885.041591 
L 236.707758 911.865455 
L 237.918114 911.865455 
L 238.079496 885.041591 
L 238.240868 885.041591 
L 238.402342 831.393864 
L 266.890558 831.393864 
L 267.051928 858.217727 
L 267.294055 858.217727 
L 267.455464 804.57 
L 269.795619 804.57 
L 269.956997 831.393864 
L 283.111088 831.393864 
L 283.272457 804.57 
L 284.967088 804.57 
L 285.128457 831.393864 
L 297.474895 831.393864 
L 297.636289 885.041591 
L 297.797668 885.041591 
L 297.959037 911.865455 
L 354.043146 911.865455 
L 354.204519 724.098409 
L 357.513469 724.098409 
L 357.674885 670.450682 
L 368.491583 670.450682 
L 368.652972 616.802955 
L 376.807994 616.802955 
L 376.969378 670.450682 
L 389.560979 670.450682 
L 389.722358 616.802955 
L 391.41704 616.802955 
L 391.578413 643.626818 
L 392.627317 643.626818 
L 392.788676 670.450682 
L 392.95004 670.450682 
L 393.111415 697.274545 
L 394.241027 697.274545 
L 394.402396 804.57 
L 394.56378 804.57 
L 394.72516 911.865455 
L 402.391341 911.865455 
L 402.552709 885.041591 
L 404.247339 885.041591 
L 404.408733 911.865455 
L 481.314126 911.865455 
L 481.475609 938.689318 
L 481.636978 911.865455 
L 503.9086 911.865455 
L 504.069979 938.689318 
L 504.312039 938.689318 
L 504.473431 911.865455 
L 515.287584 911.865455 
L 515.287584 911.865455 
" style="fill:none;stroke:#008000;stroke-linecap:square;stroke-width:1.5;"/>
   </g>
   <g id="patch_15">
    <path d="M 50.87 1040.62 
L 50.87 568.52 
" style="fill:none;stroke:#000000;stroke-linecap:square;stroke-linejoin:miter;stroke-width:0.8;"/>
   </g>
   <g id="patch_16">
    <path d="M 515.271178 1040.62 
L 515.271178 568.52 
" style="fill:none;stroke:#000000;stroke-linecap:square;stroke-linejoin:miter;stroke-width:0.8;"/>
   </g>
   <g id="patch_17">
    <path d="M 50.87 1040.62 
L 515.271178 1040.62 
" style="fill:none;stroke:#000000;stroke-linecap:square;stroke-linejoin:miter;stroke-width:0.8;"/>
   </g>
   <g id="patch_18">
    <path d="M 50.87 568.52 
L 515.271178 568.52 
" style="fill:none;stroke:#000000;stroke-linecap:square;stroke-linejoin:miter;stroke-width:0.8;"/>
   </g>
   <g id="text_50">
    <!-- number of requests for hpa over time -->
    <defs>
     <path d="M 14.796875 27.296875 
Q 14.796875 17.390625 18.875 11.75 
Q 22.953125 6.109375 30.078125 6.109375 
Q 37.203125 6.109375 41.296875 11.75 
Q 45.40625 17.390625 45.40625 27.296875 
Q 45.40625 37.203125 41.296875 42.84375 
Q 37.203125 48.484375 30.078125 48.484375 
Q 22.953125 48.484375 18.875 42.84375 
Q 14.796875 37.203125 14.796875 27.296875 
z
M 45.40625 8.203125 
Q 42.578125 3.328125 38.25 0.953125 
Q 33.9375 -1.421875 27.875 -1.421875 
Q 17.96875 -1.421875 11.734375 6.484375 
Q 5.515625 14.40625 5.515625 27.296875 
Q 5.515625 40.1875 11.734375 48.09375 
Q 17.96875 56 27.875 56 
Q 33.9375 56 38.25 53.625 
Q 42.578125 51.265625 45.40625 46.390625 
L 45.40625 54.6875 
L 54.390625 54.6875 
L 54.390625 -20.796875 
L 45.40625 -20.796875 
z
" id="DejaVuSans-113"/>
    </defs>
    <g transform="translate(169.890902 562.52)scale(0.12 -0.12)">
     <use xlink:href="#DejaVuSans-110"/>
     <use x="63.378906" xlink:href="#DejaVuSans-117"/>
     <use x="126.757812" xlink:href="#DejaVuSans-109"/>
     <use x="224.169922" xlink:href="#DejaVuSans-98"/>
     <use x="287.646484" xlink:href="#DejaVuSans-101"/>
     <use x="349.169922" xlink:href="#DejaVuSans-114"/>
     <use x="390.283203" xlink:href="#DejaVuSans-32"/>
     <use x="422.070312" xlink:href="#DejaVuSans-111"/>
     <use x="483.251953" xlink:href="#DejaVuSans-102"/>
     <use x="518.457031" xlink:href="#DejaVuSans-32"/>
     <use x="550.244141" xlink:href="#DejaVuSans-114"/>
     <use x="591.326172" xlink:href="#DejaVuSans-101"/>
     <use x="652.849609" xlink:href="#DejaVuSans-113"/>
     <use x="716.326172" xlink:href="#DejaVuSans-117"/>
     <use x="779.705078" xlink:href="#DejaVuSans-101"/>
     <use x="841.228516" xlink:href="#DejaVuSans-115"/>
     <use x="893.328125" xlink:href="#DejaVuSans-116"/>
     <use x="932.537109" xlink:href="#DejaVuSans-115"/>
     <use x="984.636719" xlink:href="#DejaVuSans-32"/>
     <use x="1016.423828" xlink:href="#DejaVuSans-102"/>
     <use x="1051.628906" xlink:href="#DejaVuSans-111"/>
     <use x="1112.810547" xlink:href="#DejaVuSans-114"/>
     <use x="1153.923828" xlink:href="#DejaVuSans-32"/>
     <use x="1185.710938" xlink:href="#DejaVuSans-104"/>
     <use x="1249.089844" xlink:href="#DejaVuSans-112"/>
     <use x="1312.566406" xlink:href="#DejaVuSans-97"/>
     <use x="1373.845703" xlink:href="#DejaVuSans-32"/>
     <use x="1405.632812" xlink:href="#DejaVuSans-111"/>
     <use x="1466.814453" xlink:href="#DejaVuSans-118"/>
     <use x="1525.994141" xlink:href="#DejaVuSans-101"/>
     <use x="1587.517578" xlink:href="#DejaVuSans-114"/>
     <use x="1628.630859" xlink:href="#DejaVuSans-32"/>
     <use x="1660.417969" xlink:href="#DejaVuSans-116"/>
     <use x="1699.626953" xlink:href="#DejaVuSans-105"/>
     <use x="1727.410156" xlink:href="#DejaVuSans-109"/>
     <use x="1824.822266" xlink:href="#DejaVuSans-101"/>
    </g>
   </g>
   <g id="legend_3">
    <g id="patch_19">
     <path d="M 355.816491 591.198125 
L 508.271178 591.198125 
Q 510.271178 591.198125 510.271178 589.198125 
L 510.271178 575.52 
Q 510.271178 573.52 508.271178 573.52 
L 355.816491 573.52 
Q 353.816491 573.52 353.816491 575.52 
L 353.816491 589.198125 
Q 353.816491 591.198125 355.816491 591.198125 
z
" style="fill:#ffffff;opacity:0.8;stroke:#cccccc;stroke-linejoin:miter;"/>
    </g>
    <g id="line2d_48">
     <path d="M 357.816491 581.618438 
L 377.816491 581.618438 
" style="fill:none;stroke:#008000;stroke-linecap:square;stroke-width:1.5;"/>
    </g>
    <g id="line2d_49"/>
    <g id="text_51">
     <!-- hpa number of requests -->
     <g transform="translate(385.816491 585.118438)scale(0.1 -0.1)">
      <use xlink:href="#DejaVuSans-104"/>
      <use x="63.378906" xlink:href="#DejaVuSans-112"/>
      <use x="126.855469" xlink:href="#DejaVuSans-97"/>
      <use x="188.134766" xlink:href="#DejaVuSans-32"/>
      <use x="219.921875" xlink:href="#DejaVuSans-110"/>
      <use x="283.300781" xlink:href="#DejaVuSans-117"/>
      <use x="346.679688" xlink:href="#DejaVuSans-109"/>
      <use x="444.091797" xlink:href="#DejaVuSans-98"/>
      <use x="507.568359" xlink:href="#DejaVuSans-101"/>
      <use x="569.091797" xlink:href="#DejaVuSans-114"/>
      <use x="610.205078" xlink:href="#DejaVuSans-32"/>
      <use x="641.992188" xlink:href="#DejaVuSans-111"/>
      <use x="703.173828" xlink:href="#DejaVuSans-102"/>
      <use x="738.378906" xlink:href="#DejaVuSans-32"/>
      <use x="770.166016" xlink:href="#DejaVuSans-114"/>
      <use x="811.248047" xlink:href="#DejaVuSans-101"/>
      <use x="872.771484" xlink:href="#DejaVuSans-113"/>
      <use x="936.248047" xlink:href="#DejaVuSans-117"/>
      <use x="999.626953" xlink:href="#DejaVuSans-101"/>
      <use x="1061.150391" xlink:href="#DejaVuSans-115"/>
      <use x="1113.25" xlink:href="#DejaVuSans-116"/>
      <use x="1152.458984" xlink:href="#DejaVuSans-115"/>
     </g>
    </g>
   </g>
  </g>
  <g id="axes_4">
   <g id="patch_20">
    <path d="M 587.045 1040.62 
L 1051.446178 1040.62 
L 1051.446178 568.52 
L 587.045 568.52 
z
" style="fill:#ffffff;"/>
   </g>
   <g id="matplotlib.axis_7">
    <g id="xtick_19">
     <g id="line2d_50">
      <g>
       <use style="stroke:#000000;stroke-width:0.8;" x="1051.365398" xlink:href="#mafb8cb4594" y="1040.62"/>
      </g>
     </g>
     <g id="text_52">
      <!-- Day 02 -->
      <g transform="translate(1033.540398 1066.718437)scale(0.1 -0.1)">
       <use xlink:href="#DejaVuSans-68"/>
       <use x="77.001953" xlink:href="#DejaVuSans-97"/>
       <use x="138.28125" xlink:href="#DejaVuSans-121"/>
       <use x="197.460938" xlink:href="#DejaVuSans-32"/>
       <use x="229.248047" xlink:href="#DejaVuSans-48"/>
       <use x="292.871094" xlink:href="#DejaVuSans-50"/>
      </g>
     </g>
    </g>
    <g id="xtick_20">
     <g id="line2d_51">
      <g>
       <use style="stroke:#000000;stroke-width:0.6;" x="664.364416" xlink:href="#maa0dc42f4f" y="1040.62"/>
      </g>
     </g>
     <g id="text_53">
      <!-- 04 -->
      <g transform="translate(658.001916 1053.618438)scale(0.1 -0.1)">
       <use xlink:href="#DejaVuSans-48"/>
       <use x="63.623047" xlink:href="#DejaVuSans-52"/>
      </g>
     </g>
    </g>
    <g id="xtick_21">
     <g id="line2d_52">
      <g>
       <use style="stroke:#000000;stroke-width:0.6;" x="741.764612" xlink:href="#maa0dc42f4f" y="1040.62"/>
      </g>
     </g>
     <g id="text_54">
      <!-- 08 -->
      <g transform="translate(735.402112 1053.618438)scale(0.1 -0.1)">
       <use xlink:href="#DejaVuSans-48"/>
       <use x="63.623047" xlink:href="#DejaVuSans-56"/>
      </g>
     </g>
    </g>
    <g id="xtick_22">
     <g id="line2d_53">
      <g>
       <use style="stroke:#000000;stroke-width:0.6;" x="819.164809" xlink:href="#maa0dc42f4f" y="1040.62"/>
      </g>
     </g>
     <g id="text_55">
      <!-- 12 -->
      <g transform="translate(812.802309 1053.618438)scale(0.1 -0.1)">
       <use xlink:href="#DejaVuSans-49"/>
       <use x="63.623047" xlink:href="#DejaVuSans-50"/>
      </g>
     </g>
    </g>
    <g id="xtick_23">
     <g id="line2d_54">
      <g>
       <use style="stroke:#000000;stroke-width:0.6;" x="896.565005" xlink:href="#maa0dc42f4f" y="1040.62"/>
      </g>
     </g>
     <g id="text_56">
      <!-- 16 -->
      <g transform="translate(890.202505 1053.618438)scale(0.1 -0.1)">
       <use xlink:href="#DejaVuSans-49"/>
       <use x="63.623047" xlink:href="#DejaVuSans-54"/>
      </g>
     </g>
    </g>
    <g id="xtick_24">
     <g id="line2d_55">
      <g>
       <use style="stroke:#000000;stroke-width:0.6;" x="973.965201" xlink:href="#maa0dc42f4f" y="1040.62"/>
      </g>
     </g>
     <g id="text_57">
      <!-- 20 -->
      <g transform="translate(967.602701 1053.618438)scale(0.1 -0.1)">
       <use xlink:href="#DejaVuSans-50"/>
       <use x="63.623047" xlink:href="#DejaVuSans-48"/>
      </g>
     </g>
    </g>
   </g>
   <g id="matplotlib.axis_8">
    <g id="ytick_23">
     <g id="line2d_56">
      <g>
       <use style="stroke:#000000;stroke-width:0.8;" x="587.045" xlink:href="#ma601fbc301" y="981.291925"/>
      </g>
     </g>
     <g id="text_58">
      <!-- 2.5 -->
      <defs>
       <path d="M 10.6875 12.40625 
L 21 12.40625 
L 21 0 
L 10.6875 0 
z
" id="DejaVuSans-46"/>
      </defs>
      <g transform="translate(564.141875 985.091144)scale(0.1 -0.1)">
       <use xlink:href="#DejaVuSans-50"/>
       <use x="63.623047" xlink:href="#DejaVuSans-46"/>
       <use x="95.410156" xlink:href="#DejaVuSans-53"/>
      </g>
     </g>
    </g>
    <g id="ytick_24">
     <g id="line2d_57">
      <g>
       <use style="stroke:#000000;stroke-width:0.8;" x="587.045" xlink:href="#ma601fbc301" y="918.176952"/>
      </g>
     </g>
     <g id="text_59">
      <!-- 5.0 -->
      <g transform="translate(564.141875 921.976171)scale(0.1 -0.1)">
       <use xlink:href="#DejaVuSans-53"/>
       <use x="63.623047" xlink:href="#DejaVuSans-46"/>
       <use x="95.410156" xlink:href="#DejaVuSans-48"/>
      </g>
     </g>
    </g>
    <g id="ytick_25">
     <g id="line2d_58">
      <g>
       <use style="stroke:#000000;stroke-width:0.8;" x="587.045" xlink:href="#ma601fbc301" y="855.061979"/>
      </g>
     </g>
     <g id="text_60">
      <!-- 7.5 -->
      <defs>
       <path d="M 8.203125 72.90625 
L 55.078125 72.90625 
L 55.078125 68.703125 
L 28.609375 0 
L 18.3125 0 
L 43.21875 64.59375 
L 8.203125 64.59375 
z
" id="DejaVuSans-55"/>
      </defs>
      <g transform="translate(564.141875 858.861197)scale(0.1 -0.1)">
       <use xlink:href="#DejaVuSans-55"/>
       <use x="63.623047" xlink:href="#DejaVuSans-46"/>
       <use x="95.410156" xlink:href="#DejaVuSans-53"/>
      </g>
     </g>
    </g>
    <g id="ytick_26">
     <g id="line2d_59">
      <g>
       <use style="stroke:#000000;stroke-width:0.8;" x="587.045" xlink:href="#ma601fbc301" y="791.947005"/>
      </g>
     </g>
     <g id="text_61">
      <!-- 10.0 -->
      <g transform="translate(557.779375 795.746224)scale(0.1 -0.1)">
       <use xlink:href="#DejaVuSans-49"/>
       <use x="63.623047" xlink:href="#DejaVuSans-48"/>
       <use x="127.246094" xlink:href="#DejaVuSans-46"/>
       <use x="159.033203" xlink:href="#DejaVuSans-48"/>
      </g>
     </g>
    </g>
    <g id="ytick_27">
     <g id="line2d_60">
      <g>
       <use style="stroke:#000000;stroke-width:0.8;" x="587.045" xlink:href="#ma601fbc301" y="728.832032"/>
      </g>
     </g>
     <g id="text_62">
      <!-- 12.5 -->
      <g transform="translate(557.779375 732.631251)scale(0.1 -0.1)">
       <use xlink:href="#DejaVuSans-49"/>
       <use x="63.623047" xlink:href="#DejaVuSans-50"/>
       <use x="127.246094" xlink:href="#DejaVuSans-46"/>
       <use x="159.033203" xlink:href="#DejaVuSans-53"/>
      </g>
     </g>
    </g>
    <g id="ytick_28">
     <g id="line2d_61">
      <g>
       <use style="stroke:#000000;stroke-width:0.8;" x="587.045" xlink:href="#ma601fbc301" y="665.717059"/>
      </g>
     </g>
     <g id="text_63">
      <!-- 15.0 -->
      <g transform="translate(557.779375 669.516278)scale(0.1 -0.1)">
       <use xlink:href="#DejaVuSans-49"/>
       <use x="63.623047" xlink:href="#DejaVuSans-53"/>
       <use x="127.246094" xlink:href="#DejaVuSans-46"/>
       <use x="159.033203" xlink:href="#DejaVuSans-48"/>
      </g>
     </g>
    </g>
    <g id="ytick_29">
     <g id="line2d_62">
      <g>
       <use style="stroke:#000000;stroke-width:0.8;" x="587.045" xlink:href="#ma601fbc301" y="602.602086"/>
      </g>
     </g>
     <g id="text_64">
      <!-- 17.5 -->
      <g transform="translate(557.779375 606.401304)scale(0.1 -0.1)">
       <use xlink:href="#DejaVuSans-49"/>
       <use x="63.623047" xlink:href="#DejaVuSans-55"/>
       <use x="127.246094" xlink:href="#DejaVuSans-46"/>
       <use x="159.033203" xlink:href="#DejaVuSans-53"/>
      </g>
     </g>
    </g>
    <g id="text_65">
     <!-- number of replicas -->
     <g transform="translate(551.699688 851.5825)rotate(-90)scale(0.1 -0.1)">
      <use xlink:href="#DejaVuSans-110"/>
      <use x="63.378906" xlink:href="#DejaVuSans-117"/>
      <use x="126.757812" xlink:href="#DejaVuSans-109"/>
      <use x="224.169922" xlink:href="#DejaVuSans-98"/>
      <use x="287.646484" xlink:href="#DejaVuSans-101"/>
      <use x="349.169922" xlink:href="#DejaVuSans-114"/>
      <use x="390.283203" xlink:href="#DejaVuSans-32"/>
      <use x="422.070312" xlink:href="#DejaVuSans-111"/>
      <use x="483.251953" xlink:href="#DejaVuSans-102"/>
      <use x="518.457031" xlink:href="#DejaVuSans-32"/>
      <use x="550.244141" xlink:href="#DejaVuSans-114"/>
      <use x="591.326172" xlink:href="#DejaVuSans-101"/>
      <use x="652.849609" xlink:href="#DejaVuSans-112"/>
      <use x="716.326172" xlink:href="#DejaVuSans-108"/>
      <use x="744.109375" xlink:href="#DejaVuSans-105"/>
      <use x="771.892578" xlink:href="#DejaVuSans-99"/>
      <use x="826.873047" xlink:href="#DejaVuSans-97"/>
      <use x="888.152344" xlink:href="#DejaVuSans-115"/>
     </g>
    </g>
   </g>
   <g id="line2d_63">
    <path clip-path="url(#pe808bb909f)" d="M 587.044995 1019.160909 
L 587.206398 1019.160909 
L 587.367786 918.176952 
L 626.266139 918.176952 
L 626.427495 892.930963 
L 628.767765 892.930963 
L 628.929141 918.176952 
L 682.919969 918.176952 
L 683.081386 943.422941 
L 683.968969 943.422941 
L 684.130327 918.176952 
L 732.22848 918.176952 
L 732.389889 943.422941 
L 732.631933 943.422941 
L 732.793291 918.176952 
L 747.802694 918.176952 
L 747.964067 943.422941 
L 748.448233 943.422941 
L 748.609614 892.930963 
L 750.384961 892.930963 
L 750.546337 918.176952 
L 771.047083 918.176952 
L 771.208438 842.438984 
L 821.649502 842.438984 
L 821.810879 817.192995 
L 823.909291 817.192995 
L 824.070651 842.438984 
L 830.688479 842.438984 
L 830.849877 892.930963 
L 832.302423 892.930963 
L 832.463846 918.176952 
L 841.906364 918.176952 
L 842.067757 943.422941 
L 842.310029 943.422941 
L 842.471395 918.176952 
L 879.032135 918.176952 
L 879.193535 892.930963 
L 881.937717 892.930963 
L 882.099096 918.176952 
L 887.103352 918.176952 
L 887.264926 716.209037 
L 927.379291 716.209037 
L 927.540697 918.176952 
L 947.069636 918.176952 
L 947.23114 943.422941 
L 947.473205 943.422941 
L 947.634572 918.176952 
L 988.062114 918.176952 
L 988.223484 892.930963 
L 990.240807 892.930963 
L 990.402187 918.176952 
L 1035.839349 918.176952 
L 1036.000721 943.422941 
L 1036.162104 943.422941 
L 1036.32383 892.930963 
L 1038.099174 892.930963 
L 1038.260535 918.176952 
L 1043.425162 918.176952 
L 1043.586588 943.422941 
L 1044.151362 943.422941 
L 1044.312734 918.176952 
L 1051.494322 918.176952 
L 1051.494322 918.176952 
" style="fill:none;stroke:#800080;stroke-linecap:square;stroke-width:1.5;"/>
   </g>
   <g id="patch_21">
    <path d="M 587.045 1040.62 
L 587.045 568.52 
" style="fill:none;stroke:#000000;stroke-linecap:square;stroke-linejoin:miter;stroke-width:0.8;"/>
   </g>
   <g id="patch_22">
    <path d="M 1051.446178 1040.62 
L 1051.446178 568.52 
" style="fill:none;stroke:#000000;stroke-linecap:square;stroke-linejoin:miter;stroke-width:0.8;"/>
   </g>
   <g id="patch_23">
    <path d="M 587.045 1040.62 
L 1051.446178 1040.62 
" style="fill:none;stroke:#000000;stroke-linecap:square;stroke-linejoin:miter;stroke-width:0.8;"/>
   </g>
   <g id="patch_24">
    <path d="M 587.045 568.52 
L 1051.446178 568.52 
" style="fill:none;stroke:#000000;stroke-linecap:square;stroke-linejoin:miter;stroke-width:0.8;"/>
   </g>
   <g id="text_66">
    <!-- number of replicas for phpa over time -->
    <g transform="translate(704.919339 562.52)scale(0.12 -0.12)">
     <use xlink:href="#DejaVuSans-110"/>
     <use x="63.378906" xlink:href="#DejaVuSans-117"/>
     <use x="126.757812" xlink:href="#DejaVuSans-109"/>
     <use x="224.169922" xlink:href="#DejaVuSans-98"/>
     <use x="287.646484" xlink:href="#DejaVuSans-101"/>
     <use x="349.169922" xlink:href="#DejaVuSans-114"/>
     <use x="390.283203" xlink:href="#DejaVuSans-32"/>
     <use x="422.070312" xlink:href="#DejaVuSans-111"/>
     <use x="483.251953" xlink:href="#DejaVuSans-102"/>
     <use x="518.457031" xlink:href="#DejaVuSans-32"/>
     <use x="550.244141" xlink:href="#DejaVuSans-114"/>
     <use x="591.326172" xlink:href="#DejaVuSans-101"/>
     <use x="652.849609" xlink:href="#DejaVuSans-112"/>
     <use x="716.326172" xlink:href="#DejaVuSans-108"/>
     <use x="744.109375" xlink:href="#DejaVuSans-105"/>
     <use x="771.892578" xlink:href="#DejaVuSans-99"/>
     <use x="826.873047" xlink:href="#DejaVuSans-97"/>
     <use x="888.152344" xlink:href="#DejaVuSans-115"/>
     <use x="940.251953" xlink:href="#DejaVuSans-32"/>
     <use x="972.039062" xlink:href="#DejaVuSans-102"/>
     <use x="1007.244141" xlink:href="#DejaVuSans-111"/>
     <use x="1068.425781" xlink:href="#DejaVuSans-114"/>
     <use x="1109.539062" xlink:href="#DejaVuSans-32"/>
     <use x="1141.326172" xlink:href="#DejaVuSans-112"/>
     <use x="1204.802734" xlink:href="#DejaVuSans-104"/>
     <use x="1268.181641" xlink:href="#DejaVuSans-112"/>
     <use x="1331.658203" xlink:href="#DejaVuSans-97"/>
     <use x="1392.9375" xlink:href="#DejaVuSans-32"/>
     <use x="1424.724609" xlink:href="#DejaVuSans-111"/>
     <use x="1485.90625" xlink:href="#DejaVuSans-118"/>
     <use x="1545.085938" xlink:href="#DejaVuSans-101"/>
     <use x="1606.609375" xlink:href="#DejaVuSans-114"/>
     <use x="1647.722656" xlink:href="#DejaVuSans-32"/>
     <use x="1679.509766" xlink:href="#DejaVuSans-116"/>
     <use x="1718.71875" xlink:href="#DejaVuSans-105"/>
     <use x="1746.501953" xlink:href="#DejaVuSans-109"/>
     <use x="1843.914062" xlink:href="#DejaVuSans-101"/>
    </g>
   </g>
   <g id="legend_4">
    <g id="patch_25">
     <path d="M 890.080553 591.198125 
L 1044.446178 591.198125 
Q 1046.446178 591.198125 1046.446178 589.198125 
L 1046.446178 575.52 
Q 1046.446178 573.52 1044.446178 573.52 
L 890.080553 573.52 
Q 888.080553 573.52 888.080553 575.52 
L 888.080553 589.198125 
Q 888.080553 591.198125 890.080553 591.198125 
z
" style="fill:#ffffff;opacity:0.8;stroke:#cccccc;stroke-linejoin:miter;"/>
    </g>
    <g id="line2d_64">
     <path d="M 892.080553 581.618438 
L 912.080553 581.618438 
" style="fill:none;stroke:#800080;stroke-linecap:square;stroke-width:1.5;"/>
    </g>
    <g id="line2d_65"/>
    <g id="text_67">
     <!-- phpa number of replicas -->
     <g transform="translate(920.080553 585.118438)scale(0.1 -0.1)">
      <use xlink:href="#DejaVuSans-112"/>
      <use x="63.476562" xlink:href="#DejaVuSans-104"/>
      <use x="126.855469" xlink:href="#DejaVuSans-112"/>
      <use x="190.332031" xlink:href="#DejaVuSans-97"/>
      <use x="251.611328" xlink:href="#DejaVuSans-32"/>
      <use x="283.398438" xlink:href="#DejaVuSans-110"/>
      <use x="346.777344" xlink:href="#DejaVuSans-117"/>
      <use x="410.15625" xlink:href="#DejaVuSans-109"/>
      <use x="507.568359" xlink:href="#DejaVuSans-98"/>
      <use x="571.044922" xlink:href="#DejaVuSans-101"/>
      <use x="632.568359" xlink:href="#DejaVuSans-114"/>
      <use x="673.681641" xlink:href="#DejaVuSans-32"/>
      <use x="705.46875" xlink:href="#DejaVuSans-111"/>
      <use x="766.650391" xlink:href="#DejaVuSans-102"/>
      <use x="801.855469" xlink:href="#DejaVuSans-32"/>
      <use x="833.642578" xlink:href="#DejaVuSans-114"/>
      <use x="874.724609" xlink:href="#DejaVuSans-101"/>
      <use x="936.248047" xlink:href="#DejaVuSans-112"/>
      <use x="999.724609" xlink:href="#DejaVuSans-108"/>
      <use x="1027.507812" xlink:href="#DejaVuSans-105"/>
      <use x="1055.291016" xlink:href="#DejaVuSans-99"/>
      <use x="1110.271484" xlink:href="#DejaVuSans-97"/>
      <use x="1171.550781" xlink:href="#DejaVuSans-115"/>
     </g>
    </g>
   </g>
  </g>
 </g>
 <defs>
  <clipPath id="pacc0925b39">
   <rect height="472.1" width="464.401178" x="50.87" y="26.88"/>
  </clipPath>
  <clipPath id="p57f6814e9f">
   <rect height="472.1" width="464.401178" x="587.045" y="26.88"/>
  </clipPath>
  <clipPath id="p6dd3bd31b1">
   <rect height="472.1" width="464.401178" x="50.87" y="568.52"/>
  </clipPath>
  <clipPath id="pe808bb909f">
   <rect height="472.1" width="464.401178" x="587.045" y="568.52"/>
  </clipPath>
 </defs>
</svg>
