<?xml version="1.0" encoding="utf-8" standalone="no"?>
<!DOCTYPE svg PUBLIC "-//W3C//DTD SVG 1.1//EN"
  "http://www.w3.org/Graphics/SVG/1.1/DTD/svg11.dtd">
<!-- Created with matplotlib (https://matplotlib.org/) -->
<svg height="1080pt" version="1.1" viewBox="0 0 1080 1080" width="1080pt" xmlns="http://www.w3.org/2000/svg" xmlns:xlink="http://www.w3.org/1999/xlink">
 <defs>
  <style type="text/css">
*{stroke-linecap:butt;stroke-linejoin:round;}
  </style>
 </defs>
 <g id="figure_1">
  <g id="patch_1">
   <path d="M 0 1080 
L 1080 1080 
L 1080 0 
L 0 0 
z
" style="fill:#ffffff;"/>
  </g>
  <g id="axes_1">
   <g id="patch_2">
    <path d="M 57.17 498.98 
L 517.473599 498.98 
L 517.473599 26.88 
L 57.17 26.88 
z
" style="fill:#ffffff;"/>
   </g>
   <g id="matplotlib.axis_1">
    <g id="xtick_1">
     <g id="line2d_1">
      <defs>
       <path d="M 0 0 
L 0 3.5 
" id="macd1ccbaa3" style="stroke:#000000;stroke-width:0.8;"/>
      </defs>
      <g>
       <use style="stroke:#000000;stroke-width:0.8;" x="515.875321" xlink:href="#macd1ccbaa3" y="498.98"/>
      </g>
     </g>
     <g id="text_1">
      <!-- Day 02 -->
      <defs>
       <path d="M 19.671875 64.796875 
L 19.671875 8.109375 
L 31.59375 8.109375 
Q 46.6875 8.109375 53.6875 14.9375 
Q 60.6875 21.78125 60.6875 36.53125 
Q 60.6875 51.171875 53.6875 57.984375 
Q 46.6875 64.796875 31.59375 64.796875 
z
M 9.8125 72.90625 
L 30.078125 72.90625 
Q 51.265625 72.90625 61.171875 64.09375 
Q 71.09375 55.28125 71.09375 36.53125 
Q 71.09375 17.671875 61.125 8.828125 
Q 51.171875 0 30.078125 0 
L 9.8125 0 
z
" id="DejaVuSans-68"/>
       <path d="M 34.28125 27.484375 
Q 23.390625 27.484375 19.1875 25 
Q 14.984375 22.515625 14.984375 16.5 
Q 14.984375 11.71875 18.140625 8.90625 
Q 21.296875 6.109375 26.703125 6.109375 
Q 34.1875 6.109375 38.703125 11.40625 
Q 43.21875 16.703125 43.21875 25.484375 
L 43.21875 27.484375 
z
M 52.203125 31.203125 
L 52.203125 0 
L 43.21875 0 
L 43.21875 8.296875 
Q 40.140625 3.328125 35.546875 0.953125 
Q 30.953125 -1.421875 24.3125 -1.421875 
Q 15.921875 -1.421875 10.953125 3.296875 
Q 6 8.015625 6 15.921875 
Q 6 25.140625 12.171875 29.828125 
Q 18.359375 34.515625 30.609375 34.515625 
L 43.21875 34.515625 
L 43.21875 35.40625 
Q 43.21875 41.609375 39.140625 45 
Q 35.0625 48.390625 27.6875 48.390625 
Q 23 48.390625 18.546875 47.265625 
Q 14.109375 46.140625 10.015625 43.890625 
L 10.015625 52.203125 
Q 14.9375 54.109375 19.578125 55.046875 
Q 24.21875 56 28.609375 56 
Q 40.484375 56 46.34375 49.84375 
Q 52.203125 43.703125 52.203125 31.203125 
z
" id="DejaVuSans-97"/>
       <path d="M 32.171875 -5.078125 
Q 28.375 -14.84375 24.75 -17.8125 
Q 21.140625 -20.796875 15.09375 -20.796875 
L 7.90625 -20.796875 
L 7.90625 -13.28125 
L 13.1875 -13.28125 
Q 16.890625 -13.28125 18.9375 -11.515625 
Q 21 -9.765625 23.484375 -3.21875 
L 25.09375 0.875 
L 2.984375 54.6875 
L 12.5 54.6875 
L 29.59375 11.921875 
L 46.6875 54.6875 
L 56.203125 54.6875 
z
" id="DejaVuSans-121"/>
       <path id="DejaVuSans-32"/>
       <path d="M 31.78125 66.40625 
Q 24.171875 66.40625 20.328125 58.90625 
Q 16.5 51.421875 16.5 36.375 
Q 16.5 21.390625 20.328125 13.890625 
Q 24.171875 6.390625 31.78125 6.390625 
Q 39.453125 6.390625 43.28125 13.890625 
Q 47.125 21.390625 47.125 36.375 
Q 47.125 51.421875 43.28125 58.90625 
Q 39.453125 66.40625 31.78125 66.40625 
z
M 31.78125 74.21875 
Q 44.046875 74.21875 50.515625 64.515625 
Q 56.984375 54.828125 56.984375 36.375 
Q 56.984375 17.96875 50.515625 8.265625 
Q 44.046875 -1.421875 31.78125 -1.421875 
Q 19.53125 -1.421875 13.0625 8.265625 
Q 6.59375 17.96875 6.59375 36.375 
Q 6.59375 54.828125 13.0625 64.515625 
Q 19.53125 74.21875 31.78125 74.21875 
z
" id="DejaVuSans-48"/>
       <path d="M 19.1875 8.296875 
L 53.609375 8.296875 
L 53.609375 0 
L 7.328125 0 
L 7.328125 8.296875 
Q 12.9375 14.109375 22.625 23.890625 
Q 32.328125 33.6875 34.8125 36.53125 
Q 39.546875 41.84375 41.421875 45.53125 
Q 43.3125 49.21875 43.3125 52.78125 
Q 43.3125 58.59375 39.234375 62.25 
Q 35.15625 65.921875 28.609375 65.921875 
Q 23.96875 65.921875 18.8125 64.3125 
Q 13.671875 62.703125 7.8125 59.421875 
L 7.8125 69.390625 
Q 13.765625 71.78125 18.9375 73 
Q 24.125 74.21875 28.421875 74.21875 
Q 39.75 74.21875 46.484375 68.546875 
Q 53.21875 62.890625 53.21875 53.421875 
Q 53.21875 48.921875 51.53125 44.890625 
Q 49.859375 40.875 45.40625 35.40625 
Q 44.1875 33.984375 37.640625 27.21875 
Q 31.109375 20.453125 19.1875 8.296875 
z
" id="DejaVuSans-50"/>
      </defs>
      <g transform="translate(498.050321 525.078438)scale(0.1 -0.1)">
       <use xlink:href="#DejaVuSans-68"/>
       <use x="77.001953" xlink:href="#DejaVuSans-97"/>
       <use x="138.28125" xlink:href="#DejaVuSans-121"/>
       <use x="197.460938" xlink:href="#DejaVuSans-32"/>
       <use x="229.248047" xlink:href="#DejaVuSans-48"/>
       <use x="292.871094" xlink:href="#DejaVuSans-50"/>
      </g>
     </g>
    </g>
    <g id="xtick_2">
     <g id="line2d_2">
      <defs>
       <path d="M 0 0 
L 0 2 
" id="me965b576fe" style="stroke:#000000;stroke-width:0.6;"/>
      </defs>
      <g>
       <use style="stroke:#000000;stroke-width:0.6;" x="132.288989" xlink:href="#me965b576fe" y="498.98"/>
      </g>
     </g>
     <g id="text_2">
      <!-- 04 -->
      <defs>
       <path d="M 37.796875 64.3125 
L 12.890625 25.390625 
L 37.796875 25.390625 
z
M 35.203125 72.90625 
L 47.609375 72.90625 
L 47.609375 25.390625 
L 58.015625 25.390625 
L 58.015625 17.1875 
L 47.609375 17.1875 
L 47.609375 0 
L 37.796875 0 
L 37.796875 17.1875 
L 4.890625 17.1875 
L 4.890625 26.703125 
z
" id="DejaVuSans-52"/>
      </defs>
      <g transform="translate(125.926489 511.978438)scale(0.1 -0.1)">
       <use xlink:href="#DejaVuSans-48"/>
       <use x="63.623047" xlink:href="#DejaVuSans-52"/>
      </g>
     </g>
    </g>
    <g id="xtick_3">
     <g id="line2d_3">
      <g>
       <use style="stroke:#000000;stroke-width:0.6;" x="209.006255" xlink:href="#me965b576fe" y="498.98"/>
      </g>
     </g>
     <g id="text_3">
      <!-- 08 -->
      <defs>
       <path d="M 31.78125 34.625 
Q 24.75 34.625 20.71875 30.859375 
Q 16.703125 27.09375 16.703125 20.515625 
Q 16.703125 13.921875 20.71875 10.15625 
Q 24.75 6.390625 31.78125 6.390625 
Q 38.8125 6.390625 42.859375 10.171875 
Q 46.921875 13.96875 46.921875 20.515625 
Q 46.921875 27.09375 42.890625 30.859375 
Q 38.875 34.625 31.78125 34.625 
z
M 21.921875 38.8125 
Q 15.578125 40.375 12.03125 44.71875 
Q 8.5 49.078125 8.5 55.328125 
Q 8.5 64.0625 14.71875 69.140625 
Q 20.953125 74.21875 31.78125 74.21875 
Q 42.671875 74.21875 48.875 69.140625 
Q 55.078125 64.0625 55.078125 55.328125 
Q 55.078125 49.078125 51.53125 44.71875 
Q 48 40.375 41.703125 38.8125 
Q 48.828125 37.15625 52.796875 32.3125 
Q 56.78125 27.484375 56.78125 20.515625 
Q 56.78125 9.90625 50.3125 4.234375 
Q 43.84375 -1.421875 31.78125 -1.421875 
Q 19.734375 -1.421875 13.25 4.234375 
Q 6.78125 9.90625 6.78125 20.515625 
Q 6.78125 27.484375 10.78125 32.3125 
Q 14.796875 37.15625 21.921875 38.8125 
z
M 18.3125 54.390625 
Q 18.3125 48.734375 21.84375 45.5625 
Q 25.390625 42.390625 31.78125 42.390625 
Q 38.140625 42.390625 41.71875 45.5625 
Q 45.3125 48.734375 45.3125 54.390625 
Q 45.3125 60.0625 41.71875 63.234375 
Q 38.140625 66.40625 31.78125 66.40625 
Q 25.390625 66.40625 21.84375 63.234375 
Q 18.3125 60.0625 18.3125 54.390625 
z
" id="DejaVuSans-56"/>
      </defs>
      <g transform="translate(202.643755 511.978438)scale(0.1 -0.1)">
       <use xlink:href="#DejaVuSans-48"/>
       <use x="63.623047" xlink:href="#DejaVuSans-56"/>
      </g>
     </g>
    </g>
    <g id="xtick_4">
     <g id="line2d_4">
      <g>
       <use style="stroke:#000000;stroke-width:0.6;" x="285.723522" xlink:href="#me965b576fe" y="498.98"/>
      </g>
     </g>
     <g id="text_4">
      <!-- 12 -->
      <defs>
       <path d="M 12.40625 8.296875 
L 28.515625 8.296875 
L 28.515625 63.921875 
L 10.984375 60.40625 
L 10.984375 69.390625 
L 28.421875 72.90625 
L 38.28125 72.90625 
L 38.28125 8.296875 
L 54.390625 8.296875 
L 54.390625 0 
L 12.40625 0 
z
" id="DejaVuSans-49"/>
      </defs>
      <g transform="translate(279.361022 511.978438)scale(0.1 -0.1)">
       <use xlink:href="#DejaVuSans-49"/>
       <use x="63.623047" xlink:href="#DejaVuSans-50"/>
      </g>
     </g>
    </g>
    <g id="xtick_5">
     <g id="line2d_5">
      <g>
       <use style="stroke:#000000;stroke-width:0.6;" x="362.440788" xlink:href="#me965b576fe" y="498.98"/>
      </g>
     </g>
     <g id="text_5">
      <!-- 16 -->
      <defs>
       <path d="M 33.015625 40.375 
Q 26.375 40.375 22.484375 35.828125 
Q 18.609375 31.296875 18.609375 23.390625 
Q 18.609375 15.53125 22.484375 10.953125 
Q 26.375 6.390625 33.015625 6.390625 
Q 39.65625 6.390625 43.53125 10.953125 
Q 47.40625 15.53125 47.40625 23.390625 
Q 47.40625 31.296875 43.53125 35.828125 
Q 39.65625 40.375 33.015625 40.375 
z
M 52.59375 71.296875 
L 52.59375 62.3125 
Q 48.875 64.0625 45.09375 64.984375 
Q 41.3125 65.921875 37.59375 65.921875 
Q 27.828125 65.921875 22.671875 59.328125 
Q 17.53125 52.734375 16.796875 39.40625 
Q 19.671875 43.65625 24.015625 45.921875 
Q 28.375 48.1875 33.59375 48.1875 
Q 44.578125 48.1875 50.953125 41.515625 
Q 57.328125 34.859375 57.328125 23.390625 
Q 57.328125 12.15625 50.6875 5.359375 
Q 44.046875 -1.421875 33.015625 -1.421875 
Q 20.359375 -1.421875 13.671875 8.265625 
Q 6.984375 17.96875 6.984375 36.375 
Q 6.984375 53.65625 15.1875 63.9375 
Q 23.390625 74.21875 37.203125 74.21875 
Q 40.921875 74.21875 44.703125 73.484375 
Q 48.484375 72.75 52.59375 71.296875 
z
" id="DejaVuSans-54"/>
      </defs>
      <g transform="translate(356.078288 511.978438)scale(0.1 -0.1)">
       <use xlink:href="#DejaVuSans-49"/>
       <use x="63.623047" xlink:href="#DejaVuSans-54"/>
      </g>
     </g>
    </g>
    <g id="xtick_6">
     <g id="line2d_6">
      <g>
       <use style="stroke:#000000;stroke-width:0.6;" x="439.158055" xlink:href="#me965b576fe" y="498.98"/>
      </g>
     </g>
     <g id="text_6">
      <!-- 20 -->
      <g transform="translate(432.795555 511.978438)scale(0.1 -0.1)">
       <use xlink:href="#DejaVuSans-50"/>
       <use x="63.623047" xlink:href="#DejaVuSans-48"/>
      </g>
     </g>
    </g>
    <g id="text_7">
     <!-- time -->
     <defs>
      <path d="M 18.3125 70.21875 
L 18.3125 54.6875 
L 36.8125 54.6875 
L 36.8125 47.703125 
L 18.3125 47.703125 
L 18.3125 18.015625 
Q 18.3125 11.328125 20.140625 9.421875 
Q 21.96875 7.515625 27.59375 7.515625 
L 36.8125 7.515625 
L 36.8125 0 
L 27.59375 0 
Q 17.1875 0 13.234375 3.875 
Q 9.28125 7.765625 9.28125 18.015625 
L 9.28125 47.703125 
L 2.6875 47.703125 
L 2.6875 54.6875 
L 9.28125 54.6875 
L 9.28125 70.21875 
z
" id="DejaVuSans-116"/>
      <path d="M 9.421875 54.6875 
L 18.40625 54.6875 
L 18.40625 0 
L 9.421875 0 
z
M 9.421875 75.984375 
L 18.40625 75.984375 
L 18.40625 64.59375 
L 9.421875 64.59375 
z
" id="DejaVuSans-105"/>
      <path d="M 52 44.1875 
Q 55.375 50.25 60.0625 53.125 
Q 64.75 56 71.09375 56 
Q 79.640625 56 84.28125 50.015625 
Q 88.921875 44.046875 88.921875 33.015625 
L 88.921875 0 
L 79.890625 0 
L 79.890625 32.71875 
Q 79.890625 40.578125 77.09375 44.375 
Q 74.3125 48.1875 68.609375 48.1875 
Q 61.625 48.1875 57.5625 43.546875 
Q 53.515625 38.921875 53.515625 30.90625 
L 53.515625 0 
L 44.484375 0 
L 44.484375 32.71875 
Q 44.484375 40.625 41.703125 44.40625 
Q 38.921875 48.1875 33.109375 48.1875 
Q 26.21875 48.1875 22.15625 43.53125 
Q 18.109375 38.875 18.109375 30.90625 
L 18.109375 0 
L 9.078125 0 
L 9.078125 54.6875 
L 18.109375 54.6875 
L 18.109375 46.1875 
Q 21.1875 51.21875 25.484375 53.609375 
Q 29.78125 56 35.6875 56 
Q 41.65625 56 45.828125 52.96875 
Q 50 49.953125 52 44.1875 
z
" id="DejaVuSans-109"/>
      <path d="M 56.203125 29.59375 
L 56.203125 25.203125 
L 14.890625 25.203125 
Q 15.484375 15.921875 20.484375 11.0625 
Q 25.484375 6.203125 34.421875 6.203125 
Q 39.59375 6.203125 44.453125 7.46875 
Q 49.3125 8.734375 54.109375 11.28125 
L 54.109375 2.78125 
Q 49.265625 0.734375 44.1875 -0.34375 
Q 39.109375 -1.421875 33.890625 -1.421875 
Q 20.796875 -1.421875 13.15625 6.1875 
Q 5.515625 13.8125 5.515625 26.8125 
Q 5.515625 40.234375 12.765625 48.109375 
Q 20.015625 56 32.328125 56 
Q 43.359375 56 49.78125 48.890625 
Q 56.203125 41.796875 56.203125 29.59375 
z
M 47.21875 32.234375 
Q 47.125 39.59375 43.09375 43.984375 
Q 39.0625 48.390625 32.421875 48.390625 
Q 24.90625 48.390625 20.390625 44.140625 
Q 15.875 39.890625 15.1875 32.171875 
z
" id="DejaVuSans-101"/>
     </defs>
     <g transform="translate(276.025706 538.756563)scale(0.1 -0.1)">
      <use xlink:href="#DejaVuSans-116"/>
      <use x="39.208984" xlink:href="#DejaVuSans-105"/>
      <use x="66.992188" xlink:href="#DejaVuSans-109"/>
      <use x="164.404297" xlink:href="#DejaVuSans-101"/>
     </g>
    </g>
   </g>
   <g id="matplotlib.axis_2">
    <g id="ytick_1">
     <g id="line2d_7">
      <defs>
       <path d="M 0 0 
L -3.5 0 
" id="m93d7b26e4f" style="stroke:#000000;stroke-width:0.8;"/>
      </defs>
      <g>
       <use style="stroke:#000000;stroke-width:0.8;" x="57.17" xlink:href="#m93d7b26e4f" y="498.98"/>
      </g>
     </g>
     <g id="text_8">
      <!-- 0 -->
      <g transform="translate(43.8075 502.779219)scale(0.1 -0.1)">
       <use xlink:href="#DejaVuSans-48"/>
      </g>
     </g>
    </g>
    <g id="ytick_2">
     <g id="line2d_8">
      <g>
       <use style="stroke:#000000;stroke-width:0.8;" x="57.17" xlink:href="#m93d7b26e4f" y="420.296667"/>
      </g>
     </g>
     <g id="text_9">
      <!-- 1000 -->
      <g transform="translate(24.72 424.095885)scale(0.1 -0.1)">
       <use xlink:href="#DejaVuSans-49"/>
       <use x="63.623047" xlink:href="#DejaVuSans-48"/>
       <use x="127.246094" xlink:href="#DejaVuSans-48"/>
       <use x="190.869141" xlink:href="#DejaVuSans-48"/>
      </g>
     </g>
    </g>
    <g id="ytick_3">
     <g id="line2d_9">
      <g>
       <use style="stroke:#000000;stroke-width:0.8;" x="57.17" xlink:href="#m93d7b26e4f" y="341.613333"/>
      </g>
     </g>
     <g id="text_10">
      <!-- 2000 -->
      <g transform="translate(24.72 345.412552)scale(0.1 -0.1)">
       <use xlink:href="#DejaVuSans-50"/>
       <use x="63.623047" xlink:href="#DejaVuSans-48"/>
       <use x="127.246094" xlink:href="#DejaVuSans-48"/>
       <use x="190.869141" xlink:href="#DejaVuSans-48"/>
      </g>
     </g>
    </g>
    <g id="ytick_4">
     <g id="line2d_10">
      <g>
       <use style="stroke:#000000;stroke-width:0.8;" x="57.17" xlink:href="#m93d7b26e4f" y="262.93"/>
      </g>
     </g>
     <g id="text_11">
      <!-- 3000 -->
      <defs>
       <path d="M 40.578125 39.3125 
Q 47.65625 37.796875 51.625 33 
Q 55.609375 28.21875 55.609375 21.1875 
Q 55.609375 10.40625 48.1875 4.484375 
Q 40.765625 -1.421875 27.09375 -1.421875 
Q 22.515625 -1.421875 17.65625 -0.515625 
Q 12.796875 0.390625 7.625 2.203125 
L 7.625 11.71875 
Q 11.71875 9.328125 16.59375 8.109375 
Q 21.484375 6.890625 26.8125 6.890625 
Q 36.078125 6.890625 40.9375 10.546875 
Q 45.796875 14.203125 45.796875 21.1875 
Q 45.796875 27.640625 41.28125 31.265625 
Q 36.765625 34.90625 28.71875 34.90625 
L 20.21875 34.90625 
L 20.21875 43.015625 
L 29.109375 43.015625 
Q 36.375 43.015625 40.234375 45.921875 
Q 44.09375 48.828125 44.09375 54.296875 
Q 44.09375 59.90625 40.109375 62.90625 
Q 36.140625 65.921875 28.71875 65.921875 
Q 24.65625 65.921875 20.015625 65.03125 
Q 15.375 64.15625 9.8125 62.3125 
L 9.8125 71.09375 
Q 15.4375 72.65625 20.34375 73.4375 
Q 25.25 74.21875 29.59375 74.21875 
Q 40.828125 74.21875 47.359375 69.109375 
Q 53.90625 64.015625 53.90625 55.328125 
Q 53.90625 49.265625 50.4375 45.09375 
Q 46.96875 40.921875 40.578125 39.3125 
z
" id="DejaVuSans-51"/>
      </defs>
      <g transform="translate(24.72 266.729219)scale(0.1 -0.1)">
       <use xlink:href="#DejaVuSans-51"/>
       <use x="63.623047" xlink:href="#DejaVuSans-48"/>
       <use x="127.246094" xlink:href="#DejaVuSans-48"/>
       <use x="190.869141" xlink:href="#DejaVuSans-48"/>
      </g>
     </g>
    </g>
    <g id="ytick_5">
     <g id="line2d_11">
      <g>
       <use style="stroke:#000000;stroke-width:0.8;" x="57.17" xlink:href="#m93d7b26e4f" y="184.246667"/>
      </g>
     </g>
     <g id="text_12">
      <!-- 4000 -->
      <g transform="translate(24.72 188.045885)scale(0.1 -0.1)">
       <use xlink:href="#DejaVuSans-52"/>
       <use x="63.623047" xlink:href="#DejaVuSans-48"/>
       <use x="127.246094" xlink:href="#DejaVuSans-48"/>
       <use x="190.869141" xlink:href="#DejaVuSans-48"/>
      </g>
     </g>
    </g>
    <g id="ytick_6">
     <g id="line2d_12">
      <g>
       <use style="stroke:#000000;stroke-width:0.8;" x="57.17" xlink:href="#m93d7b26e4f" y="105.563333"/>
      </g>
     </g>
     <g id="text_13">
      <!-- 5000 -->
      <defs>
       <path d="M 10.796875 72.90625 
L 49.515625 72.90625 
L 49.515625 64.59375 
L 19.828125 64.59375 
L 19.828125 46.734375 
Q 21.96875 47.46875 24.109375 47.828125 
Q 26.265625 48.1875 28.421875 48.1875 
Q 40.625 48.1875 47.75 41.5 
Q 54.890625 34.8125 54.890625 23.390625 
Q 54.890625 11.625 47.5625 5.09375 
Q 40.234375 -1.421875 26.90625 -1.421875 
Q 22.3125 -1.421875 17.546875 -0.640625 
Q 12.796875 0.140625 7.71875 1.703125 
L 7.71875 11.625 
Q 12.109375 9.234375 16.796875 8.0625 
Q 21.484375 6.890625 26.703125 6.890625 
Q 35.15625 6.890625 40.078125 11.328125 
Q 45.015625 15.765625 45.015625 23.390625 
Q 45.015625 31 40.078125 35.4375 
Q 35.15625 39.890625 26.703125 39.890625 
Q 22.75 39.890625 18.8125 39.015625 
Q 14.890625 38.140625 10.796875 36.28125 
z
" id="DejaVuSans-53"/>
      </defs>
      <g transform="translate(24.72 109.362552)scale(0.1 -0.1)">
       <use xlink:href="#DejaVuSans-53"/>
       <use x="63.623047" xlink:href="#DejaVuSans-48"/>
       <use x="127.246094" xlink:href="#DejaVuSans-48"/>
       <use x="190.869141" xlink:href="#DejaVuSans-48"/>
      </g>
     </g>
    </g>
    <g id="ytick_7">
     <g id="line2d_13">
      <g>
       <use style="stroke:#000000;stroke-width:0.8;" x="57.17" xlink:href="#m93d7b26e4f" y="26.88"/>
      </g>
     </g>
     <g id="text_14">
      <!-- 6000 -->
      <g transform="translate(24.72 30.679219)scale(0.1 -0.1)">
       <use xlink:href="#DejaVuSans-54"/>
       <use x="63.623047" xlink:href="#DejaVuSans-48"/>
       <use x="127.246094" xlink:href="#DejaVuSans-48"/>
       <use x="190.869141" xlink:href="#DejaVuSans-48"/>
      </g>
     </g>
    </g>
    <g id="text_15">
     <!-- maximum latency -->
     <defs>
      <path d="M 54.890625 54.6875 
L 35.109375 28.078125 
L 55.90625 0 
L 45.3125 0 
L 29.390625 21.484375 
L 13.484375 0 
L 2.875 0 
L 24.125 28.609375 
L 4.6875 54.6875 
L 15.28125 54.6875 
L 29.78125 35.203125 
L 44.28125 54.6875 
z
" id="DejaVuSans-120"/>
      <path d="M 8.5 21.578125 
L 8.5 54.6875 
L 17.484375 54.6875 
L 17.484375 21.921875 
Q 17.484375 14.15625 20.5 10.265625 
Q 23.53125 6.390625 29.59375 6.390625 
Q 36.859375 6.390625 41.078125 11.03125 
Q 45.3125 15.671875 45.3125 23.6875 
L 45.3125 54.6875 
L 54.296875 54.6875 
L 54.296875 0 
L 45.3125 0 
L 45.3125 8.40625 
Q 42.046875 3.421875 37.71875 1 
Q 33.40625 -1.421875 27.6875 -1.421875 
Q 18.265625 -1.421875 13.375 4.4375 
Q 8.5 10.296875 8.5 21.578125 
z
M 31.109375 56 
z
" id="DejaVuSans-117"/>
      <path d="M 9.421875 75.984375 
L 18.40625 75.984375 
L 18.40625 0 
L 9.421875 0 
z
" id="DejaVuSans-108"/>
      <path d="M 54.890625 33.015625 
L 54.890625 0 
L 45.90625 0 
L 45.90625 32.71875 
Q 45.90625 40.484375 42.875 44.328125 
Q 39.84375 48.1875 33.796875 48.1875 
Q 26.515625 48.1875 22.3125 43.546875 
Q 18.109375 38.921875 18.109375 30.90625 
L 18.109375 0 
L 9.078125 0 
L 9.078125 54.6875 
L 18.109375 54.6875 
L 18.109375 46.1875 
Q 21.34375 51.125 25.703125 53.5625 
Q 30.078125 56 35.796875 56 
Q 45.21875 56 50.046875 50.171875 
Q 54.890625 44.34375 54.890625 33.015625 
z
" id="DejaVuSans-110"/>
      <path d="M 48.78125 52.59375 
L 48.78125 44.1875 
Q 44.96875 46.296875 41.140625 47.34375 
Q 37.3125 48.390625 33.40625 48.390625 
Q 24.65625 48.390625 19.8125 42.84375 
Q 14.984375 37.3125 14.984375 27.296875 
Q 14.984375 17.28125 19.8125 11.734375 
Q 24.65625 6.203125 33.40625 6.203125 
Q 37.3125 6.203125 41.140625 7.25 
Q 44.96875 8.296875 48.78125 10.40625 
L 48.78125 2.09375 
Q 45.015625 0.34375 40.984375 -0.53125 
Q 36.96875 -1.421875 32.421875 -1.421875 
Q 20.0625 -1.421875 12.78125 6.34375 
Q 5.515625 14.109375 5.515625 27.296875 
Q 5.515625 40.671875 12.859375 48.328125 
Q 20.21875 56 33.015625 56 
Q 37.15625 56 41.109375 55.140625 
Q 45.0625 54.296875 48.78125 52.59375 
z
" id="DejaVuSans-99"/>
     </defs>
     <g transform="translate(18.640312 308.078438)rotate(-90)scale(0.1 -0.1)">
      <use xlink:href="#DejaVuSans-109"/>
      <use x="97.412109" xlink:href="#DejaVuSans-97"/>
      <use x="158.691406" xlink:href="#DejaVuSans-120"/>
      <use x="217.871094" xlink:href="#DejaVuSans-105"/>
      <use x="245.654297" xlink:href="#DejaVuSans-109"/>
      <use x="343.066406" xlink:href="#DejaVuSans-117"/>
      <use x="406.445312" xlink:href="#DejaVuSans-109"/>
      <use x="503.857422" xlink:href="#DejaVuSans-32"/>
      <use x="535.644531" xlink:href="#DejaVuSans-108"/>
      <use x="563.427734" xlink:href="#DejaVuSans-97"/>
      <use x="624.707031" xlink:href="#DejaVuSans-116"/>
      <use x="663.916016" xlink:href="#DejaVuSans-101"/>
      <use x="725.439453" xlink:href="#DejaVuSans-110"/>
      <use x="788.818359" xlink:href="#DejaVuSans-99"/>
      <use x="843.798828" xlink:href="#DejaVuSans-121"/>
     </g>
    </g>
   </g>
   <g id="line2d_14">
    <path clip-path="url(#p1c5f53dae7)" d="M 57.17 407.895166 
L 58.768287 395.979407 
L 60.366574 418.910729 
L 61.964866 394.380154 
L 63.563157 392.309323 
L 65.161445 361.170446 
L 66.759735 409.520626 
L 68.358023 422.848737 
L 69.956313 359.073914 
L 71.554601 401.114332 
L 73.15289 406.08907 
L 74.751176 388.406732 
L 76.349469 389.456818 
L 77.947756 410.437557 
L 79.546047 383.001631 
L 81.144335 412.783947 
L 82.742632 398.199546 
L 84.340922 418.694243 
L 85.939211 410.322129 
L 87.5375 409.528693 
L 89.13579 424.316523 
L 90.734093 394.975808 
L 92.332384 384.449476 
L 93.930671 392.335061 
L 95.528962 380.852366 
L 97.127259 419.772224 
L 98.725547 373.648655 
L 100.323839 417.101593 
L 101.922126 417.437258 
L 103.520418 420.9135 
L 105.118706 423.133845 
L 106.716995 416.465325 
L 108.315287 426.846776 
L 109.913579 429.672793 
L 111.511873 354.326374 
L 113.110159 404.531669 
L 114.708449 424.437054 
L 116.306737 414.400103 
L 117.905028 395.434854 
L 119.503314 352.824989 
L 121.101602 351.879076 
L 124.298182 411.151208 
L 125.896473 413.339793 
L 127.494763 390.325517 
L 129.093052 405.301543 
L 130.69134 397.694519 
L 132.289628 417.562403 
L 133.887918 415.374287 
L 135.486206 393.149451 
L 137.084494 358.998088 
L 138.682782 412.930741 
L 140.281071 417.849443 
L 141.879361 382.615747 
L 143.477652 391.885431 
L 145.075943 389.129144 
L 146.674236 399.043858 
L 148.272526 354.419759 
L 149.870816 425.926188 
L 151.469103 412.10078 
L 153.067393 400.093362 
L 154.665681 433.053924 
L 156.263968 422.453942 
L 157.862298 410.597613 
L 159.460593 364.546099 
L 161.058889 422.253196 
L 162.657184 420.320379 
L 164.255471 390.791186 
L 165.853763 415.701604 
L 167.452054 403.423223 
L 169.050345 412.810698 
L 170.648633 418.171752 
L 172.246922 422.133303 
L 173.845211 396.376228 
L 175.443503 404.767196 
L 177.041795 415.321554 
L 178.640087 397.011802 
L 180.238379 435.952952 
L 181.83667 376.462759 
L 183.434959 403.8083 
L 185.033251 407.256609 
L 186.631541 414.000111 
L 188.229832 348.016406 
L 189.828125 404.933462 
L 193.024708 397.878307 
L 194.623004 421.008386 
L 196.221297 417.209123 
L 197.819589 418.563226 
L 199.41788 400.030029 
L 201.016171 415.898861 
L 202.614465 417.193721 
L 204.212752 411.329705 
L 207.409333 402.967609 
L 209.007623 384.832734 
L 210.605913 414.438935 
L 212.204205 356.9381 
L 213.802496 415.930865 
L 215.400789 382.475125 
L 216.999079 420.334073 
L 218.597371 406.240047 
L 220.195659 378.266829 
L 221.79395 425.810779 
L 223.392237 385.374604 
L 224.990523 388.532496 
L 226.588814 382.425075 
L 228.187106 396.591532 
L 229.785396 421.514538 
L 231.38369 431.47191 
L 232.981989 376.760867 
L 234.58028 418.523681 
L 236.178571 387.954139 
L 237.776863 404.777382 
L 240.973437 402.936825 
L 242.571731 395.676384 
L 244.170019 340.930016 
L 245.76831 386.719965 
L 247.366599 350.128226 
L 248.964893 413.122614 
L 250.563188 340.038055 
L 252.161477 400.051322 
L 253.759793 410.389964 
L 255.358476 398.46914 
L 256.95677 363.5071 
L 258.555071 387.256302 
L 260.153398 389.115994 
L 261.751693 391.912839 
L 263.349991 407.340239 
L 264.948289 389.427928 
L 266.546587 386.105946 
L 268.144879 372.782507 
L 269.743172 372.177473 
L 271.341469 396.37529 
L 272.939771 341.836066 
L 274.538066 400.17611 
L 276.136356 423.449812 
L 277.734649 392.705037 
L 279.332941 394.013292 
L 280.931271 377.247753 
L 282.52956 410.125304 
L 284.127851 357.227579 
L 285.726141 423.690198 
L 287.324432 373.12046 
L 288.922722 384.795159 
L 290.521013 379.423638 
L 292.119303 383.229541 
L 293.717595 336.183526 
L 295.315887 368.024648 
L 296.914177 379.699084 
L 298.512469 423.711227 
L 300.11076 371.410676 
L 301.709049 424.658548 
L 303.307339 366.02229 
L 304.905626 393.669035 
L 306.503914 400.624145 
L 308.102206 394.788156 
L 309.700497 413.569016 
L 311.298788 424.212014 
L 312.897077 406.253891 
L 314.495367 414.485177 
L 316.093661 365.998878 
L 317.69195 419.437704 
L 319.290238 394.307479 
L 320.888525 419.130872 
L 322.486816 405.23626 
L 324.085107 399.244529 
L 325.683394 386.989053 
L 327.281683 379.087991 
L 328.879971 388.958489 
L 330.478259 412.888288 
L 332.076551 404.862738 
L 333.674841 414.350315 
L 335.273129 371.139825 
L 336.871442 416.093754 
L 338.469744 371.602004 
L 340.068038 372.121926 
L 341.666347 402.347868 
L 343.264641 414.983056 
L 344.862932 414.483752 
L 346.461221 409.029782 
L 348.05951 429.539487 
L 349.657812 404.710373 
L 351.256108 415.051735 
L 352.854398 405.908078 
L 354.452689 384.803826 
L 356.050981 258.8609 
L 357.649273 389.190319 
L 359.247566 360.400178 
L 360.845866 358.018107 
L 362.444294 404.368236 
L 364.04272 386.167965 
L 365.641015 359.653585 
L 367.239304 362.651064 
L 368.837596 386.855335 
L 370.435885 330.718695 
L 372.034178 377.395466 
L 373.632498 383.050481 
L 375.230841 370.190309 
L 376.829131 373.245005 
L 378.427424 367.635988 
L 380.025719 359.933234 
L 381.624014 403.248759 
L 383.222305 384.278183 
L 384.820612 388.13772 
L 386.41919 385.621499 
L 388.017483 362.787671 
L 389.615784 370.478888 
L 391.214081 355.836257 
L 392.812374 403.755699 
L 394.41067 431.983672 
L 396.008958 401.339635 
L 397.607247 417.29129 
L 399.205536 410.989745 
L 400.803829 429.812533 
L 402.40212 424.493782 
L 404.000431 410.516291 
L 405.59873 416.718729 
L 407.197021 411.00569 
L 408.795311 386.950708 
L 410.393604 398.76631 
L 411.991919 376.90631 
L 413.590209 427.385176 
L 415.188499 426.161883 
L 416.786785 432.998883 
L 418.385076 399.613586 
L 419.983368 398.38459 
L 421.581654 418.046682 
L 423.179946 403.876998 
L 424.778233 376.480017 
L 426.376523 390.190204 
L 427.97481 398.35041 
L 429.573097 393.823351 
L 431.171386 397.243521 
L 434.368066 374.444961 
L 435.966354 357.701277 
L 437.564644 389.326382 
L 439.162935 410.922079 
L 440.761226 372.066923 
L 442.359513 419.658222 
L 443.957802 413.866149 
L 445.556099 421.175646 
L 447.154389 407.847123 
L 448.752679 423.500707 
L 450.350968 406.390236 
L 451.949386 375.711288 
L 455.145967 422.710967 
L 456.74426 412.688386 
L 458.342553 422.53866 
L 459.940844 359.276236 
L 461.539135 388.621417 
L 463.137425 435.032289 
L 464.735715 394.595214 
L 466.334003 408.683087 
L 467.932291 395.269339 
L 469.53058 413.775372 
L 471.128871 418.377713 
L 472.727159 428.783495 
L 474.325445 384.078149 
L 475.923734 378.578313 
L 477.522027 377.333803 
L 479.12032 412.78466 
L 480.718614 384.562221 
L 482.316907 397.891195 
L 483.915199 393.117654 
L 485.513492 423.106475 
L 487.11178 397.392866 
L 488.710068 398.060275 
L 490.308364 404.04105 
L 491.906657 405.808614 
L 493.504947 404.28727 
L 495.103237 424.286339 
L 496.701528 395.164248 
L 498.299817 414.042058 
L 499.898107 407.283229 
L 501.496397 388.31179 
L 503.094689 350.65447 
L 504.692979 335.727913 
L 506.29129 394.856028 
L 507.889576 401.316692 
L 509.487864 401.140333 
L 511.086156 416.747394 
L 514.282738 400.906795 
L 515.881026 401.986071 
L 519.077604 355.418575 
L 520.675892 423.330877 
L 522.274182 396.520058 
L 523.872471 367.595129 
L 525.47076 408.977556 
L 527.06905 379.237186 
L 528.667339 398.95445 
L 530.265627 413.781806 
L 531.863916 388.723431 
L 533.462208 428.414983 
L 535.060498 422.073085 
L 536.658786 422.856935 
L 538.257079 420.779163 
L 539.855375 433.380284 
L 541.453664 412.878158 
L 543.051956 402.133108 
L 544.650248 412.403184 
L 546.248535 411.667997 
L 547.846823 425.284667 
L 549.445111 376.414415 
L 551.043401 416.223233 
L 552.641691 427.023266 
L 554.23998 404.690507 
L 555.838268 398.27147 
L 557.436559 384.909798 
L 559.034853 416.017966 
L 560.633187 167.439163 
L 562.231477 412.612973 
L 563.829769 382.468447 
L 565.42806 382.572544 
L 567.026351 401.635698 
L 568.624638 415.951951 
L 570.222933 388.071236 
L 571.821223 419.021485 
L 573.41951 413.64867 
L 575.017799 425.104481 
L 576.61609 409.475772 
L 578.214379 397.916389 
L 579.812669 403.109807 
L 581.410956 407.171216 
L 583.009245 381.905641 
L 584.607536 409.590919 
L 586.205824 418.475038 
L 587.80411 418.092249 
L 589.402404 383.512942 
L 591.000693 397.791131 
L 592.598982 420.64582 
L 594.197271 434.288922 
L 597.393846 378.007891 
L 598.992136 402.965039 
L 600.59043 409.262889 
L 602.188719 423.013728 
L 603.78701 401.708392 
L 605.385303 356.45309 
L 606.983593 422.328759 
L 608.581881 414.823337 
L 610.180172 392.813974 
L 611.778461 343.139593 
L 613.37675 423.085502 
L 614.975042 394.170328 
L 616.573336 414.032809 
L 618.171625 423.726028 
L 619.769921 400.312999 
L 621.368216 357.293669 
L 622.966505 394.272211 
L 624.564794 395.854187 
L 626.163087 403.250241 
L 627.761375 413.448261 
L 629.359671 397.289313 
L 630.957987 389.220522 
L 632.556284 410.52023 
L 634.154577 403.517321 
L 635.752866 413.407046 
L 637.351158 393.81217 
L 638.94945 364.63682 
L 640.547743 435.999382 
L 642.146034 385.536668 
L 643.744323 404.009909 
L 645.342609 355.264071 
L 646.940898 414.638162 
L 648.539189 376.611334 
L 650.137477 404.568494 
L 651.735766 435.878815 
L 653.334056 394.283036 
L 654.932342 402.032426 
L 656.530635 353.41025 
L 658.128931 386.389534 
L 659.727223 427.764476 
L 661.325515 384.328927 
L 662.923806 382.039097 
L 664.522102 394.029275 
L 666.120394 399.987014 
L 667.718685 413.467021 
L 669.316974 371.212312 
L 670.915263 421.536374 
L 674.111846 397.850712 
L 675.710132 376.574303 
L 677.308597 372.891068 
L 678.906888 385.156374 
L 680.50518 421.13794 
L 682.10347 393.725595 
L 683.701761 372.229887 
L 685.300051 406.431151 
L 686.898341 390.954244 
L 688.496627 381.729245 
L 690.094918 394.744183 
L 691.693206 415.411487 
L 693.291497 417.66348 
L 694.889786 390.975536 
L 696.48808 443.383055 
L 698.086371 374.553222 
L 699.684661 391.607865 
L 701.28295 364.434105 
L 702.881242 412.07915 
L 704.479532 404.623366 
L 706.077854 395.654379 
L 707.676264 345.192228 
L 709.275138 378.667983 
L 710.873433 384.052693 
L 712.471727 327.903203 
L 714.070019 320.181558 
L 715.668308 385.241918 
L 717.266602 381.031408 
L 718.864895 363.627912 
L 720.463186 370.320032 
L 722.061628 381.41339 
L 723.659928 397.95524 
L 725.258221 343.619219 
L 726.856511 383.880236 
L 728.454804 407.722297 
L 730.053093 386.812638 
L 731.651384 375.1355 
L 733.249676 365.356569 
L 734.847965 378.053776 
L 736.446262 406.663113 
L 738.044553 390.638764 
L 739.642842 384.137917 
L 741.241148 375.089502 
L 742.839445 398.618259 
L 744.437773 402.13566 
L 746.036067 373.325502 
L 747.634357 388.707429 
L 749.232653 412.790119 
L 750.830946 415.826505 
L 752.42924 326.174846 
L 754.027529 389.703206 
L 755.625881 391.2728 
L 757.224188 411.087351 
L 758.822478 435.14963 
L 760.420769 411.835388 
L 762.019061 401.27876 
L 763.61735 349.581516 
L 765.21564 397.642274 
L 766.814065 393.334739 
L 768.412367 421.688946 
L 770.010656 402.503647 
L 771.608946 396.388816 
L 773.207239 415.737304 
L 774.805706 392.997086 
L 776.404003 418.460649 
L 778.002296 411.715946 
L 779.600591 397.643212 
L 781.198885 394.959187 
L 782.797178 406.411359 
L 784.39547 422.928296 
L 785.993761 386.620221 
L 787.592053 392.33326 
L 789.190356 420.966083 
L 790.788661 387.532574 
L 792.386969 371.576641 
L 793.985258 434.946708 
L 795.583548 364.879982 
L 797.181839 374.330752 
L 798.780128 418.427144 
L 800.37842 412.342084 
L 801.976715 409.043327 
L 803.575007 421.796156 
L 805.1733 415.841832 
L 806.77159 388.939598 
L 808.369886 375.359752 
L 809.968188 391.482251 
L 811.566501 403.844056 
L 813.164796 391.173937 
L 814.763112 420.618149 
L 816.361411 195.151154 
L 817.959706 357.621286 
L 819.557998 382.413744 
L 821.156291 356.703493 
L 822.754673 355.648698 
L 824.352967 385.659131 
L 825.951264 405.123834 
L 827.549567 371.5939 
L 829.147872 384.864475 
L 830.746878 367.767492 
L 832.345172 370.170124 
L 833.943464 360.610511 
L 835.54176 359.946722 
L 837.140052 293.904918 
L 838.738461 332.201789 
L 840.336758 340.406999 
L 843.533355 364.66693 
L 845.131927 371.597483 
L 846.730223 395.862535 
L 848.328518 403.453426 
L 849.926815 367.182475 
L 851.525108 365.068703 
L 853.12341 397.040167 
L 854.721708 436.927756 
L 856.320004 378.490649 
L 857.918297 389.214463 
L 859.516601 433.913919 
L 861.114897 417.536065 
L 862.713194 428.872097 
L 864.311491 388.573617 
L 865.909781 359.891794 
L 867.50807 402.164737 
L 869.106374 399.041175 
L 870.704666 378.263171 
L 872.302955 405.514295 
L 873.901247 374.850167 
L 875.499535 412.750368 
L 877.097825 420.022383 
L 878.696112 419.535741 
L 880.294405 398.609893 
L 881.892698 393.411635 
L 883.491031 397.554479 
L 885.089322 379.336631 
L 886.68761 407.525696 
L 888.2859 412.032889 
L 889.884188 395.053697 
L 891.482478 393.096624 
L 893.08084 412.524559 
L 894.679142 381.297568 
L 896.277432 419.740896 
L 897.875725 393.874283 
L 899.474016 424.826427 
L 901.072305 429.037763 
L 902.670596 416.918744 
L 904.268891 420.71221 
L 905.867203 358.798749 
L 907.465493 414.515118 
L 909.063782 384.158215 
L 910.662071 385.208001 
L 912.260362 419.488561 
L 915.456941 385.030685 
L 917.055229 429.752333 
L 918.653526 417.583226 
L 920.251819 426.722138 
L 921.850114 367.563745 
L 923.448402 406.79351 
L 925.046695 418.997567 
L 926.644985 390.977281 
L 928.243271 416.225746 
L 929.841739 404.816252 
L 931.44008 407.654593 
L 933.038373 406.805367 
L 934.636666 401.859219 
L 936.234956 416.40385 
L 937.833246 380.808957 
L 939.431538 422.504799 
L 941.02983 424.83545 
L 942.628142 417.610447 
L 944.226434 406.784224 
L 945.824724 347.613206 
L 947.423016 430.245447 
L 949.021306 353.492849 
L 950.619605 395.885722 
L 952.217897 414.533146 
L 953.816185 419.339966 
L 955.414475 398.097325 
L 957.01277 403.251798 
L 958.61106 412.940365 
L 960.209349 392.485719 
L 961.807637 412.671202 
L 963.405927 359.127041 
L 965.004217 400.121876 
L 966.60251 419.877953 
L 968.200797 427.808448 
L 969.799085 416.960503 
L 971.397375 405.30689 
L 972.995663 430.584883 
L 974.593951 419.362909 
L 976.192241 404.1147 
L 977.790533 365.174939 
L 979.38882 400.999787 
L 982.585403 416.730679 
L 984.183691 406.292142 
L 985.781983 422.256122 
L 987.380275 418.428739 
L 988.978562 408.643879 
L 990.576851 416.169824 
L 992.175145 421.573199 
L 993.773442 415.029805 
L 995.371732 429.769836 
L 996.970025 383.662231 
L 998.568317 426.969108 
L 1000.166604 411.959145 
L 1001.764891 412.471206 
L 1003.363179 401.61919 
L 1004.961466 397.729731 
L 1006.559758 412.107121 
L 1008.15805 343.660321 
L 1009.756342 409.504437 
L 1011.354724 363.078125 
L 1012.953028 378.27861 
L 1014.551317 396.021747 
L 1016.149609 389.617081 
L 1017.747902 397.433724 
L 1019.346192 401.934782 
L 1020.944482 428.298842 
L 1022.542773 420.761941 
L 1024.141061 396.026231 
L 1025.73935 388.62348 
L 1027.337639 383.131748 
L 1028.935928 419.62847 
L 1030.534219 403.746375 
L 1032.132508 408.69982 
L 1033.730799 414.015269 
L 1035.329089 392.800692 
L 1036.927383 420.020563 
L 1038.525673 391.113381 
L 1040.123963 416.158362 
L 1041.722257 414.420063 
L 1043.32055 391.417361 
L 1044.918841 398.36977 
L 1046.517136 388.791303 
L 1048.115427 420.987469 
L 1049.713728 423.715129 
L 1051.312053 411.166816 
L 1052.910344 415.507161 
L 1054.508633 406.115915 
L 1056.106949 389.590367 
L 1057.705255 379.418479 
L 1059.303542 391.607321 
L 1060.90184 422.393536 
L 1062.500131 427.460364 
L 1064.098419 418.58253 
L 1065.696712 419.992049 
L 1067.295003 409.816784 
L 1068.893296 386.419719 
L 1070.491588 432.287877 
L 1072.089878 397.595094 
L 1073.688174 425.838975 
L 1075.286467 393.780617 
L 1076.88476 388.919788 
L 1078.483055 371.984362 
L 1080.081343 398.474317 
L 1081 399.080944 
L 1081 399.080944 
" style="fill:none;stroke:#008000;stroke-linecap:square;stroke-width:1.5;"/>
   </g>
   <g id="patch_3">
    <path d="M 57.17 498.98 
L 57.17 26.88 
" style="fill:none;stroke:#000000;stroke-linecap:square;stroke-linejoin:miter;stroke-width:0.8;"/>
   </g>
   <g id="patch_4">
    <path d="M 517.473599 498.98 
L 517.473599 26.88 
" style="fill:none;stroke:#000000;stroke-linecap:square;stroke-linejoin:miter;stroke-width:0.8;"/>
   </g>
   <g id="patch_5">
    <path d="M 57.17 498.98 
L 517.473599 498.98 
" style="fill:none;stroke:#000000;stroke-linecap:square;stroke-linejoin:miter;stroke-width:0.8;"/>
   </g>
   <g id="patch_6">
    <path d="M 57.17 26.88 
L 517.473599 26.88 
" style="fill:none;stroke:#000000;stroke-linecap:square;stroke-linejoin:miter;stroke-width:0.8;"/>
   </g>
   <g id="text_16">
    <!-- maximum latency for hpa over time -->
    <defs>
     <path d="M 37.109375 75.984375 
L 37.109375 68.5 
L 28.515625 68.5 
Q 23.6875 68.5 21.796875 66.546875 
Q 19.921875 64.59375 19.921875 59.515625 
L 19.921875 54.6875 
L 34.71875 54.6875 
L 34.71875 47.703125 
L 19.921875 47.703125 
L 19.921875 0 
L 10.890625 0 
L 10.890625 47.703125 
L 2.296875 47.703125 
L 2.296875 54.6875 
L 10.890625 54.6875 
L 10.890625 58.5 
Q 10.890625 67.625 15.140625 71.796875 
Q 19.390625 75.984375 28.609375 75.984375 
z
" id="DejaVuSans-102"/>
     <path d="M 30.609375 48.390625 
Q 23.390625 48.390625 19.1875 42.75 
Q 14.984375 37.109375 14.984375 27.296875 
Q 14.984375 17.484375 19.15625 11.84375 
Q 23.34375 6.203125 30.609375 6.203125 
Q 37.796875 6.203125 41.984375 11.859375 
Q 46.1875 17.53125 46.1875 27.296875 
Q 46.1875 37.015625 41.984375 42.703125 
Q 37.796875 48.390625 30.609375 48.390625 
z
M 30.609375 56 
Q 42.328125 56 49.015625 48.375 
Q 55.71875 40.765625 55.71875 27.296875 
Q 55.71875 13.875 49.015625 6.21875 
Q 42.328125 -1.421875 30.609375 -1.421875 
Q 18.84375 -1.421875 12.171875 6.21875 
Q 5.515625 13.875 5.515625 27.296875 
Q 5.515625 40.765625 12.171875 48.375 
Q 18.84375 56 30.609375 56 
z
" id="DejaVuSans-111"/>
     <path d="M 41.109375 46.296875 
Q 39.59375 47.171875 37.8125 47.578125 
Q 36.03125 48 33.890625 48 
Q 26.265625 48 22.1875 43.046875 
Q 18.109375 38.09375 18.109375 28.8125 
L 18.109375 0 
L 9.078125 0 
L 9.078125 54.6875 
L 18.109375 54.6875 
L 18.109375 46.1875 
Q 20.953125 51.171875 25.484375 53.578125 
Q 30.03125 56 36.53125 56 
Q 37.453125 56 38.578125 55.875 
Q 39.703125 55.765625 41.0625 55.515625 
z
" id="DejaVuSans-114"/>
     <path d="M 54.890625 33.015625 
L 54.890625 0 
L 45.90625 0 
L 45.90625 32.71875 
Q 45.90625 40.484375 42.875 44.328125 
Q 39.84375 48.1875 33.796875 48.1875 
Q 26.515625 48.1875 22.3125 43.546875 
Q 18.109375 38.921875 18.109375 30.90625 
L 18.109375 0 
L 9.078125 0 
L 9.078125 75.984375 
L 18.109375 75.984375 
L 18.109375 46.1875 
Q 21.34375 51.125 25.703125 53.5625 
Q 30.078125 56 35.796875 56 
Q 45.21875 56 50.046875 50.171875 
Q 54.890625 44.34375 54.890625 33.015625 
z
" id="DejaVuSans-104"/>
     <path d="M 18.109375 8.203125 
L 18.109375 -20.796875 
L 9.078125 -20.796875 
L 9.078125 54.6875 
L 18.109375 54.6875 
L 18.109375 46.390625 
Q 20.953125 51.265625 25.265625 53.625 
Q 29.59375 56 35.59375 56 
Q 45.5625 56 51.78125 48.09375 
Q 58.015625 40.1875 58.015625 27.296875 
Q 58.015625 14.40625 51.78125 6.484375 
Q 45.5625 -1.421875 35.59375 -1.421875 
Q 29.59375 -1.421875 25.265625 0.953125 
Q 20.953125 3.328125 18.109375 8.203125 
z
M 48.6875 27.296875 
Q 48.6875 37.203125 44.609375 42.84375 
Q 40.53125 48.484375 33.40625 48.484375 
Q 26.265625 48.484375 22.1875 42.84375 
Q 18.109375 37.203125 18.109375 27.296875 
Q 18.109375 17.390625 22.1875 11.75 
Q 26.265625 6.109375 33.40625 6.109375 
Q 40.53125 6.109375 44.609375 11.75 
Q 48.6875 17.390625 48.6875 27.296875 
z
" id="DejaVuSans-112"/>
     <path d="M 2.984375 54.6875 
L 12.5 54.6875 
L 29.59375 8.796875 
L 46.6875 54.6875 
L 56.203125 54.6875 
L 35.6875 0 
L 23.484375 0 
z
" id="DejaVuSans-118"/>
    </defs>
    <g transform="translate(179.041487 20.88)scale(0.12 -0.12)">
     <use xlink:href="#DejaVuSans-109"/>
     <use x="97.412109" xlink:href="#DejaVuSans-97"/>
     <use x="158.691406" xlink:href="#DejaVuSans-120"/>
     <use x="217.871094" xlink:href="#DejaVuSans-105"/>
     <use x="245.654297" xlink:href="#DejaVuSans-109"/>
     <use x="343.066406" xlink:href="#DejaVuSans-117"/>
     <use x="406.445312" xlink:href="#DejaVuSans-109"/>
     <use x="503.857422" xlink:href="#DejaVuSans-32"/>
     <use x="535.644531" xlink:href="#DejaVuSans-108"/>
     <use x="563.427734" xlink:href="#DejaVuSans-97"/>
     <use x="624.707031" xlink:href="#DejaVuSans-116"/>
     <use x="663.916016" xlink:href="#DejaVuSans-101"/>
     <use x="725.439453" xlink:href="#DejaVuSans-110"/>
     <use x="788.818359" xlink:href="#DejaVuSans-99"/>
     <use x="843.798828" xlink:href="#DejaVuSans-121"/>
     <use x="902.978516" xlink:href="#DejaVuSans-32"/>
     <use x="934.765625" xlink:href="#DejaVuSans-102"/>
     <use x="969.970703" xlink:href="#DejaVuSans-111"/>
     <use x="1031.152344" xlink:href="#DejaVuSans-114"/>
     <use x="1072.265625" xlink:href="#DejaVuSans-32"/>
     <use x="1104.052734" xlink:href="#DejaVuSans-104"/>
     <use x="1167.431641" xlink:href="#DejaVuSans-112"/>
     <use x="1230.908203" xlink:href="#DejaVuSans-97"/>
     <use x="1292.1875" xlink:href="#DejaVuSans-32"/>
     <use x="1323.974609" xlink:href="#DejaVuSans-111"/>
     <use x="1385.15625" xlink:href="#DejaVuSans-118"/>
     <use x="1444.335938" xlink:href="#DejaVuSans-101"/>
     <use x="1505.859375" xlink:href="#DejaVuSans-114"/>
     <use x="1546.972656" xlink:href="#DejaVuSans-32"/>
     <use x="1578.759766" xlink:href="#DejaVuSans-116"/>
     <use x="1617.96875" xlink:href="#DejaVuSans-105"/>
     <use x="1645.751953" xlink:href="#DejaVuSans-109"/>
     <use x="1743.164062" xlink:href="#DejaVuSans-101"/>
    </g>
   </g>
   <g id="legend_1">
    <g id="patch_7">
     <path d="M 64.17 49.558125 
L 208.459063 49.558125 
Q 210.459063 49.558125 210.459063 47.558125 
L 210.459063 33.88 
Q 210.459063 31.88 208.459063 31.88 
L 64.17 31.88 
Q 62.17 31.88 62.17 33.88 
L 62.17 47.558125 
Q 62.17 49.558125 64.17 49.558125 
z
" style="fill:#ffffff;opacity:0.8;stroke:#cccccc;stroke-linejoin:miter;"/>
    </g>
    <g id="line2d_15">
     <path d="M 66.17 39.978437 
L 86.17 39.978437 
" style="fill:none;stroke:#008000;stroke-linecap:square;stroke-width:1.5;"/>
    </g>
    <g id="line2d_16"/>
    <g id="text_17">
     <!-- hpa maximum latency -->
     <g transform="translate(94.17 43.478437)scale(0.1 -0.1)">
      <use xlink:href="#DejaVuSans-104"/>
      <use x="63.378906" xlink:href="#DejaVuSans-112"/>
      <use x="126.855469" xlink:href="#DejaVuSans-97"/>
      <use x="188.134766" xlink:href="#DejaVuSans-32"/>
      <use x="219.921875" xlink:href="#DejaVuSans-109"/>
      <use x="317.333984" xlink:href="#DejaVuSans-97"/>
      <use x="378.613281" xlink:href="#DejaVuSans-120"/>
      <use x="437.792969" xlink:href="#DejaVuSans-105"/>
      <use x="465.576172" xlink:href="#DejaVuSans-109"/>
      <use x="562.988281" xlink:href="#DejaVuSans-117"/>
      <use x="626.367188" xlink:href="#DejaVuSans-109"/>
      <use x="723.779297" xlink:href="#DejaVuSans-32"/>
      <use x="755.566406" xlink:href="#DejaVuSans-108"/>
      <use x="783.349609" xlink:href="#DejaVuSans-97"/>
      <use x="844.628906" xlink:href="#DejaVuSans-116"/>
      <use x="883.837891" xlink:href="#DejaVuSans-101"/>
      <use x="945.361328" xlink:href="#DejaVuSans-110"/>
      <use x="1008.740234" xlink:href="#DejaVuSans-99"/>
      <use x="1063.720703" xlink:href="#DejaVuSans-121"/>
     </g>
    </g>
   </g>
  </g>
  <g id="axes_2">
   <g id="patch_8">
    <path d="M 591.142575 498.98 
L 1051.446175 498.98 
L 1051.446175 26.88 
L 591.142575 26.88 
z
" style="fill:#ffffff;"/>
   </g>
   <g id="matplotlib.axis_3">
    <g id="xtick_7">
     <g id="line2d_17">
      <g>
       <use style="stroke:#000000;stroke-width:0.8;" x="1049.847893" xlink:href="#macd1ccbaa3" y="498.98"/>
      </g>
     </g>
     <g id="text_18">
      <!-- Day 02 -->
      <g transform="translate(1032.022893 525.078438)scale(0.1 -0.1)">
       <use xlink:href="#DejaVuSans-68"/>
       <use x="77.001953" xlink:href="#DejaVuSans-97"/>
       <use x="138.28125" xlink:href="#DejaVuSans-121"/>
       <use x="197.460938" xlink:href="#DejaVuSans-32"/>
       <use x="229.248047" xlink:href="#DejaVuSans-48"/>
       <use x="292.871094" xlink:href="#DejaVuSans-50"/>
      </g>
     </g>
    </g>
    <g id="xtick_8">
     <g id="line2d_18">
      <g>
       <use style="stroke:#000000;stroke-width:0.6;" x="666.26156" xlink:href="#me965b576fe" y="498.98"/>
      </g>
     </g>
     <g id="text_19">
      <!-- 04 -->
      <g transform="translate(659.89906 511.978438)scale(0.1 -0.1)">
       <use xlink:href="#DejaVuSans-48"/>
       <use x="63.623047" xlink:href="#DejaVuSans-52"/>
      </g>
     </g>
    </g>
    <g id="xtick_9">
     <g id="line2d_19">
      <g>
       <use style="stroke:#000000;stroke-width:0.6;" x="742.978827" xlink:href="#me965b576fe" y="498.98"/>
      </g>
     </g>
     <g id="text_20">
      <!-- 08 -->
      <g transform="translate(736.616327 511.978438)scale(0.1 -0.1)">
       <use xlink:href="#DejaVuSans-48"/>
       <use x="63.623047" xlink:href="#DejaVuSans-56"/>
      </g>
     </g>
    </g>
    <g id="xtick_10">
     <g id="line2d_20">
      <g>
       <use style="stroke:#000000;stroke-width:0.6;" x="819.696093" xlink:href="#me965b576fe" y="498.98"/>
      </g>
     </g>
     <g id="text_21">
      <!-- 12 -->
      <g transform="translate(813.333593 511.978438)scale(0.1 -0.1)">
       <use xlink:href="#DejaVuSans-49"/>
       <use x="63.623047" xlink:href="#DejaVuSans-50"/>
      </g>
     </g>
    </g>
    <g id="xtick_11">
     <g id="line2d_21">
      <g>
       <use style="stroke:#000000;stroke-width:0.6;" x="896.41336" xlink:href="#me965b576fe" y="498.98"/>
      </g>
     </g>
     <g id="text_22">
      <!-- 16 -->
      <g transform="translate(890.05086 511.978438)scale(0.1 -0.1)">
       <use xlink:href="#DejaVuSans-49"/>
       <use x="63.623047" xlink:href="#DejaVuSans-54"/>
      </g>
     </g>
    </g>
    <g id="xtick_12">
     <g id="line2d_22">
      <g>
       <use style="stroke:#000000;stroke-width:0.6;" x="973.130627" xlink:href="#me965b576fe" y="498.98"/>
      </g>
     </g>
     <g id="text_23">
      <!-- 20 -->
      <g transform="translate(966.768127 511.978438)scale(0.1 -0.1)">
       <use xlink:href="#DejaVuSans-50"/>
       <use x="63.623047" xlink:href="#DejaVuSans-48"/>
      </g>
     </g>
    </g>
    <g id="text_24">
     <!-- time -->
     <g transform="translate(809.998281 538.756563)scale(0.1 -0.1)">
      <use xlink:href="#DejaVuSans-116"/>
      <use x="39.208984" xlink:href="#DejaVuSans-105"/>
      <use x="66.992188" xlink:href="#DejaVuSans-109"/>
      <use x="164.404297" xlink:href="#DejaVuSans-101"/>
     </g>
    </g>
   </g>
   <g id="matplotlib.axis_4">
    <g id="ytick_8">
     <g id="line2d_23">
      <g>
       <use style="stroke:#000000;stroke-width:0.8;" x="591.142575" xlink:href="#m93d7b26e4f" y="498.98"/>
      </g>
     </g>
     <g id="text_25">
      <!-- 0 -->
      <g transform="translate(577.780075 502.779219)scale(0.1 -0.1)">
       <use xlink:href="#DejaVuSans-48"/>
      </g>
     </g>
    </g>
    <g id="ytick_9">
     <g id="line2d_24">
      <g>
       <use style="stroke:#000000;stroke-width:0.8;" x="591.142575" xlink:href="#m93d7b26e4f" y="420.296667"/>
      </g>
     </g>
     <g id="text_26">
      <!-- 1000 -->
      <g transform="translate(558.692575 424.095885)scale(0.1 -0.1)">
       <use xlink:href="#DejaVuSans-49"/>
       <use x="63.623047" xlink:href="#DejaVuSans-48"/>
       <use x="127.246094" xlink:href="#DejaVuSans-48"/>
       <use x="190.869141" xlink:href="#DejaVuSans-48"/>
      </g>
     </g>
    </g>
    <g id="ytick_10">
     <g id="line2d_25">
      <g>
       <use style="stroke:#000000;stroke-width:0.8;" x="591.142575" xlink:href="#m93d7b26e4f" y="341.613333"/>
      </g>
     </g>
     <g id="text_27">
      <!-- 2000 -->
      <g transform="translate(558.692575 345.412552)scale(0.1 -0.1)">
       <use xlink:href="#DejaVuSans-50"/>
       <use x="63.623047" xlink:href="#DejaVuSans-48"/>
       <use x="127.246094" xlink:href="#DejaVuSans-48"/>
       <use x="190.869141" xlink:href="#DejaVuSans-48"/>
      </g>
     </g>
    </g>
    <g id="ytick_11">
     <g id="line2d_26">
      <g>
       <use style="stroke:#000000;stroke-width:0.8;" x="591.142575" xlink:href="#m93d7b26e4f" y="262.93"/>
      </g>
     </g>
     <g id="text_28">
      <!-- 3000 -->
      <g transform="translate(558.692575 266.729219)scale(0.1 -0.1)">
       <use xlink:href="#DejaVuSans-51"/>
       <use x="63.623047" xlink:href="#DejaVuSans-48"/>
       <use x="127.246094" xlink:href="#DejaVuSans-48"/>
       <use x="190.869141" xlink:href="#DejaVuSans-48"/>
      </g>
     </g>
    </g>
    <g id="ytick_12">
     <g id="line2d_27">
      <g>
       <use style="stroke:#000000;stroke-width:0.8;" x="591.142575" xlink:href="#m93d7b26e4f" y="184.246667"/>
      </g>
     </g>
     <g id="text_29">
      <!-- 4000 -->
      <g transform="translate(558.692575 188.045885)scale(0.1 -0.1)">
       <use xlink:href="#DejaVuSans-52"/>
       <use x="63.623047" xlink:href="#DejaVuSans-48"/>
       <use x="127.246094" xlink:href="#DejaVuSans-48"/>
       <use x="190.869141" xlink:href="#DejaVuSans-48"/>
      </g>
     </g>
    </g>
    <g id="ytick_13">
     <g id="line2d_28">
      <g>
       <use style="stroke:#000000;stroke-width:0.8;" x="591.142575" xlink:href="#m93d7b26e4f" y="105.563333"/>
      </g>
     </g>
     <g id="text_30">
      <!-- 5000 -->
      <g transform="translate(558.692575 109.362552)scale(0.1 -0.1)">
       <use xlink:href="#DejaVuSans-53"/>
       <use x="63.623047" xlink:href="#DejaVuSans-48"/>
       <use x="127.246094" xlink:href="#DejaVuSans-48"/>
       <use x="190.869141" xlink:href="#DejaVuSans-48"/>
      </g>
     </g>
    </g>
    <g id="ytick_14">
     <g id="line2d_29">
      <g>
       <use style="stroke:#000000;stroke-width:0.8;" x="591.142575" xlink:href="#m93d7b26e4f" y="26.88"/>
      </g>
     </g>
     <g id="text_31">
      <!-- 6000 -->
      <g transform="translate(558.692575 30.679219)scale(0.1 -0.1)">
       <use xlink:href="#DejaVuSans-54"/>
       <use x="63.623047" xlink:href="#DejaVuSans-48"/>
       <use x="127.246094" xlink:href="#DejaVuSans-48"/>
       <use x="190.869141" xlink:href="#DejaVuSans-48"/>
      </g>
     </g>
    </g>
    <g id="text_32">
     <!-- maximum latency -->
     <g transform="translate(552.612888 308.078438)rotate(-90)scale(0.1 -0.1)">
      <use xlink:href="#DejaVuSans-109"/>
      <use x="97.412109" xlink:href="#DejaVuSans-97"/>
      <use x="158.691406" xlink:href="#DejaVuSans-120"/>
      <use x="217.871094" xlink:href="#DejaVuSans-105"/>
      <use x="245.654297" xlink:href="#DejaVuSans-109"/>
      <use x="343.066406" xlink:href="#DejaVuSans-117"/>
      <use x="406.445312" xlink:href="#DejaVuSans-109"/>
      <use x="503.857422" xlink:href="#DejaVuSans-32"/>
      <use x="535.644531" xlink:href="#DejaVuSans-108"/>
      <use x="563.427734" xlink:href="#DejaVuSans-97"/>
      <use x="624.707031" xlink:href="#DejaVuSans-116"/>
      <use x="663.916016" xlink:href="#DejaVuSans-101"/>
      <use x="725.439453" xlink:href="#DejaVuSans-110"/>
      <use x="788.818359" xlink:href="#DejaVuSans-99"/>
      <use x="843.798828" xlink:href="#DejaVuSans-121"/>
     </g>
    </g>
   </g>
   <g id="line2d_30">
    <path clip-path="url(#p6d51cde3d4)" d="M 591.142575 376.016168 
L 592.740869 401.316673 
L 594.339162 411.989273 
L 595.937452 387.249717 
L 597.535747 431.304819 
L 599.134043 362.722575 
L 600.732351 414.928841 
L 602.330644 393.089421 
L 603.928932 430.039824 
L 605.527221 428.8043 
L 607.125512 416.728747 
L 608.723803 388.482652 
L 610.322093 390.425937 
L 611.920378 428.051929 
L 613.518664 408.478364 
L 615.116971 406.412147 
L 616.715262 372.495429 
L 618.31355 399.030126 
L 619.911842 417.316747 
L 621.510131 424.887321 
L 623.108419 372.850172 
L 624.706707 404.711667 
L 626.304995 356.890713 
L 627.903284 375.097888 
L 629.501572 419.718703 
L 631.099863 397.88461 
L 632.698155 394.888688 
L 634.296444 416.022055 
L 635.894732 396.82597 
L 637.49302 405.885454 
L 639.091309 416.057211 
L 640.689597 405.400894 
L 642.287888 410.567467 
L 643.886176 390.150434 
L 645.484466 394.679632 
L 647.082757 399.869654 
L 648.681052 409.589118 
L 650.279355 399.376146 
L 651.877674 388.319894 
L 653.476186 420.998725 
L 655.074483 397.115186 
L 656.672775 392.063497 
L 658.271069 438.315626 
L 659.869358 379.550021 
L 661.467649 387.011846 
L 663.065939 425.687154 
L 664.664232 378.945531 
L 666.262529 417.744728 
L 667.860816 370.026351 
L 669.459104 400.705093 
L 671.057395 397.857915 
L 672.655686 383.318462 
L 674.253976 363.255347 
L 675.852264 394.633689 
L 677.450551 416.768761 
L 679.04884 354.471686 
L 680.647126 425.053662 
L 682.245415 406.194124 
L 683.843704 393.188846 
L 685.441993 392.863893 
L 687.040287 397.719845 
L 688.638584 421.114696 
L 690.237093 402.332448 
L 691.835382 402.855464 
L 693.433673 407.191964 
L 695.03197 402.865576 
L 696.630261 406.889953 
L 698.22855 419.094441 
L 699.826838 370.640032 
L 703.02342 419.231236 
L 704.621712 412.113236 
L 706.220001 397.127118 
L 707.818292 421.207706 
L 709.416584 400.690498 
L 711.014876 337.60931 
L 712.613172 408.152622 
L 714.211462 398.082561 
L 715.809754 405.444941 
L 717.408044 434.023793 
L 719.006335 430.859654 
L 720.604626 387.606486 
L 722.202919 406.678739 
L 723.801206 420.050185 
L 725.399495 391.150413 
L 726.997789 417.394468 
L 728.596081 397.043656 
L 730.194485 386.978641 
L 731.792777 418.997323 
L 733.391069 381.842309 
L 734.98936 422.328384 
L 736.587651 411.35248 
L 738.185959 407.684008 
L 739.784252 420.257365 
L 741.382544 426.81314 
L 742.980833 405.610232 
L 744.579123 420.066806 
L 746.177415 383.766309 
L 747.775707 404.206341 
L 749.374001 378.914147 
L 750.972293 404.278434 
L 752.570585 425.014792 
L 754.168874 419.526605 
L 755.767165 416.580077 
L 757.365492 409.170442 
L 758.963783 410.070075 
L 760.562074 412.665406 
L 762.160363 391.916385 
L 763.75865 385.623675 
L 765.356942 418.437462 
L 766.955376 419.786256 
L 768.553667 415.970935 
L 770.151956 424.485997 
L 771.750244 399.013054 
L 773.348536 394.759322 
L 774.946828 397.019006 
L 776.545125 385.076121 
L 778.143423 403.866905 
L 779.741716 373.5905 
L 781.340006 392.199298 
L 782.938297 374.205908 
L 784.536585 333.887918 
L 786.134877 383.464693 
L 787.73317 395.501451 
L 789.331462 414.62805 
L 790.929753 413.321203 
L 792.528048 391.055583 
L 794.126339 405.85919 
L 795.724632 328.108977 
L 797.322923 340.804533 
L 798.921218 382.710258 
L 800.519521 353.550197 
L 802.117822 378.496165 
L 803.716116 399.440679 
L 805.314409 335.588961 
L 806.912708 389.749523 
L 808.511 392.573157 
L 810.109293 413.347578 
L 811.707583 398.534442 
L 813.305964 391.865396 
L 814.90426 394.140913 
L 816.502551 399.62169 
L 818.100845 392.271485 
L 821.297428 408.358715 
L 822.895719 430.912838 
L 824.494012 404.314565 
L 826.092308 395.098045 
L 827.69061 359.159383 
L 829.288905 423.384886 
L 830.887195 430.879071 
L 832.485484 405.216225 
L 834.083777 422.552636 
L 835.682068 364.938249 
L 837.280453 374.368984 
L 838.878742 364.685389 
L 840.47703 383.369038 
L 842.075323 372.643386 
L 843.673609 404.995331 
L 845.271896 383.478706 
L 846.870185 418.168018 
L 848.468476 407.871398 
L 850.066768 403.0724 
L 851.665061 426.483966 
L 853.263355 410.796746 
L 854.861645 405.637921 
L 856.459931 427.190696 
L 858.05822 419.139408 
L 859.656511 407.687779 
L 861.254799 421.508385 
L 862.85309 378.163858 
L 864.451381 405.2296 
L 866.049671 389.339383 
L 867.647958 419.599842 
L 869.24625 394.565705 
L 870.844544 373.269224 
L 872.442838 368.162212 
L 874.041127 378.38946 
L 875.639419 399.369374 
L 877.237709 405.583049 
L 878.836002 392.565034 
L 880.434288 413.412299 
L 882.032577 391.022154 
L 883.630865 365.782692 
L 885.229156 403.983383 
L 886.827455 305.477489 
L 888.425748 416.708393 
L 890.024045 357.89889 
L 891.622339 374.951225 
L 893.22063 356.028392 
L 894.818954 378.210344 
L 896.417245 393.789546 
L 898.015637 320.29254 
L 899.613934 370.854511 
L 901.212224 370.934389 
L 902.810517 323.224229 
L 904.408806 397.828069 
L 906.007098 360.719879 
L 907.605395 383.147562 
L 909.203689 383.747925 
L 910.801983 350.703395 
L 912.400277 372.629879 
L 913.99857 382.277681 
L 915.596867 351.591323 
L 917.195162 379.038185 
L 918.793458 370.407489 
L 920.39175 377.075202 
L 921.990044 369.145101 
L 923.588341 368.860781 
L 925.186656 425.13793 
L 926.784947 417.621121 
L 928.383236 422.546333 
L 929.98153 366.989139 
L 931.579819 406.181798 
L 933.178109 413.707068 
L 934.776403 377.840293 
L 936.374696 399.882148 
L 937.972992 390.160433 
L 939.571282 394.553586 
L 941.169573 401.097486 
L 942.767865 391.487222 
L 944.366156 383.232262 
L 945.964446 408.634387 
L 947.562732 358.711705 
L 949.161021 378.027082 
L 950.759313 386.214376 
L 952.3576 420.711103 
L 953.955891 383.174238 
L 955.554178 363.168565 
L 957.152467 379.38912 
L 958.750754 418.014997 
L 960.349046 372.761214 
L 961.947336 416.916005 
L 963.545626 417.891878 
L 965.143918 393.385353 
L 966.742207 378.047117 
L 968.340503 429.065414 
L 969.938793 376.000429 
L 971.537085 404.127832 
L 973.135374 413.153605 
L 974.733666 400.26685 
L 976.331955 432.461553 
L 977.930246 402.858447 
L 979.528537 418.934459 
L 981.12683 410.454703 
L 982.725122 410.824548 
L 984.323416 411.995389 
L 985.921707 383.127414 
L 987.519997 422.409895 
L 989.118286 387.018111 
L 990.716574 384.765275 
L 992.314866 426.995615 
L 993.913261 399.981161 
L 995.51157 396.02685 
L 997.109862 409.669577 
L 998.708153 424.764108 
L 1000.306444 408.877886 
L 1001.904733 357.723544 
L 1003.503045 399.925088 
L 1005.101344 399.744865 
L 1006.699636 376.402803 
L 1008.297937 401.53344 
L 1009.896228 392.084489 
L 1011.494519 397.616104 
L 1013.09281 406.836676 
L 1014.691101 426.244013 
L 1016.289394 429.57982 
L 1017.887686 401.589475 
L 1019.485976 406.409183 
L 1021.084266 363.917203 
L 1022.682555 423.473994 
L 1024.280846 400.650765 
L 1025.879136 368.65542 
L 1027.477429 390.656323 
L 1029.075721 420.127061 
L 1030.674046 423.49386 
L 1032.27234 399.417154 
L 1033.87063 397.856189 
L 1035.46892 424.420695 
L 1037.067248 388.608004 
L 1038.665543 379.687904 
L 1040.263836 378.858806 
L 1041.862125 381.518631 
L 1043.460413 393.377718 
L 1045.058703 399.158066 
L 1046.656993 406.427155 
L 1048.255281 367.916031 
L 1049.853573 410.995598 
L 1051.451867 401.242442 
L 1053.050162 385.677721 
L 1054.648465 439.293412 
L 1056.246757 391.59901 
L 1057.845049 419.225477 
L 1059.443338 429.738939 
L 1061.041631 422.602499 
L 1062.63992 329.273027 
L 1064.238211 416.572611 
L 1065.836504 414.986977 
L 1067.434795 427.461452 
L 1069.033088 401.639019 
L 1070.631377 420.741569 
L 1072.229667 410.039647 
L 1073.827961 407.489303 
L 1075.426252 432.319768 
L 1077.024543 408.550288 
L 1078.622833 404.685366 
L 1080.221123 405.810884 
L 1081 379.361569 
L 1081 379.361569 
" style="fill:none;stroke:#800080;stroke-linecap:square;stroke-width:1.5;"/>
   </g>
   <g id="patch_9">
    <path d="M 591.142575 498.98 
L 591.142575 26.88 
" style="fill:none;stroke:#000000;stroke-linecap:square;stroke-linejoin:miter;stroke-width:0.8;"/>
   </g>
   <g id="patch_10">
    <path d="M 1051.446175 498.98 
L 1051.446175 26.88 
" style="fill:none;stroke:#000000;stroke-linecap:square;stroke-linejoin:miter;stroke-width:0.8;"/>
   </g>
   <g id="patch_11">
    <path d="M 591.142575 498.98 
L 1051.446175 498.98 
" style="fill:none;stroke:#000000;stroke-linecap:square;stroke-linejoin:miter;stroke-width:0.8;"/>
   </g>
   <g id="patch_12">
    <path d="M 591.142575 26.88 
L 1051.446175 26.88 
" style="fill:none;stroke:#000000;stroke-linecap:square;stroke-linejoin:miter;stroke-width:0.8;"/>
   </g>
   <g id="text_33">
    <!-- maximum latency for phpa over time -->
    <g transform="translate(709.205 20.88)scale(0.12 -0.12)">
     <use xlink:href="#DejaVuSans-109"/>
     <use x="97.412109" xlink:href="#DejaVuSans-97"/>
     <use x="158.691406" xlink:href="#DejaVuSans-120"/>
     <use x="217.871094" xlink:href="#DejaVuSans-105"/>
     <use x="245.654297" xlink:href="#DejaVuSans-109"/>
     <use x="343.066406" xlink:href="#DejaVuSans-117"/>
     <use x="406.445312" xlink:href="#DejaVuSans-109"/>
     <use x="503.857422" xlink:href="#DejaVuSans-32"/>
     <use x="535.644531" xlink:href="#DejaVuSans-108"/>
     <use x="563.427734" xlink:href="#DejaVuSans-97"/>
     <use x="624.707031" xlink:href="#DejaVuSans-116"/>
     <use x="663.916016" xlink:href="#DejaVuSans-101"/>
     <use x="725.439453" xlink:href="#DejaVuSans-110"/>
     <use x="788.818359" xlink:href="#DejaVuSans-99"/>
     <use x="843.798828" xlink:href="#DejaVuSans-121"/>
     <use x="902.978516" xlink:href="#DejaVuSans-32"/>
     <use x="934.765625" xlink:href="#DejaVuSans-102"/>
     <use x="969.970703" xlink:href="#DejaVuSans-111"/>
     <use x="1031.152344" xlink:href="#DejaVuSans-114"/>
     <use x="1072.265625" xlink:href="#DejaVuSans-32"/>
     <use x="1104.052734" xlink:href="#DejaVuSans-112"/>
     <use x="1167.529297" xlink:href="#DejaVuSans-104"/>
     <use x="1230.908203" xlink:href="#DejaVuSans-112"/>
     <use x="1294.384766" xlink:href="#DejaVuSans-97"/>
     <use x="1355.664062" xlink:href="#DejaVuSans-32"/>
     <use x="1387.451172" xlink:href="#DejaVuSans-111"/>
     <use x="1448.632812" xlink:href="#DejaVuSans-118"/>
     <use x="1507.8125" xlink:href="#DejaVuSans-101"/>
     <use x="1569.335938" xlink:href="#DejaVuSans-114"/>
     <use x="1610.449219" xlink:href="#DejaVuSans-32"/>
     <use x="1642.236328" xlink:href="#DejaVuSans-116"/>
     <use x="1681.445312" xlink:href="#DejaVuSans-105"/>
     <use x="1709.228516" xlink:href="#DejaVuSans-109"/>
     <use x="1806.640625" xlink:href="#DejaVuSans-101"/>
    </g>
   </g>
   <g id="legend_2">
    <g id="patch_13">
     <path d="M 598.142575 49.558125 
L 748.780075 49.558125 
Q 750.780075 49.558125 750.780075 47.558125 
L 750.780075 33.88 
Q 750.780075 31.88 748.780075 31.88 
L 598.142575 31.88 
Q 596.142575 31.88 596.142575 33.88 
L 596.142575 47.558125 
Q 596.142575 49.558125 598.142575 49.558125 
z
" style="fill:#ffffff;opacity:0.8;stroke:#cccccc;stroke-linejoin:miter;"/>
    </g>
    <g id="line2d_31">
     <path d="M 600.142575 39.978437 
L 620.142575 39.978437 
" style="fill:none;stroke:#800080;stroke-linecap:square;stroke-width:1.5;"/>
    </g>
    <g id="line2d_32"/>
    <g id="text_34">
     <!-- phpa maximum latency -->
     <g transform="translate(628.142575 43.478437)scale(0.1 -0.1)">
      <use xlink:href="#DejaVuSans-112"/>
      <use x="63.476562" xlink:href="#DejaVuSans-104"/>
      <use x="126.855469" xlink:href="#DejaVuSans-112"/>
      <use x="190.332031" xlink:href="#DejaVuSans-97"/>
      <use x="251.611328" xlink:href="#DejaVuSans-32"/>
      <use x="283.398438" xlink:href="#DejaVuSans-109"/>
      <use x="380.810547" xlink:href="#DejaVuSans-97"/>
      <use x="442.089844" xlink:href="#DejaVuSans-120"/>
      <use x="501.269531" xlink:href="#DejaVuSans-105"/>
      <use x="529.052734" xlink:href="#DejaVuSans-109"/>
      <use x="626.464844" xlink:href="#DejaVuSans-117"/>
      <use x="689.84375" xlink:href="#DejaVuSans-109"/>
      <use x="787.255859" xlink:href="#DejaVuSans-32"/>
      <use x="819.042969" xlink:href="#DejaVuSans-108"/>
      <use x="846.826172" xlink:href="#DejaVuSans-97"/>
      <use x="908.105469" xlink:href="#DejaVuSans-116"/>
      <use x="947.314453" xlink:href="#DejaVuSans-101"/>
      <use x="1008.837891" xlink:href="#DejaVuSans-110"/>
      <use x="1072.216797" xlink:href="#DejaVuSans-99"/>
      <use x="1127.197266" xlink:href="#DejaVuSans-121"/>
     </g>
    </g>
   </g>
  </g>
  <g id="axes_3">
   <g id="patch_14">
    <path d="M 57.17 1040.62 
L 517.473599 1040.62 
L 517.473599 568.52 
L 57.17 568.52 
z
" style="fill:#ffffff;"/>
   </g>
   <g id="matplotlib.axis_5">
    <g id="xtick_13">
     <g id="line2d_33">
      <g>
       <use style="stroke:#000000;stroke-width:0.8;" x="517.393532" xlink:href="#macd1ccbaa3" y="1040.62"/>
      </g>
     </g>
     <g id="text_35">
      <!-- Day 02 -->
      <g transform="translate(499.568532 1066.718437)scale(0.1 -0.1)">
       <use xlink:href="#DejaVuSans-68"/>
       <use x="77.001953" xlink:href="#DejaVuSans-97"/>
       <use x="138.28125" xlink:href="#DejaVuSans-121"/>
       <use x="197.460938" xlink:href="#DejaVuSans-32"/>
       <use x="229.248047" xlink:href="#DejaVuSans-48"/>
       <use x="292.871094" xlink:href="#DejaVuSans-50"/>
      </g>
     </g>
    </g>
    <g id="xtick_14">
     <g id="line2d_34">
      <g>
       <use style="stroke:#000000;stroke-width:0.6;" x="133.807199" xlink:href="#me965b576fe" y="1040.62"/>
      </g>
     </g>
     <g id="text_36">
      <!-- 04 -->
      <g transform="translate(127.444699 1053.618438)scale(0.1 -0.1)">
       <use xlink:href="#DejaVuSans-48"/>
       <use x="63.623047" xlink:href="#DejaVuSans-52"/>
      </g>
     </g>
    </g>
    <g id="xtick_15">
     <g id="line2d_35">
      <g>
       <use style="stroke:#000000;stroke-width:0.6;" x="210.524465" xlink:href="#me965b576fe" y="1040.62"/>
      </g>
     </g>
     <g id="text_37">
      <!-- 08 -->
      <g transform="translate(204.161965 1053.618438)scale(0.1 -0.1)">
       <use xlink:href="#DejaVuSans-48"/>
       <use x="63.623047" xlink:href="#DejaVuSans-56"/>
      </g>
     </g>
    </g>
    <g id="xtick_16">
     <g id="line2d_36">
      <g>
       <use style="stroke:#000000;stroke-width:0.6;" x="287.241732" xlink:href="#me965b576fe" y="1040.62"/>
      </g>
     </g>
     <g id="text_38">
      <!-- 12 -->
      <g transform="translate(280.879232 1053.618438)scale(0.1 -0.1)">
       <use xlink:href="#DejaVuSans-49"/>
       <use x="63.623047" xlink:href="#DejaVuSans-50"/>
      </g>
     </g>
    </g>
    <g id="xtick_17">
     <g id="line2d_37">
      <g>
       <use style="stroke:#000000;stroke-width:0.6;" x="363.958999" xlink:href="#me965b576fe" y="1040.62"/>
      </g>
     </g>
     <g id="text_39">
      <!-- 16 -->
      <g transform="translate(357.596499 1053.618438)scale(0.1 -0.1)">
       <use xlink:href="#DejaVuSans-49"/>
       <use x="63.623047" xlink:href="#DejaVuSans-54"/>
      </g>
     </g>
    </g>
    <g id="xtick_18">
     <g id="line2d_38">
      <g>
       <use style="stroke:#000000;stroke-width:0.6;" x="440.676265" xlink:href="#me965b576fe" y="1040.62"/>
      </g>
     </g>
     <g id="text_40">
      <!-- 20 -->
      <g transform="translate(434.313765 1053.618438)scale(0.1 -0.1)">
       <use xlink:href="#DejaVuSans-50"/>
       <use x="63.623047" xlink:href="#DejaVuSans-48"/>
      </g>
     </g>
    </g>
   </g>
   <g id="matplotlib.axis_6">
    <g id="ytick_15">
     <g id="line2d_39">
      <g>
       <use style="stroke:#000000;stroke-width:0.8;" x="57.17" xlink:href="#m93d7b26e4f" y="992.337045"/>
      </g>
     </g>
     <g id="text_41">
      <!-- 2 -->
      <g transform="translate(43.8075 996.136264)scale(0.1 -0.1)">
       <use xlink:href="#DejaVuSans-50"/>
      </g>
     </g>
    </g>
    <g id="ytick_16">
     <g id="line2d_40">
      <g>
       <use style="stroke:#000000;stroke-width:0.8;" x="57.17" xlink:href="#m93d7b26e4f" y="938.689318"/>
      </g>
     </g>
     <g id="text_42">
      <!-- 4 -->
      <g transform="translate(43.8075 942.488537)scale(0.1 -0.1)">
       <use xlink:href="#DejaVuSans-52"/>
      </g>
     </g>
    </g>
    <g id="ytick_17">
     <g id="line2d_41">
      <g>
       <use style="stroke:#000000;stroke-width:0.8;" x="57.17" xlink:href="#m93d7b26e4f" y="885.041591"/>
      </g>
     </g>
     <g id="text_43">
      <!-- 6 -->
      <g transform="translate(43.8075 888.84081)scale(0.1 -0.1)">
       <use xlink:href="#DejaVuSans-54"/>
      </g>
     </g>
    </g>
    <g id="ytick_18">
     <g id="line2d_42">
      <g>
       <use style="stroke:#000000;stroke-width:0.8;" x="57.17" xlink:href="#m93d7b26e4f" y="831.393864"/>
      </g>
     </g>
     <g id="text_44">
      <!-- 8 -->
      <g transform="translate(43.8075 835.193082)scale(0.1 -0.1)">
       <use xlink:href="#DejaVuSans-56"/>
      </g>
     </g>
    </g>
    <g id="ytick_19">
     <g id="line2d_43">
      <g>
       <use style="stroke:#000000;stroke-width:0.8;" x="57.17" xlink:href="#m93d7b26e4f" y="777.746136"/>
      </g>
     </g>
     <g id="text_45">
      <!-- 10 -->
      <g transform="translate(37.445 781.545355)scale(0.1 -0.1)">
       <use xlink:href="#DejaVuSans-49"/>
       <use x="63.623047" xlink:href="#DejaVuSans-48"/>
      </g>
     </g>
    </g>
    <g id="ytick_20">
     <g id="line2d_44">
      <g>
       <use style="stroke:#000000;stroke-width:0.8;" x="57.17" xlink:href="#m93d7b26e4f" y="724.098409"/>
      </g>
     </g>
     <g id="text_46">
      <!-- 12 -->
      <g transform="translate(37.445 727.897628)scale(0.1 -0.1)">
       <use xlink:href="#DejaVuSans-49"/>
       <use x="63.623047" xlink:href="#DejaVuSans-50"/>
      </g>
     </g>
    </g>
    <g id="ytick_21">
     <g id="line2d_45">
      <g>
       <use style="stroke:#000000;stroke-width:0.8;" x="57.17" xlink:href="#m93d7b26e4f" y="670.450682"/>
      </g>
     </g>
     <g id="text_47">
      <!-- 14 -->
      <g transform="translate(37.445 674.249901)scale(0.1 -0.1)">
       <use xlink:href="#DejaVuSans-49"/>
       <use x="63.623047" xlink:href="#DejaVuSans-52"/>
      </g>
     </g>
    </g>
    <g id="ytick_22">
     <g id="line2d_46">
      <g>
       <use style="stroke:#000000;stroke-width:0.8;" x="57.17" xlink:href="#m93d7b26e4f" y="616.802955"/>
      </g>
     </g>
     <g id="text_48">
      <!-- 16 -->
      <g transform="translate(37.445 620.602173)scale(0.1 -0.1)">
       <use xlink:href="#DejaVuSans-49"/>
       <use x="63.623047" xlink:href="#DejaVuSans-54"/>
      </g>
     </g>
    </g>
    <g id="text_49">
     <!-- number of replicas -->
     <defs>
      <path d="M 48.6875 27.296875 
Q 48.6875 37.203125 44.609375 42.84375 
Q 40.53125 48.484375 33.40625 48.484375 
Q 26.265625 48.484375 22.1875 42.84375 
Q 18.109375 37.203125 18.109375 27.296875 
Q 18.109375 17.390625 22.1875 11.75 
Q 26.265625 6.109375 33.40625 6.109375 
Q 40.53125 6.109375 44.609375 11.75 
Q 48.6875 17.390625 48.6875 27.296875 
z
M 18.109375 46.390625 
Q 20.953125 51.265625 25.265625 53.625 
Q 29.59375 56 35.59375 56 
Q 45.5625 56 51.78125 48.09375 
Q 58.015625 40.1875 58.015625 27.296875 
Q 58.015625 14.40625 51.78125 6.484375 
Q 45.5625 -1.421875 35.59375 -1.421875 
Q 29.59375 -1.421875 25.265625 0.953125 
Q 20.953125 3.328125 18.109375 8.203125 
L 18.109375 0 
L 9.078125 0 
L 9.078125 75.984375 
L 18.109375 75.984375 
z
" id="DejaVuSans-98"/>
      <path d="M 44.28125 53.078125 
L 44.28125 44.578125 
Q 40.484375 46.53125 36.375 47.5 
Q 32.28125 48.484375 27.875 48.484375 
Q 21.1875 48.484375 17.84375 46.4375 
Q 14.5 44.390625 14.5 40.28125 
Q 14.5 37.15625 16.890625 35.375 
Q 19.28125 33.59375 26.515625 31.984375 
L 29.59375 31.296875 
Q 39.15625 29.25 43.1875 25.515625 
Q 47.21875 21.78125 47.21875 15.09375 
Q 47.21875 7.46875 41.1875 3.015625 
Q 35.15625 -1.421875 24.609375 -1.421875 
Q 20.21875 -1.421875 15.453125 -0.5625 
Q 10.6875 0.296875 5.421875 2 
L 5.421875 11.28125 
Q 10.40625 8.6875 15.234375 7.390625 
Q 20.0625 6.109375 24.8125 6.109375 
Q 31.15625 6.109375 34.5625 8.28125 
Q 37.984375 10.453125 37.984375 14.40625 
Q 37.984375 18.0625 35.515625 20.015625 
Q 33.0625 21.96875 24.703125 23.78125 
L 21.578125 24.515625 
Q 13.234375 26.265625 9.515625 29.90625 
Q 5.8125 33.546875 5.8125 39.890625 
Q 5.8125 47.609375 11.28125 51.796875 
Q 16.75 56 26.8125 56 
Q 31.78125 56 36.171875 55.265625 
Q 40.578125 54.546875 44.28125 53.078125 
z
" id="DejaVuSans-115"/>
     </defs>
     <g transform="translate(31.365312 851.5825)rotate(-90)scale(0.1 -0.1)">
      <use xlink:href="#DejaVuSans-110"/>
      <use x="63.378906" xlink:href="#DejaVuSans-117"/>
      <use x="126.757812" xlink:href="#DejaVuSans-109"/>
      <use x="224.169922" xlink:href="#DejaVuSans-98"/>
      <use x="287.646484" xlink:href="#DejaVuSans-101"/>
      <use x="349.169922" xlink:href="#DejaVuSans-114"/>
      <use x="390.283203" xlink:href="#DejaVuSans-32"/>
      <use x="422.070312" xlink:href="#DejaVuSans-111"/>
      <use x="483.251953" xlink:href="#DejaVuSans-102"/>
      <use x="518.457031" xlink:href="#DejaVuSans-32"/>
      <use x="550.244141" xlink:href="#DejaVuSans-114"/>
      <use x="591.326172" xlink:href="#DejaVuSans-101"/>
      <use x="652.849609" xlink:href="#DejaVuSans-112"/>
      <use x="716.326172" xlink:href="#DejaVuSans-108"/>
      <use x="744.109375" xlink:href="#DejaVuSans-105"/>
      <use x="771.892578" xlink:href="#DejaVuSans-99"/>
      <use x="826.873047" xlink:href="#DejaVuSans-97"/>
      <use x="888.152344" xlink:href="#DejaVuSans-115"/>
     </g>
    </g>
   </g>
   <g id="line2d_47">
    <path clip-path="url(#p191edf4ff7)" d="M 57.17 1019.160909 
L 57.490066 1019.160909 
L 57.650015 938.689318 
L 57.890053 938.689318 
L 58.05001 911.865455 
L 68.367934 911.865455 
L 68.527867 885.041591 
L 71.807347 885.041591 
L 71.96731 911.865455 
L 109.958786 911.865455 
L 110.118744 885.041591 
L 111.79828 885.041591 
L 111.958247 911.865455 
L 113.078005 911.865455 
L 113.237945 938.689318 
L 113.397898 938.689318 
L 113.557855 885.041591 
L 116.277049 885.041591 
L 116.437022 911.865455 
L 144.989456 911.865455 
L 145.149395 938.689318 
L 145.38937 938.689318 
L 145.54931 911.865455 
L 151.467862 911.865455 
L 151.62781 885.041591 
L 153.307293 885.041591 
L 153.467238 911.865455 
L 215.054009 911.865455 
L 215.213982 938.689318 
L 216.65356 938.689318 
L 216.813734 911.865455 
L 239.368589 911.865455 
L 239.528546 885.041591 
L 241.20808 885.041591 
L 241.368044 911.865455 
L 242.567721 911.865455 
L 242.727679 885.041591 
L 242.887627 885.041591 
L 243.047676 831.393864 
L 271.28453 831.393864 
L 271.444477 858.217727 
L 271.684467 858.217727 
L 271.844452 804.57 
L 274.16396 804.57 
L 274.323913 831.393864 
L 287.361942 831.393864 
L 287.521886 804.57 
L 289.201565 804.57 
L 289.36151 831.393864 
L 301.599011 831.393864 
L 301.758981 885.041591 
L 301.918936 885.041591 
L 302.078882 911.865455 
L 357.66814 911.865455 
L 357.828089 724.098409 
L 361.107843 724.098409 
L 361.267835 670.450682 
L 371.989094 670.450682 
L 372.149059 616.802955 
L 380.232126 616.802955 
L 380.392085 670.450682 
L 392.872586 670.450682 
L 393.032542 616.802955 
L 394.71227 616.802955 
L 394.87222 643.626818 
L 395.911869 643.626818 
L 396.071804 670.450682 
L 396.231744 670.450682 
L 396.391696 697.274545 
L 397.511341 697.274545 
L 397.671286 804.57 
L 397.831246 804.57 
L 397.991202 911.865455 
L 405.589741 911.865455 
L 405.749686 885.041591 
L 407.429363 885.041591 
L 407.589334 911.865455 
L 483.816162 911.865455 
L 483.976221 938.689318 
L 484.136166 911.865455 
L 506.211277 911.865455 
L 506.371232 938.689318 
L 506.611156 938.689318 
L 506.771125 911.865455 
L 517.48986 911.865455 
L 517.48986 911.865455 
" style="fill:none;stroke:#008000;stroke-linecap:square;stroke-width:1.5;"/>
   </g>
   <g id="patch_15">
    <path d="M 57.17 1040.62 
L 57.17 568.52 
" style="fill:none;stroke:#000000;stroke-linecap:square;stroke-linejoin:miter;stroke-width:0.8;"/>
   </g>
   <g id="patch_16">
    <path d="M 517.473599 1040.62 
L 517.473599 568.52 
" style="fill:none;stroke:#000000;stroke-linecap:square;stroke-linejoin:miter;stroke-width:0.8;"/>
   </g>
   <g id="patch_17">
    <path d="M 57.17 1040.62 
L 517.473599 1040.62 
" style="fill:none;stroke:#000000;stroke-linecap:square;stroke-linejoin:miter;stroke-width:0.8;"/>
   </g>
   <g id="patch_18">
    <path d="M 57.17 568.52 
L 517.473599 568.52 
" style="fill:none;stroke:#000000;stroke-linecap:square;stroke-linejoin:miter;stroke-width:0.8;"/>
   </g>
   <g id="text_50">
    <!-- number of replicas for hpa over time -->
    <g transform="translate(176.804612 562.52)scale(0.12 -0.12)">
     <use xlink:href="#DejaVuSans-110"/>
     <use x="63.378906" xlink:href="#DejaVuSans-117"/>
     <use x="126.757812" xlink:href="#DejaVuSans-109"/>
     <use x="224.169922" xlink:href="#DejaVuSans-98"/>
     <use x="287.646484" xlink:href="#DejaVuSans-101"/>
     <use x="349.169922" xlink:href="#DejaVuSans-114"/>
     <use x="390.283203" xlink:href="#DejaVuSans-32"/>
     <use x="422.070312" xlink:href="#DejaVuSans-111"/>
     <use x="483.251953" xlink:href="#DejaVuSans-102"/>
     <use x="518.457031" xlink:href="#DejaVuSans-32"/>
     <use x="550.244141" xlink:href="#DejaVuSans-114"/>
     <use x="591.326172" xlink:href="#DejaVuSans-101"/>
     <use x="652.849609" xlink:href="#DejaVuSans-112"/>
     <use x="716.326172" xlink:href="#DejaVuSans-108"/>
     <use x="744.109375" xlink:href="#DejaVuSans-105"/>
     <use x="771.892578" xlink:href="#DejaVuSans-99"/>
     <use x="826.873047" xlink:href="#DejaVuSans-97"/>
     <use x="888.152344" xlink:href="#DejaVuSans-115"/>
     <use x="940.251953" xlink:href="#DejaVuSans-32"/>
     <use x="972.039062" xlink:href="#DejaVuSans-102"/>
     <use x="1007.244141" xlink:href="#DejaVuSans-111"/>
     <use x="1068.425781" xlink:href="#DejaVuSans-114"/>
     <use x="1109.539062" xlink:href="#DejaVuSans-32"/>
     <use x="1141.326172" xlink:href="#DejaVuSans-104"/>
     <use x="1204.705078" xlink:href="#DejaVuSans-112"/>
     <use x="1268.181641" xlink:href="#DejaVuSans-97"/>
     <use x="1329.460938" xlink:href="#DejaVuSans-32"/>
     <use x="1361.248047" xlink:href="#DejaVuSans-111"/>
     <use x="1422.429688" xlink:href="#DejaVuSans-118"/>
     <use x="1481.609375" xlink:href="#DejaVuSans-101"/>
     <use x="1543.132812" xlink:href="#DejaVuSans-114"/>
     <use x="1584.246094" xlink:href="#DejaVuSans-32"/>
     <use x="1616.033203" xlink:href="#DejaVuSans-116"/>
     <use x="1655.242188" xlink:href="#DejaVuSans-105"/>
     <use x="1683.025391" xlink:href="#DejaVuSans-109"/>
     <use x="1780.4375" xlink:href="#DejaVuSans-101"/>
    </g>
   </g>
   <g id="legend_3">
    <g id="patch_19">
     <path d="M 362.456412 591.198125 
L 510.473599 591.198125 
Q 512.473599 591.198125 512.473599 589.198125 
L 512.473599 575.52 
Q 512.473599 573.52 510.473599 573.52 
L 362.456412 573.52 
Q 360.456412 573.52 360.456412 575.52 
L 360.456412 589.198125 
Q 360.456412 591.198125 362.456412 591.198125 
z
" style="fill:#ffffff;opacity:0.8;stroke:#cccccc;stroke-linejoin:miter;"/>
    </g>
    <g id="line2d_48">
     <path d="M 364.456412 581.618438 
L 384.456412 581.618438 
" style="fill:none;stroke:#008000;stroke-linecap:square;stroke-width:1.5;"/>
    </g>
    <g id="line2d_49"/>
    <g id="text_51">
     <!-- hpa number of replicas -->
     <g transform="translate(392.456412 585.118438)scale(0.1 -0.1)">
      <use xlink:href="#DejaVuSans-104"/>
      <use x="63.378906" xlink:href="#DejaVuSans-112"/>
      <use x="126.855469" xlink:href="#DejaVuSans-97"/>
      <use x="188.134766" xlink:href="#DejaVuSans-32"/>
      <use x="219.921875" xlink:href="#DejaVuSans-110"/>
      <use x="283.300781" xlink:href="#DejaVuSans-117"/>
      <use x="346.679688" xlink:href="#DejaVuSans-109"/>
      <use x="444.091797" xlink:href="#DejaVuSans-98"/>
      <use x="507.568359" xlink:href="#DejaVuSans-101"/>
      <use x="569.091797" xlink:href="#DejaVuSans-114"/>
      <use x="610.205078" xlink:href="#DejaVuSans-32"/>
      <use x="641.992188" xlink:href="#DejaVuSans-111"/>
      <use x="703.173828" xlink:href="#DejaVuSans-102"/>
      <use x="738.378906" xlink:href="#DejaVuSans-32"/>
      <use x="770.166016" xlink:href="#DejaVuSans-114"/>
      <use x="811.248047" xlink:href="#DejaVuSans-101"/>
      <use x="872.771484" xlink:href="#DejaVuSans-112"/>
      <use x="936.248047" xlink:href="#DejaVuSans-108"/>
      <use x="964.03125" xlink:href="#DejaVuSans-105"/>
      <use x="991.814453" xlink:href="#DejaVuSans-99"/>
      <use x="1046.794922" xlink:href="#DejaVuSans-97"/>
      <use x="1108.074219" xlink:href="#DejaVuSans-115"/>
     </g>
    </g>
   </g>
  </g>
  <g id="axes_4">
   <g id="patch_20">
    <path d="M 591.142575 1040.62 
L 1051.446175 1040.62 
L 1051.446175 568.52 
L 591.142575 568.52 
z
" style="fill:#ffffff;"/>
   </g>
   <g id="matplotlib.axis_7">
    <g id="xtick_19">
     <g id="line2d_50">
      <g>
       <use style="stroke:#000000;stroke-width:0.8;" x="1051.366111" xlink:href="#macd1ccbaa3" y="1040.62"/>
      </g>
     </g>
     <g id="text_52">
      <!-- Day 02 -->
      <g transform="translate(1033.541111 1066.718437)scale(0.1 -0.1)">
       <use xlink:href="#DejaVuSans-68"/>
       <use x="77.001953" xlink:href="#DejaVuSans-97"/>
       <use x="138.28125" xlink:href="#DejaVuSans-121"/>
       <use x="197.460938" xlink:href="#DejaVuSans-32"/>
       <use x="229.248047" xlink:href="#DejaVuSans-48"/>
       <use x="292.871094" xlink:href="#DejaVuSans-50"/>
      </g>
     </g>
    </g>
    <g id="xtick_20">
     <g id="line2d_51">
      <g>
       <use style="stroke:#000000;stroke-width:0.6;" x="667.779779" xlink:href="#me965b576fe" y="1040.62"/>
      </g>
     </g>
     <g id="text_53">
      <!-- 04 -->
      <g transform="translate(661.417279 1053.618438)scale(0.1 -0.1)">
       <use xlink:href="#DejaVuSans-48"/>
       <use x="63.623047" xlink:href="#DejaVuSans-52"/>
      </g>
     </g>
    </g>
    <g id="xtick_21">
     <g id="line2d_52">
      <g>
       <use style="stroke:#000000;stroke-width:0.6;" x="744.497045" xlink:href="#me965b576fe" y="1040.62"/>
      </g>
     </g>
     <g id="text_54">
      <!-- 08 -->
      <g transform="translate(738.134545 1053.618438)scale(0.1 -0.1)">
       <use xlink:href="#DejaVuSans-48"/>
       <use x="63.623047" xlink:href="#DejaVuSans-56"/>
      </g>
     </g>
    </g>
    <g id="xtick_22">
     <g id="line2d_53">
      <g>
       <use style="stroke:#000000;stroke-width:0.6;" x="821.214312" xlink:href="#me965b576fe" y="1040.62"/>
      </g>
     </g>
     <g id="text_55">
      <!-- 12 -->
      <g transform="translate(814.851812 1053.618438)scale(0.1 -0.1)">
       <use xlink:href="#DejaVuSans-49"/>
       <use x="63.623047" xlink:href="#DejaVuSans-50"/>
      </g>
     </g>
    </g>
    <g id="xtick_23">
     <g id="line2d_54">
      <g>
       <use style="stroke:#000000;stroke-width:0.6;" x="897.931578" xlink:href="#me965b576fe" y="1040.62"/>
      </g>
     </g>
     <g id="text_56">
      <!-- 16 -->
      <g transform="translate(891.569078 1053.618438)scale(0.1 -0.1)">
       <use xlink:href="#DejaVuSans-49"/>
       <use x="63.623047" xlink:href="#DejaVuSans-54"/>
      </g>
     </g>
    </g>
    <g id="xtick_24">
     <g id="line2d_55">
      <g>
       <use style="stroke:#000000;stroke-width:0.6;" x="974.648845" xlink:href="#me965b576fe" y="1040.62"/>
      </g>
     </g>
     <g id="text_57">
      <!-- 20 -->
      <g transform="translate(968.286345 1053.618438)scale(0.1 -0.1)">
       <use xlink:href="#DejaVuSans-50"/>
       <use x="63.623047" xlink:href="#DejaVuSans-48"/>
      </g>
     </g>
    </g>
   </g>
   <g id="matplotlib.axis_8">
    <g id="ytick_23">
     <g id="line2d_56">
      <g>
       <use style="stroke:#000000;stroke-width:0.8;" x="591.142575" xlink:href="#m93d7b26e4f" y="981.291925"/>
      </g>
     </g>
     <g id="text_58">
      <!-- 2.5 -->
      <defs>
       <path d="M 10.6875 12.40625 
L 21 12.40625 
L 21 0 
L 10.6875 0 
z
" id="DejaVuSans-46"/>
      </defs>
      <g transform="translate(568.23945 985.091144)scale(0.1 -0.1)">
       <use xlink:href="#DejaVuSans-50"/>
       <use x="63.623047" xlink:href="#DejaVuSans-46"/>
       <use x="95.410156" xlink:href="#DejaVuSans-53"/>
      </g>
     </g>
    </g>
    <g id="ytick_24">
     <g id="line2d_57">
      <g>
       <use style="stroke:#000000;stroke-width:0.8;" x="591.142575" xlink:href="#m93d7b26e4f" y="918.176952"/>
      </g>
     </g>
     <g id="text_59">
      <!-- 5.0 -->
      <g transform="translate(568.23945 921.976171)scale(0.1 -0.1)">
       <use xlink:href="#DejaVuSans-53"/>
       <use x="63.623047" xlink:href="#DejaVuSans-46"/>
       <use x="95.410156" xlink:href="#DejaVuSans-48"/>
      </g>
     </g>
    </g>
    <g id="ytick_25">
     <g id="line2d_58">
      <g>
       <use style="stroke:#000000;stroke-width:0.8;" x="591.142575" xlink:href="#m93d7b26e4f" y="855.061979"/>
      </g>
     </g>
     <g id="text_60">
      <!-- 7.5 -->
      <defs>
       <path d="M 8.203125 72.90625 
L 55.078125 72.90625 
L 55.078125 68.703125 
L 28.609375 0 
L 18.3125 0 
L 43.21875 64.59375 
L 8.203125 64.59375 
z
" id="DejaVuSans-55"/>
      </defs>
      <g transform="translate(568.23945 858.861197)scale(0.1 -0.1)">
       <use xlink:href="#DejaVuSans-55"/>
       <use x="63.623047" xlink:href="#DejaVuSans-46"/>
       <use x="95.410156" xlink:href="#DejaVuSans-53"/>
      </g>
     </g>
    </g>
    <g id="ytick_26">
     <g id="line2d_59">
      <g>
       <use style="stroke:#000000;stroke-width:0.8;" x="591.142575" xlink:href="#m93d7b26e4f" y="791.947005"/>
      </g>
     </g>
     <g id="text_61">
      <!-- 10.0 -->
      <g transform="translate(561.87695 795.746224)scale(0.1 -0.1)">
       <use xlink:href="#DejaVuSans-49"/>
       <use x="63.623047" xlink:href="#DejaVuSans-48"/>
       <use x="127.246094" xlink:href="#DejaVuSans-46"/>
       <use x="159.033203" xlink:href="#DejaVuSans-48"/>
      </g>
     </g>
    </g>
    <g id="ytick_27">
     <g id="line2d_60">
      <g>
       <use style="stroke:#000000;stroke-width:0.8;" x="591.142575" xlink:href="#m93d7b26e4f" y="728.832032"/>
      </g>
     </g>
     <g id="text_62">
      <!-- 12.5 -->
      <g transform="translate(561.87695 732.631251)scale(0.1 -0.1)">
       <use xlink:href="#DejaVuSans-49"/>
       <use x="63.623047" xlink:href="#DejaVuSans-50"/>
       <use x="127.246094" xlink:href="#DejaVuSans-46"/>
       <use x="159.033203" xlink:href="#DejaVuSans-53"/>
      </g>
     </g>
    </g>
    <g id="ytick_28">
     <g id="line2d_61">
      <g>
       <use style="stroke:#000000;stroke-width:0.8;" x="591.142575" xlink:href="#m93d7b26e4f" y="665.717059"/>
      </g>
     </g>
     <g id="text_63">
      <!-- 15.0 -->
      <g transform="translate(561.87695 669.516278)scale(0.1 -0.1)">
       <use xlink:href="#DejaVuSans-49"/>
       <use x="63.623047" xlink:href="#DejaVuSans-53"/>
       <use x="127.246094" xlink:href="#DejaVuSans-46"/>
       <use x="159.033203" xlink:href="#DejaVuSans-48"/>
      </g>
     </g>
    </g>
    <g id="ytick_29">
     <g id="line2d_62">
      <g>
       <use style="stroke:#000000;stroke-width:0.8;" x="591.142575" xlink:href="#m93d7b26e4f" y="602.602086"/>
      </g>
     </g>
     <g id="text_64">
      <!-- 17.5 -->
      <g transform="translate(561.87695 606.401304)scale(0.1 -0.1)">
       <use xlink:href="#DejaVuSans-49"/>
       <use x="63.623047" xlink:href="#DejaVuSans-55"/>
       <use x="127.246094" xlink:href="#DejaVuSans-46"/>
       <use x="159.033203" xlink:href="#DejaVuSans-53"/>
      </g>
     </g>
    </g>
    <g id="text_65">
     <!-- number of replicas -->
     <g transform="translate(555.797263 851.5825)rotate(-90)scale(0.1 -0.1)">
      <use xlink:href="#DejaVuSans-110"/>
      <use x="63.378906" xlink:href="#DejaVuSans-117"/>
      <use x="126.757812" xlink:href="#DejaVuSans-109"/>
      <use x="224.169922" xlink:href="#DejaVuSans-98"/>
      <use x="287.646484" xlink:href="#DejaVuSans-101"/>
      <use x="349.169922" xlink:href="#DejaVuSans-114"/>
      <use x="390.283203" xlink:href="#DejaVuSans-32"/>
      <use x="422.070312" xlink:href="#DejaVuSans-111"/>
      <use x="483.251953" xlink:href="#DejaVuSans-102"/>
      <use x="518.457031" xlink:href="#DejaVuSans-32"/>
      <use x="550.244141" xlink:href="#DejaVuSans-114"/>
      <use x="591.326172" xlink:href="#DejaVuSans-101"/>
      <use x="652.849609" xlink:href="#DejaVuSans-112"/>
      <use x="716.326172" xlink:href="#DejaVuSans-108"/>
      <use x="744.109375" xlink:href="#DejaVuSans-105"/>
      <use x="771.892578" xlink:href="#DejaVuSans-99"/>
      <use x="826.873047" xlink:href="#DejaVuSans-97"/>
      <use x="888.152344" xlink:href="#DejaVuSans-115"/>
     </g>
    </g>
   </g>
   <g id="line2d_63">
    <path clip-path="url(#pf440550200)" d="M 591.142575 1019.160909 
L 591.302554 1019.160909 
L 591.462517 918.176952 
L 630.017656 918.176952 
L 630.177588 892.930963 
L 632.49721 892.930963 
L 632.657162 918.176952 
L 686.171609 918.176952 
L 686.331602 943.422941 
L 687.211354 943.422941 
L 687.371288 918.176952 
L 735.045053 918.176952 
L 735.205038 943.422941 
L 735.444947 943.422941 
L 735.604881 918.176952 
L 750.481851 918.176952 
L 750.6418 943.422941 
L 751.121694 943.422941 
L 751.281651 892.930963 
L 753.041333 892.930963 
L 753.201285 918.176952 
L 773.521146 918.176952 
L 773.681078 842.438984 
L 823.677082 842.438984 
L 823.837035 817.192995 
L 825.916932 817.192995 
L 826.076868 842.438984 
L 832.636304 842.438984 
L 832.796279 892.930963 
L 834.236008 892.930963 
L 834.396007 918.176952 
L 843.75521 918.176952 
L 843.915179 943.422941 
L 844.155313 943.422941 
L 844.315256 918.176952 
L 880.553407 918.176952 
L 880.713383 892.930963 
L 883.433352 892.930963 
L 883.593307 918.176952 
L 888.553409 918.176952 
L 888.713557 716.209037 
L 928.473979 716.209037 
L 928.633961 918.176952 
L 947.990589 918.176952 
L 948.150668 943.422941 
L 948.390597 943.422941 
L 948.55054 918.176952 
L 988.621375 918.176952 
L 988.781322 892.930963 
L 990.780845 892.930963 
L 990.9408 918.176952 
L 1035.977055 918.176952 
L 1036.137002 943.422941 
L 1036.296962 943.422941 
L 1036.45726 892.930963 
L 1038.21694 892.930963 
L 1038.376878 918.176952 
L 1043.495935 918.176952 
L 1043.655937 943.422941 
L 1044.215727 943.422941 
L 1044.375676 918.176952 
L 1051.493898 918.176952 
L 1051.493898 918.176952 
" style="fill:none;stroke:#800080;stroke-linecap:square;stroke-width:1.5;"/>
   </g>
   <g id="patch_21">
    <path d="M 591.142575 1040.62 
L 591.142575 568.52 
" style="fill:none;stroke:#000000;stroke-linecap:square;stroke-linejoin:miter;stroke-width:0.8;"/>
   </g>
   <g id="patch_22">
    <path d="M 1051.446175 1040.62 
L 1051.446175 568.52 
" style="fill:none;stroke:#000000;stroke-linecap:square;stroke-linejoin:miter;stroke-width:0.8;"/>
   </g>
   <g id="patch_23">
    <path d="M 591.142575 1040.62 
L 1051.446175 1040.62 
" style="fill:none;stroke:#000000;stroke-linecap:square;stroke-linejoin:miter;stroke-width:0.8;"/>
   </g>
   <g id="patch_24">
    <path d="M 591.142575 568.52 
L 1051.446175 568.52 
" style="fill:none;stroke:#000000;stroke-linecap:square;stroke-linejoin:miter;stroke-width:0.8;"/>
   </g>
   <g id="text_66">
    <!-- number of replicas for phpa over time -->
    <g transform="translate(706.968125 562.52)scale(0.12 -0.12)">
     <use xlink:href="#DejaVuSans-110"/>
     <use x="63.378906" xlink:href="#DejaVuSans-117"/>
     <use x="126.757812" xlink:href="#DejaVuSans-109"/>
     <use x="224.169922" xlink:href="#DejaVuSans-98"/>
     <use x="287.646484" xlink:href="#DejaVuSans-101"/>
     <use x="349.169922" xlink:href="#DejaVuSans-114"/>
     <use x="390.283203" xlink:href="#DejaVuSans-32"/>
     <use x="422.070312" xlink:href="#DejaVuSans-111"/>
     <use x="483.251953" xlink:href="#DejaVuSans-102"/>
     <use x="518.457031" xlink:href="#DejaVuSans-32"/>
     <use x="550.244141" xlink:href="#DejaVuSans-114"/>
     <use x="591.326172" xlink:href="#DejaVuSans-101"/>
     <use x="652.849609" xlink:href="#DejaVuSans-112"/>
     <use x="716.326172" xlink:href="#DejaVuSans-108"/>
     <use x="744.109375" xlink:href="#DejaVuSans-105"/>
     <use x="771.892578" xlink:href="#DejaVuSans-99"/>
     <use x="826.873047" xlink:href="#DejaVuSans-97"/>
     <use x="888.152344" xlink:href="#DejaVuSans-115"/>
     <use x="940.251953" xlink:href="#DejaVuSans-32"/>
     <use x="972.039062" xlink:href="#DejaVuSans-102"/>
     <use x="1007.244141" xlink:href="#DejaVuSans-111"/>
     <use x="1068.425781" xlink:href="#DejaVuSans-114"/>
     <use x="1109.539062" xlink:href="#DejaVuSans-32"/>
     <use x="1141.326172" xlink:href="#DejaVuSans-112"/>
     <use x="1204.802734" xlink:href="#DejaVuSans-104"/>
     <use x="1268.181641" xlink:href="#DejaVuSans-112"/>
     <use x="1331.658203" xlink:href="#DejaVuSans-97"/>
     <use x="1392.9375" xlink:href="#DejaVuSans-32"/>
     <use x="1424.724609" xlink:href="#DejaVuSans-111"/>
     <use x="1485.90625" xlink:href="#DejaVuSans-118"/>
     <use x="1545.085938" xlink:href="#DejaVuSans-101"/>
     <use x="1606.609375" xlink:href="#DejaVuSans-114"/>
     <use x="1647.722656" xlink:href="#DejaVuSans-32"/>
     <use x="1679.509766" xlink:href="#DejaVuSans-116"/>
     <use x="1718.71875" xlink:href="#DejaVuSans-105"/>
     <use x="1746.501953" xlink:href="#DejaVuSans-109"/>
     <use x="1843.914062" xlink:href="#DejaVuSans-101"/>
    </g>
   </g>
   <g id="legend_4">
    <g id="patch_25">
     <path d="M 890.08055 591.198125 
L 1044.446175 591.198125 
Q 1046.446175 591.198125 1046.446175 589.198125 
L 1046.446175 575.52 
Q 1046.446175 573.52 1044.446175 573.52 
L 890.08055 573.52 
Q 888.08055 573.52 888.08055 575.52 
L 888.08055 589.198125 
Q 888.08055 591.198125 890.08055 591.198125 
z
" style="fill:#ffffff;opacity:0.8;stroke:#cccccc;stroke-linejoin:miter;"/>
    </g>
    <g id="line2d_64">
     <path d="M 892.08055 581.618438 
L 912.08055 581.618438 
" style="fill:none;stroke:#800080;stroke-linecap:square;stroke-width:1.5;"/>
    </g>
    <g id="line2d_65"/>
    <g id="text_67">
     <!-- phpa number of replicas -->
     <g transform="translate(920.08055 585.118438)scale(0.1 -0.1)">
      <use xlink:href="#DejaVuSans-112"/>
      <use x="63.476562" xlink:href="#DejaVuSans-104"/>
      <use x="126.855469" xlink:href="#DejaVuSans-112"/>
      <use x="190.332031" xlink:href="#DejaVuSans-97"/>
      <use x="251.611328" xlink:href="#DejaVuSans-32"/>
      <use x="283.398438" xlink:href="#DejaVuSans-110"/>
      <use x="346.777344" xlink:href="#DejaVuSans-117"/>
      <use x="410.15625" xlink:href="#DejaVuSans-109"/>
      <use x="507.568359" xlink:href="#DejaVuSans-98"/>
      <use x="571.044922" xlink:href="#DejaVuSans-101"/>
      <use x="632.568359" xlink:href="#DejaVuSans-114"/>
      <use x="673.681641" xlink:href="#DejaVuSans-32"/>
      <use x="705.46875" xlink:href="#DejaVuSans-111"/>
      <use x="766.650391" xlink:href="#DejaVuSans-102"/>
      <use x="801.855469" xlink:href="#DejaVuSans-32"/>
      <use x="833.642578" xlink:href="#DejaVuSans-114"/>
      <use x="874.724609" xlink:href="#DejaVuSans-101"/>
      <use x="936.248047" xlink:href="#DejaVuSans-112"/>
      <use x="999.724609" xlink:href="#DejaVuSans-108"/>
      <use x="1027.507812" xlink:href="#DejaVuSans-105"/>
      <use x="1055.291016" xlink:href="#DejaVuSans-99"/>
      <use x="1110.271484" xlink:href="#DejaVuSans-97"/>
      <use x="1171.550781" xlink:href="#DejaVuSans-115"/>
     </g>
    </g>
   </g>
  </g>
 </g>
 <defs>
  <clipPath id="p1c5f53dae7">
   <rect height="472.1" width="460.303599" x="57.17" y="26.88"/>
  </clipPath>
  <clipPath id="p6d51cde3d4">
   <rect height="472.1" width="460.303599" x="591.142575" y="26.88"/>
  </clipPath>
  <clipPath id="p191edf4ff7">
   <rect height="472.1" width="460.303599" x="57.17" y="568.52"/>
  </clipPath>
  <clipPath id="pf440550200">
   <rect height="472.1" width="460.303599" x="591.142575" y="568.52"/>
  </clipPath>
 </defs>
</svg>
